<?xml version="1.0" encoding="utf-8"?>
<svg width="9px" height="6px" viewBox="0 0 9 6" version="1.1" xmlns:xlink="http://www.w3.org/1999/xlink" xmlns="http://www.w3.org/2000/svg">
  <g id="Group-5" transform="translate(0.25 0.25)">
    <path d="M0.774492 0.132296L3.87012 3.22793Q3.90168 3.25948 3.92647 3.29659Q3.95126 3.33369 3.96834 3.37492Q3.98542 3.41615 3.99413 3.45992Q4.00283 3.50369 4.00283 3.54832Q4.00283 3.59294 3.99413 3.63671Q3.98542 3.68048 3.96834 3.72171Q3.95126 3.76294 3.92647 3.80005Q3.90168 3.83715 3.87012 3.86871L3.86871 3.87012Q3.83715 3.90168 3.80005 3.92647Q3.76294 3.95126 3.72171 3.96834Q3.68048 3.98542 3.63671 3.99413Q3.59294 4.00283 3.54832 4.00283Q3.50369 4.00283 3.45992 3.99413Q3.41615 3.98542 3.37492 3.96834Q3.33369 3.95126 3.29659 3.92647Q3.25948 3.90168 3.22793 3.87012L0.132296 0.774492Q0.100741 0.742936 0.0759474 0.70583Q0.0511542 0.668725 0.0340764 0.627495Q0.0169986 0.586266 0.00829236 0.542496Q-0.000413841 0.498727 -0.000413837 0.454101Q-0.000413833 0.409474 0.00829238 0.365705Q0.0169986 0.321936 0.0340764 0.280707Q0.0511543 0.239477 0.0759475 0.202371Q0.100741 0.165266 0.132296 0.13371L0.133711 0.132296Q0.165266 0.10074 0.202372 0.0759469Q0.239478 0.0511537 0.280707 0.0340759Q0.321937 0.016998 0.365706 0.00829183Q0.409475 -0.000414376 0.454101 -0.00041437Q0.498728 -0.000414363 0.542497 0.00829185Q0.586266 0.0169981 0.627496 0.0340759Q0.668725 0.0511538 0.705831 0.075947Q0.742936 0.10074 0.774492 0.132296Z" transform="matrix(1 0 0 -1 3.529718 4.623591)" id="Rectangle-3" fill="#23292F" fill-rule="evenodd" stroke="none" />
    <path d="M0.132296 3.22793L3.22793 0.132296Q3.25948 0.100741 3.29659 0.0759474Q3.33369 0.0511542 3.37492 0.0340763Q3.41615 0.0169984 3.45992 0.00829222Q3.50369 -0.000414004 3.54832 -0.00041402Q3.59294 -0.000414037 3.63671 0.00829216Q3.68048 0.0169983 3.72171 0.0340762Q3.76294 0.051154 3.80005 0.0759472Q3.83715 0.10074 3.86871 0.132296L3.87012 0.13371Q3.90168 0.165266 3.92647 0.202372Q3.95126 0.239477 3.96834 0.280707Q3.98542 0.321937 3.99413 0.365706Q4.00283 0.409475 4.00283 0.454101Q4.00283 0.498728 3.99413 0.542497Q3.98542 0.586266 3.96834 0.627496Q3.95126 0.668725 3.92647 0.705831Q3.90168 0.742936 3.87012 0.774492L0.774492 3.87012Q0.742936 3.90168 0.705831 3.92647Q0.668725 3.95126 0.627495 3.96834Q0.586266 3.98542 0.542497 3.99413Q0.498728 4.00283 0.454101 4.00283Q0.409475 4.00283 0.365705 3.99413Q0.321936 3.98542 0.280707 3.96834Q0.239477 3.95126 0.202372 3.92647Q0.165266 3.90168 0.13371 3.87012L0.132296 3.86871Q0.10074 3.83715 0.0759472 3.80005Q0.051154 3.76294 0.0340762 3.72171Q0.0169983 3.68048 0.0082921 3.63671Q-0.000414108 3.59294 -0.000414108 3.54832Q-0.000414108 3.50369 0.0082921 3.45992Q0.0169983 3.41615 0.0340762 3.37492Q0.051154 3.33369 0.0759472 3.29659Q0.10074 3.25948 0.132296 3.22793Z" transform="matrix(1 0 0 -1 0.28884363 4.680162)" id="Rectangle-3-Copy-2" fill="#23292F" fill-rule="evenodd" stroke="none" />
  </g>
</svg>