<?xml version="1.0" encoding="utf-8"?>
<svg width="14px" height="15px" viewBox="0 0 14 15" version="1.1" xmlns:xlink="http://www.w3.org/1999/xlink" xmlns="http://www.w3.org/2000/svg">
  <g id="Group-Copy-2" transform="matrix(-4.371139E-08 -1 1 -4.371139E-08 0 15)">
    <path d="M0.220965 5.8916L5.7151 0.397463Q5.77037 0.342188 5.83537 0.298759Q5.90037 0.25533 5.97259 0.225415Q6.04481 0.195501 6.12147 0.18025Q6.19814 0.165 6.27631 0.165Q6.35448 0.165 6.43115 0.18025Q6.50782 0.195501 6.58004 0.225415Q6.65226 0.25533 6.71726 0.298759Q6.78225 0.342188 6.83753 0.397463L6.83894 0.398877Q6.89422 0.454151 6.93765 0.519148Q6.98107 0.584144 7.01099 0.656364Q7.0409 0.728584 7.05615 0.805252Q7.0714 0.881921 7.0714 0.960091Q7.0714 1.03826 7.05615 1.11493Q7.0409 1.1916 7.01099 1.26382Q6.98107 1.33604 6.93765 1.40103Q6.89422 1.46603 6.83894 1.52131L2.88586 5.47439L13.2316 5.47438Q13.287 5.47438 13.3421 5.47981Q13.3973 5.48524 13.4516 5.49605Q13.5059 5.50685 13.5589 5.52293Q13.6119 5.539 13.6631 5.5602Q13.7142 5.58139 13.7631 5.6075Q13.8119 5.63361 13.858 5.66438Q13.904 5.69515 13.9468 5.73028Q13.9896 5.76542 14.0288 5.80458Q14.068 5.84374 14.1031 5.88655Q14.1382 5.92936 14.169 5.97541Q14.1998 6.02146 14.2259 6.07031Q14.252 6.11915 14.2732 6.17032Q14.2944 6.22148 14.3104 6.27448Q14.3265 6.32748 14.3373 6.3818Q14.3481 6.43612 14.3536 6.49123Q14.359 6.54635 14.359 6.60174L14.359 6.60374Q14.359 6.65912 14.3536 6.71423Q14.3481 6.76935 14.3373 6.82367Q14.3265 6.87799 14.3104 6.93099Q14.2944 6.98399 14.2732 7.03515Q14.252 7.08632 14.2259 7.13516Q14.1998 7.18401 14.169 7.23006Q14.1382 7.27611 14.1031 7.31892Q14.068 7.36173 14.0288 7.40089Q13.9896 7.44005 13.9468 7.47519Q13.904 7.51032 13.858 7.54109Q13.8119 7.57186 13.7631 7.59797Q13.7142 7.62408 13.6631 7.64527Q13.6119 7.66647 13.5589 7.68254Q13.5059 7.69862 13.4516 7.70942Q13.3972 7.72023 13.3421 7.72566Q13.287 7.73109 13.2316 7.73109L2.74672 7.73109L6.93323 11.9176Q6.9885 11.9729 7.03193 12.0379Q7.07536 12.1029 7.10527 12.1751Q7.13519 12.2473 7.15044 12.324Q7.16569 12.4006 7.16569 12.4788Q7.16569 12.557 7.15044 12.6337Q7.13519 12.7103 7.10527 12.7825Q7.07536 12.8548 7.03193 12.9198Q6.9885 12.9848 6.93323 13.04L6.93181 13.0414Q6.82018 13.1531 6.67432 13.2135Q6.52847 13.2739 6.3706 13.2739Q6.21273 13.2739 6.06687 13.2135Q5.92102 13.1531 5.80938 13.0414L0.31525 7.54731Q0.247682 7.47974 0.198082 7.39806Q0.148482 7.31639 0.119685 7.22527Q0.0908884 7.13416 0.0845408 7.03881Q0.0781931 6.94347 0.0946573 6.84934Q-0.0114978 6.66529 -0.0114977 6.45281Q-0.0114977 6.29494 0.0489174 6.14908Q0.109332 6.00323 0.220965 5.8916Z" transform="translate(0.33845827 0.55161583)" id="Combined-Shape" fill="#FFFFFF" fill-rule="evenodd" stroke="none" />
  </g>
</svg>