<?xml version="1.0" encoding="utf-8"?>
<svg width="17px" height="11px" viewBox="0 0 17 11" version="1.1" xmlns:xlink="http://www.w3.org/1999/xlink" xmlns="http://www.w3.org/2000/svg">
  <g id="Group-5" transform="translate(0.5 0.5)">
    <path d="M1.86242 0.849327L8.10364 7.09055Q8.16429 7.1512 8.21194 7.22252Q8.2596 7.29384 8.29242 7.37308Q8.32524 7.45233 8.34198 7.53645Q8.35871 7.62058 8.35871 7.70635Q8.35871 7.79212 8.34198 7.87625Q8.32524 7.96037 8.29242 8.03962Q8.2596 8.11886 8.21194 8.19018Q8.16429 8.2615 8.10364 8.32215L8.05085 8.37494Q7.9902 8.43559 7.91888 8.48324Q7.84756 8.5309 7.76832 8.56372Q7.68907 8.59655 7.60495 8.61328Q7.52082 8.63001 7.43505 8.63001Q7.34927 8.63001 7.26515 8.61328Q7.18102 8.59655 7.10178 8.56372Q7.02253 8.5309 6.95122 8.48324Q6.8799 8.43559 6.81925 8.37494L0.578025 2.13372Q0.517374 2.07307 0.469721 2.00175Q0.422068 1.93043 0.389244 1.85119Q0.356419 1.77194 0.339686 1.68782Q0.322952 1.60369 0.322952 1.51792Q0.322952 1.43214 0.339686 1.34802Q0.356419 1.26389 0.389244 1.18465Q0.422068 1.1054 0.469721 1.03409Q0.517374 0.962767 0.578025 0.902116L0.630815 0.849326Q0.691466 0.788675 0.762785 0.741022Q0.834103 0.693369 0.913347 0.660545Q0.992592 0.62772 1.07672 0.610987Q1.16084 0.594253 1.24662 0.594253Q1.33239 0.594253 1.41652 0.610987Q1.50064 0.627721 1.57989 0.660545Q1.65913 0.693369 1.73045 0.741022Q1.80177 0.788675 1.86242 0.849327L1.86242 0.849327Z" transform="matrix(1 0 0 -1 6.7210226 9.856897)" id="Rectangle-3" fill="#00F3AB" fill-rule="evenodd" stroke="none" />
    <path d="M0.578025 7.09055L6.81925 0.849328Q6.8799 0.788676 6.95122 0.741023Q7.02253 0.69337 7.10178 0.660546Q7.18102 0.627721 7.26515 0.610988Q7.34927 0.594254 7.43505 0.594254Q7.52082 0.594254 7.60495 0.610988Q7.68907 0.627721 7.76832 0.660545Q7.84756 0.693369 7.91888 0.741023Q7.9902 0.788676 8.05085 0.849327L8.10364 0.902117Q8.16429 0.962768 8.21194 1.03409Q8.2596 1.1054 8.29242 1.18465Q8.32524 1.26389 8.34198 1.34802Q8.35871 1.43214 8.35871 1.51792Q8.35871 1.60369 8.34198 1.68782Q8.32524 1.77194 8.29242 1.85119Q8.2596 1.93043 8.21194 2.00175Q8.16429 2.07307 8.10364 2.13372L1.86242 8.37494Q1.80177 8.43559 1.73045 8.48324Q1.65913 8.5309 1.57988 8.56372Q1.50064 8.59655 1.41651 8.61328Q1.33239 8.63001 1.24662 8.63001Q1.16084 8.63001 1.07672 8.61328Q0.992591 8.59655 0.913347 8.56372Q0.834102 8.5309 0.762784 8.48324Q0.691466 8.43559 0.630815 8.37494L0.578025 8.32215Q0.517374 8.2615 0.469721 8.19018Q0.422067 8.11886 0.389243 8.03962Q0.356419 7.96037 0.339685 7.87625Q0.322952 7.79212 0.322952 7.70635Q0.322952 7.62058 0.339685 7.53645Q0.356419 7.45233 0.389243 7.37308Q0.422067 7.29384 0.46972 7.22252Q0.517374 7.1512 0.578025 7.09055L0.578025 7.09055Z" transform="matrix(1 0 0 -1 0.23927383 9.970039)" id="Rectangle-3-Copy-2" fill="#00F3AB" fill-rule="evenodd" stroke="none" />
  </g>
</svg>