<?xml version="1.0" encoding="UTF-8"?>
<svg width="11px" height="11px" viewBox="0 0 11 11" version="1.1" xmlns="http://www.w3.org/2000/svg" xmlns:xlink="http://www.w3.org/1999/xlink">
    <!-- Generator: Sketch 61.2 (89653) - https://sketch.com -->
    <title>Group Copy 26</title>
    <desc>Created with Sketch.</desc>
    <g id="Page-1" stroke="none" stroke-width="1" fill="none" fill-rule="evenodd">
        <g id="Stafi-Product-1-Copy-33" transform="translate(-1044.000000, -125.000000)" fill="#FFFFFF">
            <g id="Group-Copy-26" transform="translate(1049.485281, 130.485281) rotate(-315.000000) translate(-1049.485281, -130.485281) translate(1043.485281, 124.485281)">
                <path d="M1.81818182,4.18181818 L10.1818182,4.18181818 C11.1859723,4.18181818 12,4.99584591 12,6 C12,7.00415409 11.1859723,7.81818182 10.1818182,7.81818182 L1.81818182,7.81818182 C0.814027728,7.81818182 -9.90711956e-17,7.00415409 0,6 C3.21115801e-16,4.99584591 0.814027728,4.18181818 1.81818182,4.18181818 Z" id="Rectangle-2"></path>
                <path d="M1.81818182,4.18181818 L10.1818182,4.18181818 C11.1859723,4.18181818 12,4.99584591 12,6 C12,7.00415409 11.1859723,7.81818182 10.1818182,7.81818182 L1.81818182,7.81818182 C0.814027728,7.81818182 -9.90711956e-17,7.00415409 0,6 C3.21115801e-16,4.99584591 0.814027728,4.18181818 1.81818182,4.18181818 Z" id="Rectangle-2-Copy" transform="translate(6.000000, 6.000000) rotate(-270.000000) translate(-6.000000, -6.000000) "></path>
            </g>
        </g>
    </g>
</svg>