<?xml version="1.0" encoding="utf-8"?>
<svg width="33px" height="33px" viewBox="0 0 33 33" version="1.1" xmlns:xlink="http://www.w3.org/1999/xlink" xmlns="http://www.w3.org/2000/svg">
  <g id="Group-Copy-26" transform="matrix(0.70710665 0.7071069 -0.7071069 0.70710665 16.263672 0)">
    <path d="M1.81718 0L21.1534 0Q21.2427 0 21.3315 0.00875023Q21.4203 0.0175005 21.5079 0.0349166Q21.5955 0.0523328 21.6809 0.0782472Q21.7663 0.104162 21.8488 0.138325Q21.9313 0.172488 22.01 0.214571Q22.0887 0.256653 22.163 0.30625Q22.2372 0.355847 22.3062 0.412481Q22.3752 0.469115 22.4383 0.53224Q22.5014 0.595365 22.5581 0.664374Q22.6147 0.733382 22.6643 0.80761Q22.7139 0.881837 22.756 0.960568Q22.7981 1.0393 22.8322 1.12178Q22.8664 1.20425 22.8923 1.28968Q22.9182 1.37511 22.9356 1.46267Q22.9531 1.55022 22.9618 1.63907Q22.9706 1.72791 22.9706 1.81718L22.9706 5.14359Q22.9706 5.23287 22.9618 5.32171Q22.9531 5.41055 22.9356 5.49811Q22.9182 5.58567 22.8923 5.67109Q22.8664 5.75652 22.8322 5.839Q22.7981 5.92148 22.756 6.00021Q22.7139 6.07894 22.6643 6.15317Q22.6147 6.22739 22.5581 6.2964Q22.5014 6.36541 22.4383 6.42854Q22.3752 6.49166 22.3062 6.5483Q22.2372 6.60493 22.163 6.65453Q22.0887 6.70412 22.01 6.74621Q21.9313 6.78829 21.8488 6.82245Q21.7663 6.85662 21.6809 6.88253Q21.5955 6.90844 21.5079 6.92586Q21.4203 6.94328 21.3315 6.95203Q21.2427 6.96078 21.1534 6.96078L1.81718 6.96078Q1.72791 6.96078 1.63907 6.95203Q1.55022 6.94328 1.46267 6.92586Q1.37511 6.90844 1.28968 6.88253Q1.20425 6.85662 1.12178 6.82245Q1.0393 6.78829 0.960568 6.74621Q0.881837 6.70412 0.80761 6.65453Q0.733382 6.60493 0.664374 6.5483Q0.595365 6.49166 0.53224 6.42854Q0.469115 6.36541 0.412481 6.2964Q0.355847 6.22739 0.30625 6.15317Q0.256653 6.07894 0.214571 6.00021Q0.172488 5.92148 0.138325 5.839Q0.104162 5.75652 0.0782472 5.67109Q0.0523328 5.58567 0.0349166 5.49811Q0.0175005 5.41055 0.00875023 5.32171Q0 5.23287 0 5.14359L0 1.81718Q0 1.72791 0.00875023 1.63907Q0.0175005 1.55022 0.0349166 1.46267Q0.0523328 1.37511 0.0782472 1.28968Q0.104162 1.20425 0.138325 1.12178Q0.172488 1.0393 0.214571 0.960568Q0.256653 0.881837 0.30625 0.80761Q0.355847 0.733382 0.412481 0.664374Q0.469115 0.595365 0.53224 0.53224Q0.595365 0.469115 0.664374 0.412481Q0.733382 0.355847 0.80761 0.30625Q0.881837 0.256653 0.960568 0.214571Q1.0393 0.172488 1.12178 0.138325Q1.20425 0.104162 1.28968 0.0782472Q1.37511 0.0523328 1.46267 0.0349166Q1.55022 0.0175005 1.63907 0.00875023Q1.72791 0 1.81718 0L1.81718 0Z" transform="translate(0 8.004893)" id="Rectangle-2" fill="#FFFFFF" fill-rule="evenodd" stroke="none" />
    <path d="M1.81718 0L21.1534 0Q21.2427 0 21.3315 0.00875023Q21.4203 0.0175005 21.5079 0.0349166Q21.5955 0.0523328 21.6809 0.0782472Q21.7663 0.104162 21.8488 0.138325Q21.9313 0.172488 22.01 0.214571Q22.0887 0.256653 22.163 0.30625Q22.2372 0.355847 22.3062 0.412481Q22.3752 0.469115 22.4383 0.53224Q22.5014 0.595365 22.5581 0.664374Q22.6147 0.733382 22.6643 0.80761Q22.7139 0.881837 22.756 0.960568Q22.7981 1.0393 22.8322 1.12178Q22.8664 1.20425 22.8923 1.28968Q22.9182 1.37511 22.9356 1.46267Q22.9531 1.55022 22.9618 1.63907Q22.9706 1.72791 22.9706 1.81718L22.9706 5.14359Q22.9706 5.23287 22.9618 5.32171Q22.9531 5.41055 22.9356 5.49811Q22.9182 5.58567 22.8923 5.67109Q22.8664 5.75652 22.8322 5.839Q22.7981 5.92148 22.756 6.00021Q22.7139 6.07894 22.6643 6.15317Q22.6147 6.22739 22.5581 6.2964Q22.5014 6.36541 22.4383 6.42854Q22.3752 6.49166 22.3062 6.5483Q22.2372 6.60493 22.163 6.65453Q22.0887 6.70412 22.01 6.74621Q21.9313 6.78829 21.8488 6.82245Q21.7663 6.85662 21.6809 6.88253Q21.5955 6.90844 21.5079 6.92586Q21.4203 6.94328 21.3315 6.95203Q21.2427 6.96078 21.1534 6.96078L1.81718 6.96078Q1.72791 6.96078 1.63907 6.95203Q1.55022 6.94328 1.46267 6.92586Q1.37511 6.90844 1.28968 6.88253Q1.20425 6.85662 1.12178 6.82245Q1.0393 6.78829 0.960568 6.74621Q0.881837 6.70412 0.80761 6.65453Q0.733382 6.60493 0.664374 6.5483Q0.595365 6.49166 0.53224 6.42854Q0.469115 6.36541 0.412481 6.2964Q0.355847 6.22739 0.30625 6.15317Q0.256653 6.07894 0.214571 6.00021Q0.172488 5.92148 0.138325 5.839Q0.104162 5.75652 0.0782472 5.67109Q0.0523328 5.58567 0.0349166 5.49811Q0.0175005 5.41055 0.00875023 5.32171Q0 5.23287 0 5.14359L0 1.81718Q0 1.72791 0.00875023 1.63907Q0.0175005 1.55022 0.0349166 1.46267Q0.0523328 1.37511 0.0782472 1.28968Q0.104162 1.20425 0.138325 1.12178Q0.172488 1.0393 0.214571 0.960568Q0.256653 0.881837 0.30625 0.80761Q0.355847 0.733382 0.412481 0.664374Q0.469115 0.595365 0.53224 0.53224Q0.595365 0.469115 0.664374 0.412481Q0.733382 0.355847 0.80761 0.30625Q0.881837 0.256653 0.960568 0.214571Q1.0393 0.172488 1.12178 0.138325Q1.20425 0.104162 1.28968 0.0782472Q1.37511 0.0523328 1.46267 0.0349166Q1.55022 0.0175005 1.63907 0.00875023Q1.72791 0 1.81718 0L1.81718 0Z" transform="matrix(1.1924881E-08 1 -1 1.1924881E-08 14.96567 9.536743E-07)" id="Rectangle-2-Copy" fill="#FFFFFF" fill-rule="evenodd" stroke="none" />
  </g>
</svg>