<?xml version="1.0" encoding="UTF-8"?>
<svg width="16px" height="18px" viewBox="0 0 16 18" version="1.1" xmlns="http://www.w3.org/2000/svg" xmlns:xlink="http://www.w3.org/1999/xlink">
    <!-- Generator: Sketch 48.1 (47250) - http://www.bohemiancoding.com/sketch -->
    <title>Group</title>
    <desc>Created with Sketch.</desc>
    <defs></defs>
    <g id="StaFi-rDOT-Copy-3" stroke="none" stroke-width="1" fill="none" fill-rule="evenodd" transform="translate(-652.000000, -338.000000)">
        <g id="Group" transform="translate(660.000000, 347.000000) rotate(-90.000000) translate(-660.000000, -347.000000) translate(651.000000, 339.000000)" fill="#FFFFFF">
            <path d="M3.75235369,9.46594634 L8.72517442,14.4387671 C9.07984942,14.7934421 9.07984942,15.3684839 8.72517442,15.7231588 C8.37049943,16.0778338 7.79545765,16.0778338 7.44078266,15.7231588 L0.785298045,9.06767423 C0.679915089,8.96229128 0.605844088,8.83745357 0.563085042,8.70472211 C0.322249848,8.35123269 0.358606896,7.86545823 0.672156184,7.55190894 L7.32764079,0.896424329 C7.68231579,0.541749336 8.25735757,0.541749336 8.61203256,0.896424329 C8.96670755,1.25109932 8.96670755,1.8261411 8.61203256,2.1808161 L3.90599052,6.88685814 L16.3473875,6.88685814 C17.0595831,6.88685814 17.6369316,7.4642067 17.6369316,8.17640224 C17.6369316,8.88859778 17.0595831,9.46594634 16.3473875,9.46594634 L3.75235369,9.46594634 Z" id="Combined-Shape"></path>
        </g>
    </g>
</svg>