<?xml version="1.0" encoding="UTF-8"?>
<svg width="79px" height="18px" viewBox="0 0 79 18" version="1.1" xmlns="http://www.w3.org/2000/svg" xmlns:xlink="http://www.w3.org/1999/xlink">
    <!-- Generator: Sketch 48.1 (47250) - http://www.bohemiancoding.com/sketch -->
    <title>Group 20</title>
    <desc>Created with Sketch.</desc>
    <defs></defs>
    <g id="Stafi-Product-1-Copy-8" stroke="none" stroke-width="1" fill="none" fill-rule="evenodd" transform="translate(-40.000000, -27.000000)">
        <g id="Group-20" transform="translate(40.000000, 20.000000)">
            <path d="M12.8027323,18.7070064 C12.2167214,18.6738551 11.560255,18.527472 10.8333333,18.2678571 C10.8094942,18.252532 10.7855323,18.2374041 10.7614477,18.2224735 L12.5531915,8 L15,8.1171875 L12.8027323,18.7070064 Z M12.4378632,20.4655078 L11.9119847,23 L9.51213431,23 L8.44926014,19.6393063 C9.07144899,19.6823771 9.66672181,19.7687059 10.2350786,19.8982925 L10.5925864,21.008728 L10.6130988,19.9919227 C10.6869851,20.0117092 10.7603967,20.0322588 10.8333333,20.0535714 C11.3681766,20.2684638 11.9030199,20.4057759 12.4378632,20.4655078 Z M7.7469182,17.3786663 L7.36161902,15.9733276 L6.98586157,17.3912249 C6.43210927,17.4268748 5.91491172,17.5212735 5.43426893,17.6744209 L6.79022606,13.0894165 L8.06806848,13.0894165 L9.52033452,17.6601645 C8.97568874,17.4916109 8.38454997,17.3977781 7.7469182,17.3786663 Z M6.31977013,19.6573902 L5.31499335,23 L2.99825465,23 L2.49705163,20.4925261 C3.10571325,20.459 3.6622516,20.3126818 4.16666667,20.0535714 C4.25599293,20.0274696 4.34603138,20.0025124 4.43678202,19.9786997 L4.49426529,21.008728 L4.8034722,19.8895785 C5.28932029,19.7807072 5.79475293,19.7033111 6.31977013,19.6573902 Z M2.14146844,18.7135752 L0,8 L2.12765957,8 L4.32801869,18.1682532 C4.27362397,18.200473 4.21983996,18.2336743 4.16666667,18.2678571 C3.54234357,18.5654762 2.89419542,18.7142857 2.22222222,18.7142857 C2.19541375,18.7142857 2.16849582,18.7140489 2.14146844,18.7135752 Z" id="Combined-Shape" fill="#00F3AB"></path>
            <g id="Group-3" transform="translate(25.000000, 0.000000)" fill="#FFFFFF" font-family="Helvetica" font-size="23.1111111" font-weight="normal" letter-spacing="0.247618988">
                <text id="StaFi">
                    <tspan x="0.555555556" y="23.5555556">StaFi</tspan>
                </text>
            </g>
        </g>
    </g>
</svg>