<?xml version="1.0" encoding="utf-8"?>
<svg width="37px" height="37px" viewBox="0 0 37 37" version="1.1" xmlns:xlink="http://www.w3.org/1999/xlink" xmlns="http://www.w3.org/2000/svg">
  <g id="Group-15-Copy" transform="translate(0.25 0.25)">
    <g id="Group-2-Copy-53">
      <path d="M17.8651 36C27.7318 36 35.7303 27.9411 35.7303 18C35.7303 8.05887 27.7318 0 17.8651 0C7.9985 0 0 8.05887 0 18C0 27.9411 7.9985 36 17.8651 36Z" id="Oval-5-Copy-2" fill="#FFFFFF" fill-rule="evenodd" stroke="none" />
      <path d="M6 12.8848L6 7.24219C6.03516 5.41405 6.94921 4.5 8.74219 4.5L11.3789 4.5L11.3789 5.71289L9.32227 5.71289C8.37304 5.71289 7.88086 6.1875 7.8457 7.13672L7.8457 12.8848L6 12.8848Z" id="r" fill="#00F3AB" fill-rule="evenodd" stroke="none" />
    </g>
    <path d="M9.22781 11L26.7722 11Q26.8175 11 26.8594 11.0173Q26.9012 11.0347 26.9333 11.0667Q26.9653 11.0988 26.9827 11.1406Q27 11.1825 27 11.2278L27 17.933Q27 17.9783 26.9827 18.0202Q26.9653 18.062 26.9333 18.0941Q26.9012 18.1261 26.8594 18.1435Q26.8175 18.1608 26.7722 18.1608L21.9211 18.1608Q21.8681 18.1608 21.8205 18.1842L21.7911 18.1987Q21.7149 18.2362 21.6829 18.3149L21.6551 18.3834Q21.6383 18.4246 21.6383 18.4692L21.6383 25.7722Q21.6383 25.8175 21.621 25.8594Q21.6036 25.9012 21.5716 25.9333Q21.5395 25.9653 21.4977 25.9827Q21.4558 26 21.4105 26L14.6278 26Q14.5825 26 14.5406 25.9827Q14.4988 25.9653 14.4667 25.9333Q14.4347 25.9012 14.4173 25.8594Q14.4 25.8175 14.4 25.7722L14.4 18.4475Q14.4 18.4246 14.3954 18.4022L14.3786 18.3194Q14.3706 18.28 14.3461 18.2482Q14.3216 18.2164 14.2855 18.1987L14.2561 18.1842Q14.2085 18.1608 14.1555 18.1608L9.22781 18.1608Q9.1825 18.1608 9.14063 18.1435Q9.09877 18.1261 9.06672 18.0941Q9.03468 18.062 9.01734 18.0202Q9 17.9783 9 17.933L9 11.2278Q9 11.1825 9.01734 11.1406Q9.03468 11.0988 9.06672 11.0667Q9.09877 11.0347 9.14063 11.0173Q9.1825 11 9.22781 11Z" id="Rectangle-15" fill="#23292F" fill-rule="evenodd" stroke="none" />
    <path d="M21.4105 26L14.7451 26Q14.7377 26 14.7305 25.9988Q14.7232 25.9976 14.7163 25.9952Q14.7093 25.9928 14.7028 25.9893Q14.6964 25.9859 14.6905 25.9814Q14.6847 25.9769 14.6797 25.9715Q14.6748 25.9661 14.6707 25.9599Q14.6667 25.9538 14.6637 25.9471Q14.6607 25.9403 14.6589 25.9332Q14.657 25.9261 14.6564 25.9188Q14.6558 25.9115 14.6563 25.9041Q14.6569 25.8968 14.6587 25.8897Q14.6604 25.8825 14.6633 25.8758Q14.6662 25.869 14.6702 25.8629Q14.6742 25.8567 14.6791 25.8512Q14.6841 25.8458 14.6898 25.8412Q14.6956 25.8367 14.702 25.8331L21.3003 22.1868Q21.3263 22.1724 21.3551 22.1652Q21.384 22.158 21.4137 22.1584Q21.4434 22.1588 21.472 22.1668Q21.5006 22.1749 21.5262 22.19Q21.5518 22.2051 21.5727 22.2262Q21.5936 22.2474 21.6083 22.2732Q21.623 22.299 21.6307 22.3277Q21.6383 22.3565 21.6383 22.3862L21.6383 25.7722Q21.6383 25.8175 21.621 25.8594Q21.6036 25.9012 21.5716 25.9333Q21.5395 25.9653 21.4977 25.9827Q21.4558 26 21.4105 26Z" id="Rectangle-15-Copy" fill="#FFD061" fill-opacity="0.2" fill-rule="evenodd" stroke="none" />
    <path d="M9 11L27 11L10.5 18L9 18L9 11Z" id="Rectangle-16-Copy" fill="#FFD061" fill-opacity="0.2" fill-rule="evenodd" stroke="none" />
  </g>
</svg>