<?xml version="1.0" encoding="utf-8"?>
<svg width="37px" height="37px" viewBox="0 0 37 37" version="1.1" xmlns:xlink="http://www.w3.org/1999/xlink" xmlns="http://www.w3.org/2000/svg">
  <g id="Group-5-Copy-3" transform="translate(0.375 0.375)">
    <path d="M17.8651 36C27.7318 36 35.7303 27.9411 35.7303 18C35.7303 8.05887 27.7318 0 17.8651 0C7.9985 0 0 8.05887 0 18C0 27.9411 7.9985 36 17.8651 36Z" id="Oval-5-Copy" fill="#FFFFFF" fill-rule="evenodd" stroke="none" />
    <g id="Group-17" transform="translate(3 15)">
      <path d="M0 3.68356C0 3.68356 7.12565 0.533806 11.3597 0.229883C13.2755 0.0923683 17.1378 -0.353138 22.1773 0.561435C24.563 0.994407 30 3.04808 30 3.04808L30 10.8672C30 10.8672 23.9587 6.66753 15 6.66753C6.04131 6.66753 0 12 0 12L0 3.68356Z" id="Rectangle-6" fill="#CFCFCF" fill-rule="evenodd" stroke="none" />
      <path d="M9.12737 7.4218C8.63635 7.04349 7.95544 6.42718 7.81649 5.8309C7.70185 5.33897 7.26108 2.97991 10.3704 1.22292C11.0767 0.823758 11.9415 0.424601 12.6124 0.131988C14.4555 -0.00511327 17.1976 -0.141434 20.5679 0.309883L19.5893 7.02846C18.1658 6.79906 16.6257 6.65868 14.988 6.65868C12.8548 6.65868 10.8872 6.9611 9.12737 7.4218Z" id="Combined-Shape" fill="#00CD90" fill-rule="evenodd" stroke="none" />
      <path d="M15.2493 6.4C16.9016 6.4 18.241 4.96731 18.241 3.2C18.241 1.43269 16.9016 0 15.2493 0C13.597 0 12.2576 1.43269 12.2576 3.2C12.2576 4.96731 13.597 6.4 15.2493 6.4Z" id="Oval" fill="#C54151" fill-rule="evenodd" stroke="none" />
      <path d="M15.9349 0.0888889C14.6123 0.424377 13.6288 1.68998 13.6288 3.2C13.6288 4.71002 14.6123 5.97562 15.9349 6.31111C17.2575 5.97562 18.241 4.71002 18.241 3.2C18.241 1.68998 17.2575 0.424377 15.9349 0.0888889Z" id="Combined-Shape" fill="#E45264" fill-rule="evenodd" stroke="none" />
      <g id="Group-2-Copy-3" transform="translate(14.085873 1.9111111)">
        <path d="M2.16784 1.94334L2.53463 0.0215278L2.12118 0L1.8213 1.86003C1.8274 1.86378 1.83056 1.8659 1.83056 1.8659C1.83056 1.8659 2.01085 1.9331 2.16784 1.94334ZM2.10871 2.25319C1.95847 2.23446 1.83056 2.18083 1.83056 2.18083C1.83056 2.18083 1.81756 2.17686 1.79395 2.17071L1.78988 2.38975L1.71978 2.15303C1.64577 2.13685 1.54 2.11781 1.419 2.10824L1.60731 2.75556L2.01283 2.75556L2.10871 2.25319ZM1.30557 1.70915L1.24393 1.46473L1.1837 1.71182C1.08375 1.71986 0.994751 1.74132 0.921374 1.76576L1.14738 0.934945L1.3633 0.934945L1.60536 1.76317C1.52243 1.73621 1.42036 1.7134 1.30557 1.70915ZM0.819855 2.15194C0.885263 2.1378 0.974278 2.12172 1.07611 2.11174L0.898101 2.75556L0.50663 2.75556L0.415211 2.25833C0.578136 2.24834 0.704063 2.18083 0.704063 2.18083C0.704063 2.18083 0.719793 2.17603 0.748077 2.1688L0.759419 2.38975L0.819855 2.15194ZM0.728014 1.8513L0.359521 0L0 0L0.357484 1.94435C0.363525 1.94454 0.369534 1.94463 0.3755 1.94463C0.54582 1.94463 0.704063 1.8659 0.704063 1.8659C0.704063 1.8659 0.712358 1.86034 0.728014 1.8513Z" id="Combined-Shape-Copy" fill="#FFFFFF" fill-rule="evenodd" stroke="none" />
      </g>
      <path d="M20.5799 0.311111C21.0931 0.37981 21.6209 0.462059 22.1622 0.559908C24.5526 0.991988 30 3.04143 30 3.04143L30 10.8444C30 10.8444 25.9137 8.0151 19.4772 7.00583L20.5799 0.311111Z" id="Combined-Shape" fill="#FFD061" fill-rule="evenodd" stroke="none" />
    </g>
  </g>
</svg>