<?xml version="1.0" encoding="utf-8"?>
<svg width="71px" height="121px" viewBox="0 0 71 121" version="1.1" xmlns:xlink="http://www.w3.org/1999/xlink" xmlns="http://www.w3.org/2000/svg">
  <g id="Group-2-Copy-59">
    <g id="Group-25" transform="translate(0.15275142 0.08661133)">
      <path d="M34.0963 0L68.1926 61.4819L34.0963 83.9047L0 62.2052L34.0963 0Z" transform="translate(1 0)" id="Rectangle-14" fill="#254846" fill-rule="evenodd" stroke="none" />
      <path d="M35.4602 0L35.4602 47.0156L35.4602 83.9047L0 62.2052L35.4602 0Z" id="Rectangle-14-Copy" fill="#254846" fill-rule="evenodd" stroke="none" />
      <path d="M34.0963 0L68.1926 14.2097L34.0963 35.1859L0 14.8863L34.0963 0Z" transform="translate(1 48.718876)" id="Rectangle-18" fill="#1F5B52" fill-rule="evenodd" stroke="none" />
      <path d="M35.4602 0L35.4602 14.2097L35.4602 35.1859L0 14.8863L35.4602 0Z" transform="translate(0 47)" id="Rectangle-18-Copy" fill="#1F5B52" fill-rule="evenodd" stroke="none" />
      <path d="M0 0L34.0963 21.4273L68.1926 0L34.0963 51.4255L0 0Z" transform="translate(1 67.6651)" id="Rectangle-28" fill="#254846" fill-rule="evenodd" stroke="none" />
      <path d="M0 0L34.0963 21.4273L34.0963 51.4255L0 0Z" transform="translate(1 67.6651)" id="Rectangle-28-Copy" fill="#254846" fill-rule="evenodd" stroke="none" />
    </g>
  </g>
</svg>