<?xml version="1.0" encoding="utf-8"?>
<svg width="88px" height="89px" viewBox="0 0 88 89" version="1.1" xmlns:xlink="http://www.w3.org/1999/xlink" xmlns="http://www.w3.org/2000/svg">
  <g id="Group-7-Copy-5">
    <path d="M75.2656 62.7666L88 0.695313L73.6454 0L63.2339 60.0761C63.4458 60.1972 63.5556 60.2657 63.5556 60.2657C63.5556 60.2657 69.8149 62.4362 75.2656 62.7666ZM73.2124 72.7745C67.9963 72.1694 63.5556 70.4371 63.5556 70.4371C63.5556 70.4371 63.1042 70.3091 62.2843 70.1104L62.1432 77.1851L59.7092 69.5393C57.1396 69.0168 53.4673 68.4019 49.2666 68.0928L55.8045 89L69.8836 89L73.2124 72.7745ZM45.3283 55.2029L43.1882 47.3084L41.097 55.289C37.6268 55.5488 34.5369 56.2419 31.9893 57.0313L39.836 30.1972L47.3327 30.1972L55.7365 56.9474C52.8576 56.0767 49.3136 55.3401 45.3283 55.2029ZM28.4647 69.5042C30.7356 69.0476 33.8261 68.5283 37.3617 68.2059L31.1813 89L17.5898 89L14.4158 72.9403C20.0724 72.6177 24.4444 70.4371 24.4444 70.4371C24.4444 70.4371 24.9906 70.2822 25.9726 70.0488L26.3664 77.1851L28.4647 69.5042ZM25.276 59.794L12.4823 0L0 0L12.4115 62.7994C12.6213 62.8055 12.8299 62.8086 13.037 62.8086C18.9504 62.8086 24.4444 60.2657 24.4444 60.2657C24.4444 60.2657 24.7325 60.0859 25.276 59.794Z" id="Combined-Shape-Copy" fill="#4B4F54" fill-rule="evenodd" stroke="none" />
    <path d="M69.21 61.5436C74.067 50.0521 88 0.695312 88 0.695312L73.6454 0L63.2806 59.8062C63.4619 59.9106 63.5556 59.969 63.5556 59.969C63.5556 59.969 66.0238 60.8249 69.21 61.5436ZM19.9006 61.5402L0 0L12.4823 0L25.2191 59.528C24.7124 59.8018 24.4444 59.969 24.4444 59.969C24.4444 59.969 22.6011 60.8222 19.9006 61.5402ZM53.6068 56.0669C48.1121 51.7488 43.1882 47.3084 43.1882 47.3084L34.5995 56.0167C33.7131 56.2301 32.8733 56.4629 32.0847 56.7052L39.836 30.1972L47.3327 30.1972L55.6336 56.6197C54.9899 56.4269 54.3135 56.2409 53.6068 56.0669Z" id="Combined-Shape-Copy-2" fill="#575B60" fill-rule="evenodd" stroke="none" />
  </g>
</svg>