<?xml version="1.0" encoding="UTF-8"?>
<svg width="36px" height="36px" viewBox="0 0 36 36" version="1.1" xmlns="http://www.w3.org/2000/svg" xmlns:xlink="http://www.w3.org/1999/xlink">
    <!-- Generator: Sketch 61.2 (89653) - https://sketch.com -->
    <title>Group 5 Copy 2</title>
    <desc>Created with Sketch.</desc>
    <g id="Page-1" stroke="none" stroke-width="1" fill="none" fill-rule="evenodd">
        <g id="Stafi-Product-1-Copy-33" transform="translate(-42.000000, -113.000000)">
            <g id="Group-5-Copy-2" transform="translate(42.000000, 113.000000)">
                <ellipse id="Oval-5-Copy" fill="#FFFFFF" cx="17.8651479" cy="18" rx="17.8651479" ry="18"></ellipse>
                <g id="Group-17" transform="translate(3.000000, 15.000000)">
                    <path d="M0,3.68355555 C4.75043029,1.5837224 8.53700516,0.432498087 11.3597246,0.229882608 C13.2754926,0.092368324 17.1378043,-0.353138345 22.1772806,0.56143521 C23.7677865,0.850083198 26.3753596,1.6789647 30,3.04807973 L30,10.8671953 C25.9724613,8.06741774 20.9724613,6.66752897 15,6.66752897 C9.02753873,6.66752897 4.02753873,8.44501932 0,12 L0,3.68355555 Z" id="Rectangle-6" fill="#CFCFCF"></path>
                    <path d="M20.5669509,0.309760156 L19.5986748,6.96295591 C18.1322796,6.7601052 16.5953902,6.65867985 14.9880066,6.65867985 C12.8647117,6.65867985 10.8644253,6.88339989 8.98714738,7.33283996 C8.32066678,6.82275134 7.93086897,6.32173658 7.81648644,5.83089843 C7.70184951,5.3389686 7.26108143,2.97991463 10.3703731,1.22291521 C11.012806,0.859889042 11.7534876,0.496862875 12.5924177,0.133836707 C14.4368841,-0.00417631562 17.1857551,-0.142927986 20.5669509,0.309760156 Z" id="Combined-Shape" fill="#00CD90"></path>
                    <ellipse id="Oval" fill="#C54151" cx="15.2493075" cy="3.2" rx="2.99168975" ry="3.2"></ellipse>
                    <path d="M15.9358465,0.0891283837 C17.257961,0.424979029 18.2409972,1.69033673 18.2409972,3.2 C18.2409972,4.70966327 17.257961,5.97502097 15.9358465,6.31087162 C14.6123441,5.97566311 13.6288089,4.71004634 13.6288089,3.2 C13.6288089,1.73821998 14.5504745,0.505493627 15.8091996,0.1238692 Z" id="Combined-Shape" fill="#E45264"></path>
                    <g id="Group-2-Copy-3" transform="translate(14.085873, 1.911111)" fill="#FFFFFF">
                        <path d="M1.41939489,2.10718295 C1.5651533,2.11713374 1.70220942,2.14168122 1.83056325,2.1808254 L1.719,2.153 L1.78988303,2.38975152 L1.793,2.171 L1.83056325,2.1808254 C1.91400773,2.21581658 1.99745221,2.23914403 2.08089669,2.25080776 L2.108,2.252 L2.01282844,2.75555556 L1.60731355,2.75555556 Z M1.076,2.11 L0.89810137,2.75555556 L0.506630288,2.75555556 L0.415450076,2.25858358 C0.520835548,2.2533997 0.617039785,2.22748031 0.704062789,2.1808254 C0.71832378,2.17647621 0.732692199,2.17230722 0.747168045,2.16831841 L0.759418789,2.38975152 L0.818083467,2.15041655 C0.958223882,2.11820234 1.10796707,2.10209524 1.26731302,2.10209524 L1.076,2.11 Z M0.359521424,0 L0.728,1.851 L0.704062789,1.86590476 C0.633732763,1.90089594 0.561613475,1.9242234 0.487704926,1.93588713 L0.375500154,1.94463492 C0.369677245,1.94463492 0.363823778,1.9445659 0.357939751,1.94442787 L0,0 L0.359521424,0 Z M2.1211764,0 L2.53462604,0.0215277778 L2.16832173,1.94362884 C2.06804403,1.93836627 1.95545787,1.91245825 1.83056325,1.86590476 C1.82737022,1.86376244 1.82416416,1.86164199 1.82094507,1.85954339 L2.1211764,0 Z M1.36330243,0.934944661 L1.60428609,1.75732141 C1.50167493,1.72473677 1.38935057,1.70844444 1.26731302,1.70844444 L1.305,1.71 L1.24393008,1.46472982 L1.18268247,1.71115694 C1.09020048,1.71720073 1.00373976,1.73334422 0.923300299,1.75958742 L1.14737892,0.934944661 L1.36330243,0.934944661 Z" id="Combined-Shape-Copy"></path>
                    </g>
                    <path d="M22.1622276,0.559907939 C23.7557941,0.847961489 26.3683849,1.67513601 30,3.04143149 L30,10.8444444 C27.0253423,8.78480786 23.5212261,7.4843132 19.4876514,6.94296047 L20.5794192,0.311047988 C21.0928237,0.379760154 21.6207434,0.462029095 22.1622276,0.559907939 Z" id="Combined-Shape" fill="#FFD061"></path>
                </g>
            </g>
        </g>
    </g>
</svg>