<svg height="37" viewBox="0 0 37 37" width="37" xmlns="http://www.w3.org/2000/svg"><g fill-rule="evenodd" transform="translate(.25 .25)"><path d="m17.8651 36c9.8667 0 17.8652-8.0589 17.8652-18 0-9.94113-7.9985-18-17.8652-18-9.8666 0-17.8651 8.05887-17.8651 18 0 9.9411 7.9985 18 17.8651 18z" fill="#00f3ab"/><g transform="translate(10 10)"><path d="m5.47699 13.7143c.97163 0 8.64521.6099 8.89531-.7273.1443-.7985.2164-1.5392.2164-2.2222 0-2.62629-.5218-4.66571-1.5656-6.11834-1.0438-1.45262-2.8644-2.79942-5.01444-2.79942h-5.2381v9.86726s.99215 1.2727 1.46834 1.619c.47619.3464 1.23809.381 1.23809.381zm-3.62995-11.86726 8.10614-1.84704h4.82312c.9236 0 0 7.24385 0 10.1587 0 2.2511.087 4.0243-1.7532 4.6176-1.3345.4303-3.83318 1.1285-7.54611 1.1285-.57143 0-2.19047 0-2.19047 0l-3.28652-1.1285v-1.847z" fill="#ffd061" transform="translate(.237294)"/><g fill="#23292f"><path d="m0 15.971v-10.74779c.0669646-3.48216 1.80802-5.22321 5.22321-5.22321h5.02229v2.31027h-3.91737c-1.80805 0-2.74554.90401-2.8125 2.71205v10.94868z"/><path d="m0 15.971v-10.74779c.0669646-3.48216 1.80802-5.22321 5.22321-5.22321h5.02229v2.31027h-3.91737c-1.80805 0-2.74554.90401-2.8125 2.71205v10.94868z" transform="matrix(-1 .00000009 -.00000009 -1 15.959823 15.970983)"/></g></g><path d="m0 8.38477v-5.64258c.0351564-1.828137.94921-2.74219 2.74219-2.74219h2.63672v1.21289h-2.05664c-.94923 0-1.44141.47461-1.47657 1.42383v5.74805z" fill="#fff" transform="translate(6 5)"/></g></svg>