<?xml version="1.0" encoding="utf-8"?>
<svg width="37px" height="37px" viewBox="0 0 37 37" version="1.1" xmlns:xlink="http://www.w3.org/1999/xlink" xmlns="http://www.w3.org/2000/svg">
  <g id="Group-3" transform="translate(0.5 0.5)">
    <path d="M18 36C27.9411 36 36 27.9411 36 18C36 13.9582 27.6 9.6 27.6 9.6C27.6 9.6 23.8993 0 18 0C8.05887 0 0 8.05887 0 18C0 27.9411 8.05887 36 18 36Z" id="Oval-2" fill="#00F3AB" fill-rule="evenodd" stroke="none" />
    <g id="Group-2" transform="matrix(-0.70710677 -0.70710677 0.70710677 -0.70710677 16.525127 30.460155)">
      <path d="M0 0L4 0L4 12.35L0 12.35L0 0Z" transform="translate(4 0)" id="Rectangle-5" fill="#23292F" fill-rule="evenodd" stroke="none" />
      <path d="M0 0L12 0L6 7.6L0 0Z" transform="translate(0 10.45)" id="Triangle-Copy" fill="#23292F" fill-rule="evenodd" stroke="none" />
    </g>
  </g>
</svg>