<?xml version="1.0" encoding="utf-8"?>
<svg width="31px" height="31px" viewBox="0 0 31 31" version="1.1" xmlns:xlink="http://www.w3.org/1999/xlink" xmlns="http://www.w3.org/2000/svg">
  <g id="Group-7" transform="translate(0.27246094 0.27272797)">
    <path d="M15 30C23.2843 30 30 23.2843 30 15C30 6.71573 23.2843 0 15 0C6.71573 0 0 6.71573 0 15C0 23.2843 6.71573 30 15 30Z" id="Oval-3" fill="#1A1F24" fill-rule="evenodd" stroke="none" />
    <g id="Group" transform="matrix(-1 8.742278E-08 -8.742278E-08 -1 25.09091 23.454544)">
      <path d="M-0.105646 7.29014L8.38105 -1.19656Q8.41891 -1.23442 8.4603 -1.26838Q8.50169 -1.30235 8.54621 -1.3321Q8.59073 -1.36185 8.63795 -1.38709Q8.68517 -1.41233 8.73464 -1.43282Q8.78411 -1.45331 8.83535 -1.46885Q8.88659 -1.48439 8.9391 -1.49484Q8.99161 -1.50529 9.0449 -1.51053Q9.09819 -1.51578 9.15173 -1.51578Q9.20527 -1.51578 9.25856 -1.51053Q9.31185 -1.50529 9.36436 -1.49484Q9.41688 -1.48439 9.46811 -1.46885Q9.51935 -1.45331 9.56882 -1.43282Q9.61829 -1.41233 9.66551 -1.38709Q9.71273 -1.36185 9.75725 -1.3321Q9.80177 -1.30235 9.84316 -1.26838Q9.88455 -1.23442 9.92241 -1.19656L9.92383 -1.19514Q10.0771 -1.04184 10.1601 -0.841549Q10.2431 -0.641255 10.2431 -0.424459Q10.2431 -0.207662 10.1601 -0.00736863Q10.0771 0.192925 9.92383 0.346223L3.44484 6.82521L17.3914 6.82521Q17.5299 6.82521 17.6657 6.85222Q17.8015 6.87923 17.9294 6.93221Q18.0573 6.9852 18.1724 7.06212Q18.2876 7.13904 18.3855 7.23695Q18.4834 7.33485 18.5603 7.44997Q18.6372 7.5651 18.6902 7.69301Q18.7432 7.82093 18.7702 7.95673Q18.7972 8.09252 18.7972 8.23098L18.7972 8.23298Q18.7972 8.30204 18.7904 8.37077Q18.7837 8.4395 18.7702 8.50723Q18.7567 8.57497 18.7367 8.64106Q18.7166 8.70714 18.6902 8.77095Q18.6638 8.83475 18.6312 8.89566Q18.5987 8.95656 18.5603 9.01399Q18.5219 9.07141 18.4781 9.12479Q18.4343 9.17818 18.3855 9.22701Q18.3366 9.27585 18.2833 9.31966Q18.2299 9.36347 18.1724 9.40184Q18.115 9.44021 18.0541 9.47276Q17.9932 9.50532 17.9294 9.53175Q17.8656 9.55818 17.7995 9.57822Q17.7334 9.59827 17.6657 9.61174Q17.598 9.62522 17.5292 9.63199Q17.4605 9.63876 17.3914 9.63876L3.54517 9.63876L9.92383 16.0174Q10.0771 16.1707 10.1601 16.371Q10.2431 16.5713 10.2431 16.7881Q10.2431 17.0049 10.1601 17.2052Q10.0771 17.4055 9.92383 17.5588L9.92241 17.5602Q9.88455 17.5981 9.84316 17.632Q9.80177 17.666 9.75725 17.6957Q9.71273 17.7255 9.66551 17.7507Q9.61829 17.776 9.56882 17.7965Q9.51935 17.8169 9.46811 17.8325Q9.41687 17.848 9.36436 17.8585Q9.31184 17.8689 9.25856 17.8742Q9.20527 17.8794 9.15173 17.8794Q9.09819 17.8794 9.0449 17.8742Q8.99161 17.8689 8.9391 17.8585Q8.88659 17.848 8.83535 17.8325Q8.78411 17.8169 8.73464 17.7965Q8.68517 17.776 8.63795 17.7507Q8.59073 17.7255 8.54621 17.6957Q8.50169 17.666 8.4603 17.632Q8.41891 17.5981 8.38105 17.5602L-0.105646 9.07349Q-0.192387 8.98675 -0.257677 8.8829Q-0.322966 8.77905 -0.363538 8.66328Q-0.404109 8.54751 -0.417931 8.42562Q-0.431754 8.30373 -0.418136 8.18182Q-0.431754 8.05991 -0.417932 7.93802Q-0.40411 7.81613 -0.363539 7.70036Q-0.322968 7.58459 -0.257678 7.48074Q-0.192388 7.37688 -0.105646 7.29014Z" transform="translate(0.44307265 0.14227428)" id="Combined-Shape" fill="#00F3AB" fill-rule="evenodd" stroke="none" />
    </g>
  </g>
</svg>