<?xml version="1.0" encoding="UTF-8"?>
<svg width="40px" height="24px" viewBox="0 0 40 24" version="1.1" xmlns="http://www.w3.org/2000/svg" xmlns:xlink="http://www.w3.org/1999/xlink">
    <!-- Generator: Sketch 48.1 (47250) - http://www.bohemiancoding.com/sketch -->
    <title>Path</title>
    <desc>Created with Sketch.</desc>
    <defs></defs>
    <g id="Page-1" stroke="none" stroke-width="1" fill="none" fill-rule="evenodd">
        <path d="M2.89449541,21.8655546 L2.89449541,22.2626607 C2.89449541,22.2626607 17.6238532,16.5316973 20.4908257,18.0118201 L18.7614679,18.5127154 C18.912844,18.5127154 21.7155963,18.6932181 21.7155963,18.6932181 C21.8485595,19.8460874 22.5000857,20.8795289 23.4908257,21.5090616 C25.1788991,22.605616 25.2110092,23.2012752 25.2110092,23.2012752 C25.2110092,23.2012752 24.3348624,23.5532556 24.3348624,24 C25.1495595,23.7705883 25.992064,23.6506695 26.8394495,23.643507 C27.603807,23.6703442 28.3618555,23.7900843 29.0963303,24 C29.0963303,24 29.0091743,23.548743 27.8302752,23.2012752 C26.6513761,22.8538073 25.5137615,21.6263884 24.940367,20.9449904 C24.2408351,20.0589492 24.0665987,18.876266 24.4816514,17.8313174 C24.8899083,16.8024515 26.3165138,16.2293551 29.2110092,14.7492323 C32.646789,13.0028679 33.4311927,11.6942227 33.912844,10.6879197 C34.3944954,9.68161665 35.1192661,7.66449804 35.5183486,6.71685842 C35.850157,5.83111303 36.4210708,5.05107024 37.1697248,4.46057362 C37.6788991,4.0770052 40,3.21510441 40,3.21510441 C40,3.21510441 38.2293578,1.73046901 37.6513761,1.28372462 C36.9289715,0.610669959 36.0153689,0.169953147 35.0321101,0.020205129 C33.8027523,-0.137734807 32.5550459,0.665502582 31.7110092,1.20249837 C30.8669725,1.73949415 29.233945,3.30986837 28.5733945,3.76112533 C27.912844,4.21238229 26.2201835,4.66363925 23.5275229,6.28365174 C20.8348624,7.90366423 10.146789,14.6138552 10.146789,14.6138552 L12.8990826,14.6409306 L0.54587156,20.9449904 L1.77981651,20.9449904 L0,22.2987613 C0.985761644,22.5207674 2.02044996,22.3659101 2.89449541,21.8655546 Z" id="Path" fill="#FFFFFF"></path>
    </g>
</svg>