<?xml version="1.0" encoding="utf-8"?>
<svg width="53px" height="27px" viewBox="0 0 53 27" version="1.1" xmlns:xlink="http://www.w3.org/1999/xlink" xmlns="http://www.w3.org/2000/svg">
  <defs>
    <path d="M0.40383 4.9725C0.806211 1.0725 2.51633 -2.27374e-13 2.51633 -2.27374e-13C2.51633 -2.27374e-13 4.32704 3.86535e-14 4.93061 7.3125C5.53419 14.625 4.81643 16.3365 4.32704 19.5975C3.83766 22.8585 2.51633 23.4 2.51633 23.4C2.51633 23.4 1.06321 23.3018 0.40383 17.55C-0.255547 11.7982 0.00144971 8.8725 0.40383 4.9725Z" transform="translate(10.322085 0.8666667)" id="path_1" />
    <path d="M0.40383 4.9725C0.806211 1.0725 2.51633 -2.27374e-13 2.51633 -2.27374e-13C2.51633 -2.27374e-13 4.32704 3.86535e-14 4.93061 7.3125C5.53419 14.625 4.81643 16.3365 4.32704 19.5975C3.83766 22.8585 2.51633 23.4 2.51633 23.4C2.51633 23.4 1.06321 23.3018 0.40383 17.55C-0.255547 11.7982 0.00144971 8.8725 0.40383 4.9725Z" transform="matrix(0.49999997 -0.86602545 0.86602545 0.49999997 1.4798479 8.951464)" id="path_2" />
    <path d="M0.40383 4.9725C0.806211 1.0725 2.51633 -2.27374e-13 2.51633 -2.27374e-13C2.51633 -2.27374e-13 4.32704 3.86535e-14 4.93061 7.3125C5.53419 14.625 4.81643 16.3365 4.32704 19.5975C3.83766 22.8585 2.51633 23.4 2.51633 23.4C2.51633 23.4 1.06321 23.3018 0.40383 17.55C-0.255547 11.7982 0.00144971 8.8725 0.40383 4.9725Z" transform="matrix(0.4999999 0.86602545 -0.86602545 0.4999999 21.744844 4.4818707)" id="path_3" />
    <path d="M3.03333 0.0895292L3.03333 3.82786C3.03333 3.82786 0 4.27692 0 1.93059C1.11744e-16 -0.415745 3.03333 0.0895292 3.03333 0.0895292Z" transform="translate(2.6 0)" id="path_4" />
    <path d="M3.03333 0.0895292L3.03333 3.82786C3.03333 3.82786 0 4.27692 0 1.93059C1.11744e-16 -0.415745 3.03333 0.0895292 3.03333 0.0895292Z" transform="matrix(-1 0 0 1 10.833334 0)" id="path_5" />
    <clipPath id="clip_1">
      <use xlink:href="#path_1" />
    </clipPath>
    <clipPath id="clip_2">
      <use xlink:href="#path_2" />
    </clipPath>
    <clipPath id="clip_3">
      <use xlink:href="#path_3" />
    </clipPath>
    <clipPath id="clip_4">
      <use xlink:href="#path_4" />
    </clipPath>
    <clipPath id="clip_5">
      <use xlink:href="#path_5" />
    </clipPath>
  </defs>
  <g id="Group-Copy-5" transform="translate(0.25 0.25)">
    <g id="Group-9-Copy-6">
      <path d="M12.9026 26C20.0285 26 25.8052 20.1797 25.8052 13C25.8052 5.8203 20.0285 0 12.9026 0C5.77669 0 0 5.8203 0 13C0 20.1797 5.77669 26 12.9026 26Z" id="Oval-5" fill="#FFFFFF" fill-rule="evenodd" stroke="#525252" stroke-width="0.5" />
      <path d="M7.74156 15.6C12.0171 15.6 15.4831 12.1078 15.4831 7.8C15.4831 3.49218 12.0171 0 7.74156 0C3.46602 0 0 3.49218 0 7.8C0 12.1078 3.46602 15.6 7.74156 15.6Z" transform="translate(5.1610427 5.2)" id="Oval-6" fill="none" fill-rule="evenodd" stroke="#FFFFFF" stroke-width="0.5" />
      <g id="Rectangle">
        <g clip-path="url(#clip_1)">
          <use xlink:href="#path_1" fill="none" stroke="#23292F" stroke-width="1" />
        </g>
      </g>
      <g id="Rectangle-Copy">
        <g clip-path="url(#clip_2)">
          <use xlink:href="#path_2" fill="none" stroke="#23292F" stroke-width="1" />
        </g>
      </g>
      <g id="Rectangle-Copy-2">
        <g clip-path="url(#clip_3)">
          <use xlink:href="#path_3" fill="none" stroke="#23292F" stroke-width="1" />
        </g>
      </g>
      <path d="M1.29026 2.6C2.00285 2.6 2.58052 2.01797 2.58052 1.3C2.58052 0.58203 2.00285 0 1.29026 0C0.577669 0 0 0.58203 0 1.3C0 2.01797 0.577669 2.6 1.29026 2.6Z" transform="translate(12.042433 12.133333)" id="Oval-7" fill="#23292F" fill-rule="evenodd" stroke="none" />
      <path d="M0.860174 1.73333C1.33523 1.73333 1.72035 1.34531 1.72035 0.866667C1.72035 0.38802 1.33523 0 0.860174 0C0.385113 0 0 0.38802 0 0.866667C0 1.34531 0.385113 1.73333 0.860174 1.73333Z" transform="translate(4.300869 9.533334)" id="Oval-7-Copy" fill="#23292F" fill-rule="evenodd" stroke="none" />
      <path d="M0.860174 1.73333C1.33523 1.73333 1.72035 1.34531 1.72035 0.866667C1.72035 0.38802 1.33523 0 0.860174 0C0.385113 0 0 0.38802 0 0.866667C0 1.34531 0.385113 1.73333 0.860174 1.73333Z" transform="translate(10.322085 19.066668)" id="Oval-7-Copy-2" fill="#23292F" fill-rule="evenodd" stroke="none" />
      <path d="M0.860174 1.73333C1.33523 1.73333 1.72035 1.34531 1.72035 0.866667C1.72035 0.38802 1.33523 0 0.860174 0C0.385113 0 0 0.38802 0 0.866667C0 1.34531 0.385113 1.73333 0.860174 1.73333Z" transform="translate(17.203476 6.0666666)" id="Oval-7-Copy-3" fill="#23292F" fill-rule="evenodd" stroke="none" />
      <path d="M0 6.00562L0 1.9641C0.0253908 0.654694 0.68554 0 1.98047 0L3.88477 0L3.88477 0.868737L2.39941 0.868737C1.71386 0.868737 1.3584 1.20867 1.33301 1.88856L1.33301 6.00562L0 6.00562Z" transform="translate(4.3333335 3.25)" id="r" fill="#00F3AB" fill-rule="evenodd" stroke="none" />
    </g>
    <g id="Group-9-Copy-6" transform="translate(26 0)">
      <path d="M12.9026 26C20.0285 26 25.8052 20.1797 25.8052 13C25.8052 5.8203 20.0285 0 12.9026 0C5.77669 0 0 5.8203 0 13C0 20.1797 5.77669 26 12.9026 26Z" id="Oval-5" fill="#FFFFFF" fill-rule="evenodd" stroke="#525252" stroke-width="0.5" />
      <path d="M7.74156 15.6C12.0171 15.6 15.4831 12.1078 15.4831 7.8C15.4831 3.49218 12.0171 0 7.74156 0C3.46602 0 0 3.49218 0 7.8C0 12.1078 3.46602 15.6 7.74156 15.6Z" transform="translate(5.1610427 5.2)" id="Oval-6" fill="none" fill-rule="evenodd" stroke="#FFFFFF" stroke-width="0.5" />
      <g id="Rectangle">
        <g clip-path="url(#clip_1)">
          <use xlink:href="#path_1" fill="none" stroke="#23292F" stroke-width="1" />
        </g>
      </g>
      <g id="Rectangle-Copy">
        <g clip-path="url(#clip_2)">
          <use xlink:href="#path_2" fill="none" stroke="#23292F" stroke-width="1" />
        </g>
      </g>
      <g id="Rectangle-Copy-2">
        <g clip-path="url(#clip_3)">
          <use xlink:href="#path_3" fill="none" stroke="#23292F" stroke-width="1" />
        </g>
      </g>
      <path d="M1.29026 2.6C2.00285 2.6 2.58052 2.01797 2.58052 1.3C2.58052 0.58203 2.00285 0 1.29026 0C0.577669 0 0 0.58203 0 1.3C0 2.01797 0.577669 2.6 1.29026 2.6Z" transform="translate(12.042433 12.133333)" id="Oval-7" fill="#23292F" fill-rule="evenodd" stroke="none" />
      <path d="M0.860174 1.73333C1.33523 1.73333 1.72035 1.34531 1.72035 0.866667C1.72035 0.38802 1.33523 0 0.860174 0C0.385113 0 0 0.38802 0 0.866667C0 1.34531 0.385113 1.73333 0.860174 1.73333Z" transform="translate(4.300869 9.533334)" id="Oval-7-Copy" fill="#23292F" fill-rule="evenodd" stroke="none" />
      <path d="M0.860174 1.73333C1.33523 1.73333 1.72035 1.34531 1.72035 0.866667C1.72035 0.38802 1.33523 0 0.860174 0C0.385113 0 0 0.38802 0 0.866667C0 1.34531 0.385113 1.73333 0.860174 1.73333Z" transform="translate(10.322085 19.066668)" id="Oval-7-Copy-2" fill="#23292F" fill-rule="evenodd" stroke="none" />
      <path d="M0.860174 1.73333C1.33523 1.73333 1.72035 1.34531 1.72035 0.866667C1.72035 0.38802 1.33523 0 0.860174 0C0.385113 0 0 0.38802 0 0.866667C0 1.34531 0.385113 1.73333 0.860174 1.73333Z" transform="translate(17.203476 6.0666666)" id="Oval-7-Copy-3" fill="#23292F" fill-rule="evenodd" stroke="none" />
    </g>
    <g id="Group-60-Copy-18" transform="matrix(-1 -2.1456883E-07 -2.1456883E-07 1 32.066666 11.266668)">
      <g id="Rectangle-53">
        <g clip-path="url(#clip_4)">
          <use xlink:href="#path_4" fill="none" stroke="#3CE69D" stroke-width="1.2682081" />
        </g>
      </g>
      <path d="M0.432333 -2.45126e-12L2.16767 -2.45124e-12Q2.21025 -2.45123e-12 2.25201 0.00830716Q2.29377 0.0166143 2.33311 0.0329094Q2.37245 0.0492045 2.40786 0.0728613Q2.44326 0.0965181 2.47337 0.126628Q2.50348 0.156737 2.52714 0.192142Q2.5508 0.227547 2.56709 0.266887Q2.58339 0.306226 2.59169 0.347989Q2.6 0.389752 2.6 0.432333L2.6 0.434333Q2.6 0.476914 2.59169 0.518677Q2.58339 0.56044 2.56709 0.59978Q2.5508 0.63912 2.52714 0.674525Q2.50348 0.70993 2.47337 0.740039Q2.44326 0.770149 2.40786 0.793805Q2.37245 0.817462 2.33311 0.833757Q2.29377 0.850052 2.25201 0.858359Q2.21025 0.866667 2.16767 0.866667L0.432333 0.866667Q0.389752 0.866667 0.347989 0.858359Q0.306226 0.850052 0.266887 0.833757Q0.227547 0.817462 0.192142 0.793805Q0.156737 0.770149 0.126628 0.740039Q0.0965181 0.70993 0.0728613 0.674525Q0.0492045 0.63912 0.0329094 0.59978Q0.0166143 0.56044 0.00830716 0.518677Q1.16733e-13 0.476914 1.06311e-13 0.434333L1.05821e-13 0.432333Q9.53988e-14 0.389752 0.00830716 0.347989Q0.0166143 0.306226 0.0329094 0.266887Q0.0492045 0.227547 0.0728613 0.192142Q0.0965181 0.156737 0.126628 0.126628Q0.156737 0.0965181 0.192142 0.0728613Q0.227547 0.0492045 0.266887 0.0329094Q0.306226 0.0166143 0.347989 0.00830716Q0.389752 -2.45126e-12 0.432333 -2.45126e-12L0.432333 -2.45126e-12Z" transform="translate(10.4 1.3)" id="Rectangle-54-Copy-3" fill="#3CE69D" fill-opacity="0.41462862" fill-rule="evenodd" stroke="none" />
      <g id="Rectangle-53">
        <g clip-path="url(#clip_5)">
          <use xlink:href="#path_5" fill="none" stroke="#2D765C" stroke-width="1.2682081" />
        </g>
      </g>
      <path d="M0.215667 0L1.08433 0Q1.12723 0 1.16687 0.0164166Q1.2065 0.0328333 1.23683 0.0631673Q1.26717 0.0935013 1.28358 0.133135Q1.3 0.172768 1.3 0.215667L1.3 0.217667Q1.3 0.260565 1.28358 0.300199Q1.26717 0.339832 1.23683 0.370166Q1.2065 0.4005 1.16687 0.416917Q1.12723 0.433333 1.08433 0.433333L0.215667 0.433333Q0.172768 0.433333 0.133135 0.416917Q0.0935013 0.4005 0.0631673 0.370166Q0.0328333 0.339832 0.0164166 0.300199Q0 0.260565 0 0.217667L0 0.215667Q0 0.172768 0.0164166 0.133135Q0.0328333 0.0935013 0.0631673 0.0631673Q0.0935013 0.0328333 0.133135 0.0164166Q0.172768 0 0.215667 0Z" transform="translate(5.633333 0.8666667)" id="Rectangle-54" fill="#3CE69D" fill-rule="evenodd" stroke="none" />
      <path d="M0.432333 0L2.601 0Q2.64358 0 2.68534 0.00830716Q2.72711 0.0166143 2.76645 0.0329094Q2.80579 0.0492045 2.84119 0.0728613Q2.8766 0.0965181 2.90671 0.126628Q2.93681 0.156737 2.96047 0.192142Q2.98413 0.227547 3.00042 0.266887Q3.01672 0.306226 3.02503 0.347989Q3.03333 0.389752 3.03333 0.432333L3.03333 0.434333Q3.03333 0.476914 3.02503 0.518677Q3.01672 0.56044 3.00042 0.59978Q2.98413 0.63912 2.96047 0.674525Q2.93681 0.70993 2.90671 0.740039Q2.8766 0.770149 2.84119 0.793805Q2.80579 0.817462 2.76645 0.833757Q2.72711 0.850052 2.68534 0.858359Q2.64358 0.866667 2.601 0.866667L0.432333 0.866667Q0.389752 0.866667 0.347989 0.858359Q0.306226 0.850052 0.266887 0.833757Q0.227547 0.817462 0.192142 0.793805Q0.156737 0.770149 0.126628 0.740039Q0.0965181 0.70993 0.0728613 0.674525Q0.0492045 0.63912 0.0329094 0.59978Q0.0166143 0.56044 0.00830716 0.518677Q0 0.476914 0 0.434333L0 0.432333Q0 0.389752 0.00830716 0.347989Q0.0166143 0.306226 0.0329094 0.266887Q0.0492045 0.227547 0.0728613 0.192142Q0.0965181 0.156737 0.126628 0.126628Q0.156737 0.0965181 0.192142 0.0728613Q0.227547 0.0492045 0.266887 0.0329094Q0.306226 0.0166143 0.347989 0.00830716Q0.389752 0 0.432333 0Z" transform="translate(0 1.3)" id="Rectangle-54-Copy-2" fill="#3CE69D" fill-opacity="0.41462862" fill-rule="evenodd" stroke="none" />
      <path d="M0.215667 0L1.08433 0Q1.12723 0 1.16687 0.0164166Q1.2065 0.0328333 1.23683 0.0631673Q1.26717 0.0935013 1.28358 0.133135Q1.3 0.172768 1.3 0.215667L1.3 0.217667Q1.3 0.260565 1.28358 0.300199Q1.26717 0.339832 1.23683 0.370166Q1.2065 0.4005 1.16687 0.416917Q1.12723 0.433333 1.08433 0.433333L0.215667 0.433333Q0.172768 0.433333 0.133135 0.416917Q0.0935013 0.4005 0.0631673 0.370166Q0.0328333 0.339832 0.0164166 0.300199Q0 0.260565 0 0.217667L0 0.215667Q0 0.172768 0.0164166 0.133135Q0.0328333 0.0935013 0.0631673 0.0631673Q0.0935013 0.0328333 0.133135 0.0164166Q0.172768 0 0.215667 0Z" transform="translate(5.633333 2.1666667)" id="Rectangle-54-Copy" fill="#3CE69D" fill-rule="evenodd" stroke="none" />
    </g>
  </g>
</svg>