<?xml version="1.0" encoding="UTF-8"?>
<svg width="54px" height="28px" viewBox="0 0 54 28" version="1.1" xmlns="http://www.w3.org/2000/svg" xmlns:xlink="http://www.w3.org/1999/xlink">
    <!-- Generator: Sketch 48.1 (47250) - http://www.bohemiancoding.com/sketch -->
    <title>Group Copy 5</title>
    <desc>Created with Sketch.</desc>
    <defs></defs>
    <g id="V2" stroke="none" stroke-width="1" fill="none" fill-rule="evenodd">
        <g id="Group-Copy-5" transform="translate(1.000000, 1.000000)">
            <g id="Group-2" transform="translate(26.000000, 0.000000)">
                <ellipse id="Oval-5-Copy-2" stroke="#525252" stroke-width="0.548888889" fill="#FFFFFF" cx="12.9384474" cy="12.6837838" rx="12.9384474" ry="12.6837838"></ellipse>
                <g id="Group-25" transform="translate(6.518056, 3.170946)" fill="#23292F">
                    <polygon id="Rectangle-14" points="5.97488426 0 11.9497685 10.3679081 5.97488426 14.1491452 0 10.4898835"></polygon>
                    <polygon id="Rectangle-14-Copy" points="6.21387963 0 6.21387963 7.92840031 6.21387963 14.1491452 0 10.4898835"></polygon>
                    <polygon id="Rectangle-18" points="5.97488426 8.21563268 11.9497685 10.6118589 5.97488426 14.1491452 0 10.7259649"></polygon>
                    <polygon id="Rectangle-18-Copy" points="6.21387963 8.21563268 6.21387963 10.6118589 6.21387963 14.1491452 0 10.7259649"></polygon>
                    <polygon id="Rectangle-28" points="0 11.4106009 5.97488426 15.0239579 11.9497685 11.4106009 5.97488426 20.0826577"></polygon>
                    <polygon id="Rectangle-28-Copy" points="0 11.4106009 6.21387963 15.0239579 6.21387963 20.0826577"></polygon>
                </g>
            </g>
            <g id="Group-9-Copy-6">
                <ellipse id="Oval-5" stroke="#525252" stroke-width="0.5" fill="#FFFFFF" cx="12.9026068" cy="13" rx="12.9026068" ry="13"></ellipse>
                <ellipse id="Oval-6" stroke="#FFFFFF" stroke-width="0.5" cx="12.9026068" cy="13" rx="7.7415641" ry="7.8"></ellipse>
                <path d="M12.8001785,24.0104193 C13.545525,23.6588621 14.0953071,22.4700176 14.4018975,20.4270641 C14.4649617,20.006838 14.5306277,19.6149196 14.6292218,19.0570291 C14.6428999,18.9796325 14.7166738,18.5643431 14.7374659,18.4463783 C15.2942195,15.287613 15.4026919,13.0355215 15.0035474,8.19973165 C14.6230104,3.58937707 13.8691555,1.22659169 12.9066857,1.12041348 C11.8840659,1.80853235 11.23039,3.38558856 10.9745959,5.86482411 C10.4497258,10.9520286 10.4083,13.4510237 10.9742893,18.3881936 C11.3876508,21.9939797 12.045655,23.8744484 12.8001785,24.0104193 Z" id="Rectangle" stroke="#23292F" stroke-width="0.5"></path>
                <path d="M12.8001785,24.0104193 C13.545525,23.6588621 14.0953071,22.4700176 14.4018975,20.4270641 C14.4649617,20.006838 14.5306277,19.6149196 14.6292218,19.0570291 C14.6428999,18.9796325 14.7166738,18.5643431 14.7374659,18.4463783 C15.2942195,15.287613 15.4026919,13.0355215 15.0035474,8.19973165 C14.6230104,3.58937707 13.8691555,1.22659169 12.9066857,1.12041348 C11.8840659,1.80853235 11.23039,3.38558856 10.9745959,5.86482411 C10.4497258,10.9520286 10.4083,13.4510237 10.9742893,18.3881936 C11.3876508,21.9939797 12.045655,23.8744484 12.8001785,24.0104193 Z" id="Rectangle-Copy" stroke="#23292F" stroke-width="0.5" transform="translate(12.902607, 12.566667) rotate(-60.000000) translate(-12.902607, -12.566667) "></path>
                <path d="M12.8001785,24.0104193 C13.545525,23.6588621 14.0953071,22.4700176 14.4018975,20.4270641 C14.4649617,20.006838 14.5306277,19.6149196 14.6292218,19.0570291 C14.6428999,18.9796325 14.7166738,18.5643431 14.7374659,18.4463783 C15.2942195,15.287613 15.4026919,13.0355215 15.0035474,8.19973165 C14.6230104,3.58937707 13.8691555,1.22659169 12.9066857,1.12041348 C11.8840659,1.80853235 11.23039,3.38558856 10.9745959,5.86482411 C10.4497258,10.9520286 10.4083,13.4510237 10.9742893,18.3881936 C11.3876508,21.9939797 12.045655,23.8744484 12.8001785,24.0104193 Z" id="Rectangle-Copy-2" stroke="#23292F" stroke-width="0.5" transform="translate(12.902607, 12.566667) rotate(-300.000000) translate(-12.902607, -12.566667) "></path>
                <ellipse id="Oval-7" fill="#23292F" cx="13.3326937" cy="13.4333333" rx="1.29026068" ry="1.3"></ellipse>
                <ellipse id="Oval-7-Copy" fill="#23292F" cx="5.16104273" cy="10.4" rx="1" ry="1"></ellipse>
                <ellipse id="Oval-7-Copy-2" fill="#23292F" cx="11.1822592" cy="19.9333333" rx="1" ry="1"></ellipse>
                <ellipse id="Oval-7-Copy-3" fill="#23292F" cx="18.0636496" cy="6.93333333" rx="1" ry="1"></ellipse>
                <path d="M4.33333333,9.25561725 L4.33333333,5.21410124 C4.35872409,3.90469387 5.01887373,3.25 6.31380208,3.25 L8.21809896,3.25 L8.21809896,4.11873709 L6.7327474,4.11873709 C6.04719709,4.11873709 5.6917319,4.45867429 5.66634115,5.13855888 L5.66634115,9.25561725 L4.33333333,9.25561725 Z" id="r" fill="#00F3AB"></path>
            </g>
            <g id="Group-60-Copy-18" transform="translate(25.566667, 13.216667) scale(1, -1) rotate(-180.000000) translate(-25.566667, -13.216667) translate(19.066667, 11.266667)">
                <path d="M5.31628131,0.362714967 C3.6546589,0.145066012 2.91705203,0.655394747 2.91705203,1.93058787 C2.91705203,3.20753942 3.65708444,3.73447267 5.31628131,3.54949126 L5.31628131,0.362714967 Z" id="Rectangle-53" stroke="#3CE69D" stroke-width="0.634104052"></path>
                <path d="M10.8333333,1.3 L12.5666667,1.3 C12.8059901,1.3 13,1.49400994 13,1.73333333 L13,1.73333333 C13,1.97265672 12.8059901,2.16666667 12.5666667,2.16666667 L10.8333333,2.16666667 C10.5940099,2.16666667 10.4,1.97265672 10.4,1.73333333 L10.4,1.73333333 C10.4,1.49400994 10.5940099,1.3 10.8333333,1.3 Z" id="Rectangle-54-Copy-3" fill="#3CE69D" opacity="0.414628623"></path>
                <path d="M10.5162813,0.362714967 C8.8546589,0.145066012 8.11705203,0.655394747 8.11705203,1.93058787 C8.11705203,3.20753942 8.85708444,3.73447267 10.5162813,3.54949126 L10.5162813,0.362714967 Z" id="Rectangle-53" stroke="#2D765C" stroke-width="0.634104052" transform="translate(9.316667, 1.950000) scale(-1, 1) translate(-9.316667, -1.950000) "></path>
                <rect id="Rectangle-54" fill="#3CE69D" x="5.63333333" y="0.866666667" width="1.3" height="1" rx="0.5"></rect>
                <rect id="Rectangle-54-Copy-2" fill="#3CE69D" opacity="0.414628623" x="0" y="1.3" width="3.03333333" height="1" rx="0.5"></rect>
                <rect id="Rectangle-54-Copy" fill="#3CE69D" x="5.63333333" y="2.16666667" width="1.3" height="1" rx="0.5"></rect>
            </g>
        </g>
    </g>
</svg>