<?xml version="1.0" encoding="utf-8"?>
<svg width="53px" height="27px" viewBox="0 0 53 27" version="1.1" xmlns:xlink="http://www.w3.org/1999/xlink" xmlns="http://www.w3.org/2000/svg">
  <defs>
    <path d="M3.03333 0.0895292L3.03333 3.82786C3.03333 3.82786 0 4.27692 0 1.93059C1.11744e-16 -0.415745 3.03333 0.0895292 3.03333 0.0895292Z" transform="translate(2.6 0)" id="path_1" />
    <path d="M3.03333 0.0895292L3.03333 3.82786C3.03333 3.82786 0 4.27692 0 1.93059C1.11744e-16 -0.415745 3.03333 0.0895292 3.03333 0.0895292Z" transform="matrix(-1 0 0 1 10.833334 0)" id="path_2" />
    <clipPath id="clip_1">
      <use xlink:href="#path_1" />
    </clipPath>
    <clipPath id="clip_2">
      <use xlink:href="#path_2" />
    </clipPath>
  </defs>
  <g id="Group-4-Copy-3" transform="translate(0.25 0.25)">
    <g id="Group-5-Copy-35">
      <path d="M13 26C20.1797 26 26 20.1797 26 13C26 5.8203 20.1797 0 13 0C5.8203 0 0 5.8203 0 13C0 20.1797 5.8203 26 13 26Z" id="Oval-5-Copy" fill="#FFFFFF" fill-rule="evenodd" stroke="#525252" stroke-width="0.5" />
      <g id="Polkadot_symbol_color-Copy-2" transform="translate(7.8 6.0666666)">
        <path d="M5.2 0C2.33862 0 0 2.30439 0 5.15419C0 5.72688 0.0962963 6.28593 0.275132 6.83135C0.398942 7.1995 0.81164 7.40403 1.19683 7.28131C1.56825 7.1586 1.7746 6.74953 1.65079 6.36774C1.49947 5.94504 1.43069 5.49507 1.44444 5.04511C1.49947 3.12251 3.06772 1.5408 5.00741 1.44535C7.1672 1.33627 8.95555 3.0407 8.95555 5.15419C8.95555 7.13133 7.3873 8.75394 5.42011 8.86302C5.42011 8.86302 4.69101 8.90393 4.33333 8.95847C4.1545 8.98574 4.01693 9.01301 3.92063 9.02665C3.87936 9.04028 3.83809 8.99938 3.85185 8.95847L3.97566 8.35851L4.64973 5.27691C4.73228 4.89512 4.48466 4.51332 4.09947 4.43151C3.71429 4.3497 3.3291 4.59514 3.24656 4.97693C3.24656 4.97693 1.62328 12.4764 1.60952 12.5582C1.52698 12.94 1.7746 13.3218 2.15979 13.4036C2.54497 13.4854 2.93016 13.24 3.0127 12.8582C3.02645 12.7764 3.24656 11.781 3.24656 11.781C3.41164 11.0174 4.04444 10.4584 4.7873 10.3629C4.95238 10.3357 5.59894 10.2947 5.59894 10.2947C8.28148 10.0902 10.4 7.86764 10.4 5.15419C10.4 2.30439 8.06138 0 5.2 0Z" id="Shape" fill="#23292F" fill-rule="evenodd" stroke="none" />
        <path d="M1.08995 0.0189431C0.604522 -0.079924 0.119091 0.216677 0.019149 0.711013C-0.0807928 1.19123 0.219033 1.67144 0.718742 1.7703C1.20417 1.86917 1.6896 1.57257 1.78955 1.07823C1.88949 0.583898 1.58966 0.11781 1.08995 0.0189431Z" transform="translate(4.521739 12.077419)" id="Shape" fill="#E6007A" fill-rule="evenodd" stroke="none" />
      </g>
      <path d="M0 6.05566L0 1.98047C0.0253908 0.66015 0.68554 0 1.98047 0L3.88477 0L3.88477 0.875977L2.39941 0.875977C1.71386 0.875977 1.3584 1.21875 1.33301 1.9043L1.33301 6.05566L0 6.05566Z" transform="translate(4.3333335 3.25)" id="r" fill="#00F3AB" fill-rule="evenodd" stroke="none" />
    </g>
    <g id="Group-5-Copy-35" transform="translate(26 0)">
      <path d="M13 26C20.1797 26 26 20.1797 26 13C26 5.8203 20.1797 0 13 0C5.8203 0 0 5.8203 0 13C0 20.1797 5.8203 26 13 26Z" id="Oval-5-Copy" fill="#FFFFFF" fill-rule="evenodd" stroke="#525252" stroke-width="0.5" />
      <g id="Polkadot_symbol_color-Copy-2" transform="translate(7.8 6.0666666)">
        <path d="M5.2 0C2.33862 0 0 2.30439 0 5.15419C0 5.72688 0.0962963 6.28593 0.275132 6.83135C0.398942 7.1995 0.81164 7.40403 1.19683 7.28131C1.56825 7.1586 1.7746 6.74953 1.65079 6.36774C1.49947 5.94504 1.43069 5.49507 1.44444 5.04511C1.49947 3.12251 3.06772 1.5408 5.00741 1.44535C7.1672 1.33627 8.95555 3.0407 8.95555 5.15419C8.95555 7.13133 7.3873 8.75394 5.42011 8.86302C5.42011 8.86302 4.69101 8.90393 4.33333 8.95847C4.1545 8.98574 4.01693 9.01301 3.92063 9.02665C3.87936 9.04028 3.83809 8.99938 3.85185 8.95847L3.97566 8.35851L4.64973 5.27691C4.73228 4.89512 4.48466 4.51332 4.09947 4.43151C3.71429 4.3497 3.3291 4.59514 3.24656 4.97693C3.24656 4.97693 1.62328 12.4764 1.60952 12.5582C1.52698 12.94 1.7746 13.3218 2.15979 13.4036C2.54497 13.4854 2.93016 13.24 3.0127 12.8582C3.02645 12.7764 3.24656 11.781 3.24656 11.781C3.41164 11.0174 4.04444 10.4584 4.7873 10.3629C4.95238 10.3357 5.59894 10.2947 5.59894 10.2947C8.28148 10.0902 10.4 7.86764 10.4 5.15419C10.4 2.30439 8.06138 0 5.2 0Z" id="Shape" fill="#23292F" fill-rule="evenodd" stroke="none" />
        <path d="M1.08995 0.0189431C0.604522 -0.079924 0.119091 0.216677 0.019149 0.711013C-0.0807928 1.19123 0.219033 1.67144 0.718742 1.7703C1.20417 1.86917 1.6896 1.57257 1.78955 1.07823C1.88949 0.583898 1.58966 0.11781 1.08995 0.0189431Z" transform="translate(4.521739 12.077419)" id="Shape" fill="#E6007A" fill-rule="evenodd" stroke="none" />
      </g>
    </g>
    <g id="Group-60-Copy-18" transform="matrix(-1 -2.1456883E-07 -2.1456883E-07 1 32.066666 11.266668)">
      <g id="Rectangle-53">
        <g clip-path="url(#clip_1)">
          <use xlink:href="#path_1" fill="none" stroke="#3CE69D" stroke-width="1.2682081" />
        </g>
      </g>
      <path d="M0.432333 -2.45126e-12L2.16767 -2.45124e-12Q2.21025 -2.45123e-12 2.25201 0.00830716Q2.29377 0.0166143 2.33311 0.0329094Q2.37245 0.0492045 2.40786 0.0728613Q2.44326 0.0965181 2.47337 0.126628Q2.50348 0.156737 2.52714 0.192142Q2.5508 0.227547 2.56709 0.266887Q2.58339 0.306226 2.59169 0.347989Q2.6 0.389752 2.6 0.432333L2.6 0.434333Q2.6 0.476914 2.59169 0.518677Q2.58339 0.56044 2.56709 0.59978Q2.5508 0.63912 2.52714 0.674525Q2.50348 0.70993 2.47337 0.740039Q2.44326 0.770149 2.40786 0.793805Q2.37245 0.817462 2.33311 0.833757Q2.29377 0.850052 2.25201 0.858359Q2.21025 0.866667 2.16767 0.866667L0.432333 0.866667Q0.389752 0.866667 0.347989 0.858359Q0.306226 0.850052 0.266887 0.833757Q0.227547 0.817462 0.192142 0.793805Q0.156737 0.770149 0.126628 0.740039Q0.0965181 0.70993 0.0728613 0.674525Q0.0492045 0.63912 0.0329094 0.59978Q0.0166143 0.56044 0.00830716 0.518677Q1.16733e-13 0.476914 1.06311e-13 0.434333L1.05821e-13 0.432333Q9.53988e-14 0.389752 0.00830716 0.347989Q0.0166143 0.306226 0.0329094 0.266887Q0.0492045 0.227547 0.0728613 0.192142Q0.0965181 0.156737 0.126628 0.126628Q0.156737 0.0965181 0.192142 0.0728613Q0.227547 0.0492045 0.266887 0.0329094Q0.306226 0.0166143 0.347989 0.00830716Q0.389752 -2.45126e-12 0.432333 -2.45126e-12L0.432333 -2.45126e-12Z" transform="translate(10.4 1.3)" id="Rectangle-54-Copy-3" fill="#3CE69D" fill-opacity="0.41462862" fill-rule="evenodd" stroke="none" />
      <g id="Rectangle-53">
        <g clip-path="url(#clip_2)">
          <use xlink:href="#path_2" fill="none" stroke="#2D765C" stroke-width="1.2682081" />
        </g>
      </g>
      <path d="M0.215667 0L1.08433 0Q1.12723 0 1.16687 0.0164166Q1.2065 0.0328333 1.23683 0.0631673Q1.26717 0.0935013 1.28358 0.133135Q1.3 0.172768 1.3 0.215667L1.3 0.217667Q1.3 0.260565 1.28358 0.300199Q1.26717 0.339832 1.23683 0.370166Q1.2065 0.4005 1.16687 0.416917Q1.12723 0.433333 1.08433 0.433333L0.215667 0.433333Q0.172768 0.433333 0.133135 0.416917Q0.0935013 0.4005 0.0631673 0.370166Q0.0328333 0.339832 0.0164166 0.300199Q0 0.260565 0 0.217667L0 0.215667Q0 0.172768 0.0164166 0.133135Q0.0328333 0.0935013 0.0631673 0.0631673Q0.0935013 0.0328333 0.133135 0.0164166Q0.172768 0 0.215667 0Z" transform="translate(5.633333 0.8666667)" id="Rectangle-54" fill="#3CE69D" fill-rule="evenodd" stroke="none" />
      <path d="M0.432333 0L2.601 0Q2.64358 0 2.68534 0.00830716Q2.72711 0.0166143 2.76645 0.0329094Q2.80579 0.0492045 2.84119 0.0728613Q2.8766 0.0965181 2.90671 0.126628Q2.93681 0.156737 2.96047 0.192142Q2.98413 0.227547 3.00042 0.266887Q3.01672 0.306226 3.02503 0.347989Q3.03333 0.389752 3.03333 0.432333L3.03333 0.434333Q3.03333 0.476914 3.02503 0.518677Q3.01672 0.56044 3.00042 0.59978Q2.98413 0.63912 2.96047 0.674525Q2.93681 0.70993 2.90671 0.740039Q2.8766 0.770149 2.84119 0.793805Q2.80579 0.817462 2.76645 0.833757Q2.72711 0.850052 2.68534 0.858359Q2.64358 0.866667 2.601 0.866667L0.432333 0.866667Q0.389752 0.866667 0.347989 0.858359Q0.306226 0.850052 0.266887 0.833757Q0.227547 0.817462 0.192142 0.793805Q0.156737 0.770149 0.126628 0.740039Q0.0965181 0.70993 0.0728613 0.674525Q0.0492045 0.63912 0.0329094 0.59978Q0.0166143 0.56044 0.00830716 0.518677Q0 0.476914 0 0.434333L0 0.432333Q0 0.389752 0.00830716 0.347989Q0.0166143 0.306226 0.0329094 0.266887Q0.0492045 0.227547 0.0728613 0.192142Q0.0965181 0.156737 0.126628 0.126628Q0.156737 0.0965181 0.192142 0.0728613Q0.227547 0.0492045 0.266887 0.0329094Q0.306226 0.0166143 0.347989 0.00830716Q0.389752 0 0.432333 0Z" transform="translate(0 1.3)" id="Rectangle-54-Copy-2" fill="#3CE69D" fill-opacity="0.41462862" fill-rule="evenodd" stroke="none" />
      <path d="M0.215667 0L1.08433 0Q1.12723 0 1.16687 0.0164166Q1.2065 0.0328333 1.23683 0.0631673Q1.26717 0.0935013 1.28358 0.133135Q1.3 0.172768 1.3 0.215667L1.3 0.217667Q1.3 0.260565 1.28358 0.300199Q1.26717 0.339832 1.23683 0.370166Q1.2065 0.4005 1.16687 0.416917Q1.12723 0.433333 1.08433 0.433333L0.215667 0.433333Q0.172768 0.433333 0.133135 0.416917Q0.0935013 0.4005 0.0631673 0.370166Q0.0328333 0.339832 0.0164166 0.300199Q0 0.260565 0 0.217667L0 0.215667Q0 0.172768 0.0164166 0.133135Q0.0328333 0.0935013 0.0631673 0.0631673Q0.0935013 0.0328333 0.133135 0.0164166Q0.172768 0 0.215667 0Z" transform="translate(5.633333 2.1666667)" id="Rectangle-54-Copy" fill="#3CE69D" fill-rule="evenodd" stroke="none" />
    </g>
  </g>
</svg>