<?xml version="1.0" encoding="utf-8"?>
<svg width="52px" height="26px" viewBox="0 0 52 26" version="1.1" xmlns:xlink="http://www.w3.org/1999/xlink" xmlns="http://www.w3.org/2000/svg">
  <defs>
    <path d="M3.07948 0.0847689L3.07948 3.62433C3.07948 3.62433 0 4.04951 0 1.82794C1.13444e-16 -0.39364 3.07948 0.0847689 3.07948 0.0847689Z" transform="translate(2.7859395 0.021684196)" id="path_1" />
    <path d="M3.07948 0.0847689L3.07948 3.62433C3.07948 3.62433 0 4.04951 0 1.82794C1.13444e-16 -0.39364 3.07948 0.0847689 3.07948 0.0847689Z" transform="matrix(-1 0 0 1 10.871827 0.026613262)" id="path_2" />
    <clipPath id="clip_1">
      <use xlink:href="#path_1" />
    </clipPath>
    <clipPath id="clip_2">
      <use xlink:href="#path_2" />
    </clipPath>
  </defs>
  <g id="Group-Copy-35">
    <g id="Group-5-Copy-36" transform="translate(26 0.002380371)">
      <path d="M12.725 25.4997C19.7528 25.4997 25.45 19.7914 25.45 12.7498C25.45 5.70829 19.7528 0 12.725 0C5.69718 0 0 5.70829 0 12.7498C0 19.7914 5.69718 25.4997 12.725 25.4997Z" id="Oval-5-Copy" fill="#FFFFFF" fill-rule="evenodd" stroke="none" />
      <path d="M12.5075 4.23746C12.2017 4.06151 11.8042 4.06151 11.4678 4.23746L9.08248 5.5864L7.46171 6.46615L5.07642 7.81509C4.7706 7.99104 4.37307 7.99104 4.03666 7.81509L2.14065 6.7594C1.83485 6.58346 1.6208 6.26087 1.6208 5.90896L1.6208 3.8269C1.6208 3.47501 1.80427 3.15243 2.14065 2.97648L4.00608 1.9501C4.31188 1.77415 4.70944 1.77415 5.04584 1.9501L6.91125 2.97648C7.21707 3.15243 7.43113 3.47501 7.43113 3.8269L7.43113 5.17585L9.0519 4.26676L9.0519 2.91782C9.0519 2.56593 8.86842 2.24335 8.53205 2.0674L5.07642 0.131959C4.7706 -0.0439862 4.37307 -0.0439862 4.03666 0.131959L0.519879 2.0674C0.183478 2.24335 0 2.56593 0 2.91782L0 6.81804C0 7.16993 0.183478 7.49251 0.519879 7.66846L4.03666 9.6039C4.34249 9.77987 4.74002 9.77987 5.07642 9.6039L7.46171 8.28429L9.08248 7.37521L11.4678 6.0556C11.7736 5.87965 12.1712 5.87965 12.5075 6.0556L14.373 7.08196C14.6788 7.25793 14.8928 7.58049 14.8928 7.9324L14.8928 10.0145C14.8928 10.3664 14.7093 10.6889 14.373 10.8649L12.5075 11.9206C12.2017 12.0965 11.8042 12.0965 11.4678 11.9206L9.60236 10.8942C9.29657 10.7183 9.08248 10.3957 9.08248 10.0438L9.08248 8.69484L7.46171 9.6039L7.46171 10.9528C7.46171 11.3048 7.64519 11.6273 7.98159 11.8033L11.4984 13.7387C11.8042 13.9147 12.2017 13.9147 12.5381 13.7387L16.0549 11.8033C16.3607 11.6273 16.5748 11.3048 16.5748 10.9528L16.5748 7.05265C16.5748 6.70074 16.3913 6.37818 16.0549 6.20221L12.5075 4.23746Z" transform="translate(4.533264 5.8845825)" id="Shape" fill="#23292F" fill-rule="evenodd" stroke="none" />
    </g>
    <g id="Group-5-Copy-35">
      <path d="M12.725 25.4997C19.7528 25.4997 25.45 19.7914 25.45 12.7498C25.45 5.70829 19.7528 0 12.725 0C5.69718 0 0 5.70829 0 12.7498C0 19.7914 5.69718 25.4997 12.725 25.4997Z" id="Oval-5-Copy" fill="#FFFFFF" fill-rule="evenodd" stroke="none" />
      <path d="M12.5075 4.23746C12.2017 4.06151 11.8042 4.06151 11.4678 4.23746L9.08248 5.5864L7.46171 6.46615L5.07642 7.81509C4.7706 7.99104 4.37307 7.99104 4.03666 7.81509L2.14065 6.7594C1.83485 6.58346 1.6208 6.26087 1.6208 5.90896L1.6208 3.8269C1.6208 3.47501 1.80427 3.15243 2.14065 2.97648L4.00608 1.9501C4.31188 1.77415 4.70944 1.77415 5.04584 1.9501L6.91125 2.97648C7.21707 3.15243 7.43113 3.47501 7.43113 3.8269L7.43113 5.17585L9.0519 4.26676L9.0519 2.91782C9.0519 2.56593 8.86842 2.24335 8.53205 2.0674L5.07642 0.131959C4.7706 -0.0439862 4.37307 -0.0439862 4.03666 0.131959L0.519879 2.0674C0.183478 2.24335 0 2.56593 0 2.91782L0 6.81804C0 7.16993 0.183478 7.49251 0.519879 7.66846L4.03666 9.6039C4.34249 9.77987 4.74002 9.77987 5.07642 9.6039L7.46171 8.28429L9.08248 7.37521L11.4678 6.0556C11.7736 5.87965 12.1712 5.87965 12.5075 6.0556L14.373 7.08196C14.6788 7.25793 14.8928 7.58049 14.8928 7.9324L14.8928 10.0145C14.8928 10.3664 14.7093 10.6889 14.373 10.8649L12.5075 11.9206C12.2017 12.0965 11.8042 12.0965 11.4678 11.9206L9.60236 10.8942C9.29657 10.7183 9.08248 10.3957 9.08248 10.0438L9.08248 8.69484L7.46171 9.6039L7.46171 10.9528C7.46171 11.3048 7.64519 11.6273 7.98159 11.8033L11.4984 13.7387C11.8042 13.9147 12.2017 13.9147 12.5381 13.7387L16.0549 11.8033C16.3607 11.6273 16.5748 11.3048 16.5748 10.9528L16.5748 7.05265C16.5748 6.70074 16.3913 6.37818 16.0549 6.20221L12.5075 4.23746Z" transform="translate(4.533264 5.8845825)" id="Shape" fill="#23292F" fill-rule="evenodd" stroke="none" />
      <path d="M0 5.89004L0 1.9263C0.0250413 0.642095 0.676104 0 1.95321 0L3.83129 0L3.83129 0.852019L2.36639 0.852019C1.69027 0.852019 1.3397 1.18541 1.31466 1.85222L1.31466 5.89004L0 5.89004Z" transform="translate(4.2736816 3.187439)" id="r" fill="#00F3AB" fill-rule="evenodd" stroke="none" />
    </g>
    <g id="Group-Copy-35" transform="translate(18.589844 11.077759)">
      <g id="Group-60-Copy-18" transform="matrix(-1 -2.1456883E-07 -2.1456883E-07 1 13.000001 5.559673E-08)">
        <g id="Rectangle-53">
          <g clip-path="url(#clip_1)">
            <use xlink:href="#path_1" fill="none" stroke="#3CE69D" stroke-width="1.2682081" />
          </g>
        </g>
        <path d="M0.441957 -2.44909e-12L2.03423 -2.44906e-12Q2.07776 -2.44906e-12 2.12045 0.00849208Q2.16315 0.0169842 2.20336 0.033642Q2.24358 0.0502998 2.27977 0.0744832Q2.31596 0.0986666 2.34674 0.129446Q2.37752 0.160226 2.40171 0.196419Q2.42589 0.232612 2.44255 0.272828Q2.45921 0.313043 2.4677 0.355736Q2.47619 0.398428 2.47619 0.441957L2.47619 0.443957Q2.47619 0.487486 2.4677 0.530179Q2.45921 0.572871 2.44255 0.613087Q2.42589 0.653302 2.40171 0.689495Q2.37752 0.725688 2.34674 0.756468Q2.31596 0.787248 2.27977 0.811431Q2.24358 0.835615 2.20336 0.852272Q2.16315 0.86893 2.12045 0.877422Q2.07776 0.885914 2.03423 0.885915L0.441957 0.885915Q0.398428 0.885914 0.355736 0.877422Q0.313043 0.86893 0.272828 0.852272Q0.232612 0.835615 0.196419 0.811431Q0.160226 0.787248 0.129446 0.756468Q0.0986666 0.725688 0.0744832 0.689495Q0.0502998 0.653302 0.033642 0.613087Q0.0169842 0.572871 0.00849208 0.530179Q1.1117e-13 0.487486 1.01243e-13 0.443957L1.00787e-13 0.441957Q9.08605e-14 0.398428 0.00849208 0.355736Q0.0169842 0.313043 0.033642 0.272828Q0.0502998 0.232612 0.0744832 0.196419Q0.0986666 0.160226 0.129446 0.129446Q0.160226 0.0986666 0.196419 0.0744832Q0.232612 0.0502998 0.272828 0.033642Q0.313043 0.0169842 0.355736 0.00849208Q0.398428 -2.44909e-12 0.441957 -2.44909e-12Z" transform="translate(10.4792385 1.3334645)" id="Rectangle-54-Copy-3" fill="#3CE69D" fill-opacity="0.41462862" fill-rule="evenodd" stroke="none" />
        <g id="Rectangle-53">
          <g clip-path="url(#clip_2)">
            <use xlink:href="#path_2" fill="none" stroke="#2D765C" stroke-width="1.2682081" />
          </g>
        </g>
        <path d="M0.296621 0L0.964061 0Q0.993275 0 1.02193 0.00569949Q1.05058 0.011399 1.07757 0.022579Q1.10456 0.0337589 1.12885 0.0499897Q1.15315 0.0662205 1.1738 0.0868784Q1.19446 0.107536 1.21069 0.131827Q1.22692 0.156118 1.2381 0.183109Q1.24928 0.2101 1.25498 0.238753Q1.26068 0.267407 1.26068 0.296621L1.26068 0.298621Q1.26068 0.327836 1.25498 0.356489Q1.24928 0.385143 1.2381 0.412133Q1.22692 0.439124 1.21069 0.463415Q1.19446 0.487706 1.1738 0.508364Q1.15315 0.529022 1.12885 0.545253Q1.10456 0.561484 1.07757 0.572664Q1.05058 0.583844 1.02193 0.589543Q0.993275 0.595243 0.964061 0.595243L0.296621 0.595243Q0.267407 0.595243 0.238753 0.589543Q0.2101 0.583844 0.183109 0.572664Q0.156118 0.561484 0.131827 0.545253Q0.107536 0.529022 0.0868784 0.508364Q0.0662205 0.487706 0.0499897 0.463415Q0.0337589 0.439124 0.022579 0.412133Q0.011399 0.385143 0.00569949 0.356489Q0 0.327836 0 0.298621L0 0.296621Q0 0.267407 0.00569949 0.238753Q0.011399 0.2101 0.022579 0.183109Q0.0337589 0.156118 0.0499897 0.131827Q0.0662205 0.107536 0.0868784 0.0868784Q0.107536 0.0662205 0.131827 0.0499897Q0.156118 0.0337589 0.183109 0.022579Q0.2101 0.011399 0.238753 0.00569949Q0.267407 0 0.296621 0Z" transform="translate(5.665524 0.90204954)" id="Rectangle-54" fill="#3CE69D" fill-rule="evenodd" stroke="none" />
        <path d="M0.441957 0L2.63752 0Q2.68105 0 2.72374 0.00849208Q2.76644 0.0169842 2.80665 0.033642Q2.84687 0.0502998 2.88306 0.0744832Q2.91925 0.0986666 2.95003 0.129446Q2.98081 0.160226 3.005 0.196419Q3.02918 0.232612 3.04584 0.272828Q3.0625 0.313043 3.07099 0.355736Q3.07948 0.398428 3.07948 0.441957L3.07948 0.443957Q3.07948 0.487486 3.07099 0.530179Q3.0625 0.572871 3.04584 0.613087Q3.02918 0.653302 3.005 0.689495Q2.98081 0.725688 2.95003 0.756468Q2.91925 0.787248 2.88306 0.811431Q2.84687 0.835615 2.80665 0.852272Q2.76644 0.86893 2.72374 0.877422Q2.68105 0.885914 2.63752 0.885915L0.441957 0.885915Q0.398428 0.885914 0.355736 0.877422Q0.313043 0.86893 0.272828 0.852272Q0.232612 0.835615 0.196419 0.811431Q0.160226 0.787248 0.129446 0.756468Q0.0986666 0.725688 0.0744832 0.689495Q0.0502998 0.653302 0.033642 0.613087Q0.0169842 0.572871 0.00849208 0.530179Q0 0.487486 0 0.443957L0 0.441957Q0 0.398428 0.00849208 0.355736Q0.0169842 0.313043 0.033642 0.272828Q0.0502998 0.232612 0.0744832 0.196419Q0.0986666 0.160226 0.129446 0.129446Q0.160226 0.0986666 0.196419 0.0744832Q0.232612 0.0502998 0.272828 0.033642Q0.313043 0.0169842 0.355736 0.00849208Q0.398428 0 0.441957 0L0.441957 0Z" transform="translate(0 1.3334645)" id="Rectangle-54-Copy-2" fill="#3CE69D" fill-opacity="0.41462862" fill-rule="evenodd" stroke="none" />
        <path d="M0.296621 0L0.964061 0Q0.993275 0 1.02193 0.00569949Q1.05058 0.011399 1.07757 0.022579Q1.10456 0.0337589 1.12885 0.0499897Q1.15315 0.0662205 1.1738 0.0868784Q1.19446 0.107536 1.21069 0.131827Q1.22692 0.156118 1.2381 0.183109Q1.24928 0.2101 1.25498 0.238753Q1.26068 0.267407 1.26068 0.296621L1.26068 0.298621Q1.26068 0.327836 1.25498 0.356489Q1.24928 0.385143 1.2381 0.412133Q1.22692 0.439124 1.21069 0.463415Q1.19446 0.487706 1.1738 0.508364Q1.15315 0.529022 1.12885 0.545253Q1.10456 0.561484 1.07757 0.572664Q1.05058 0.583844 1.02193 0.589543Q0.993275 0.595243 0.964061 0.595243L0.296621 0.595243Q0.267407 0.595243 0.238753 0.589543Q0.2101 0.583844 0.183109 0.572664Q0.156118 0.561484 0.131827 0.545253Q0.107536 0.529022 0.0868784 0.508364Q0.0662205 0.487706 0.0499897 0.463415Q0.0337589 0.439124 0.022579 0.412133Q0.011399 0.385143 0.00569949 0.356489Q0 0.327836 0 0.298621L0 0.296621Q0 0.267407 0.00569949 0.238753Q0.011399 0.2101 0.022579 0.183109Q0.0337589 0.156118 0.0499897 0.131827Q0.0662205 0.107536 0.0868784 0.0868784Q0.107536 0.0662205 0.131827 0.0499897Q0.156118 0.0337589 0.183109 0.022579Q0.2101 0.011399 0.238753 0.00569949Q0.267407 0 0.296621 0Z" transform="translate(5.665524 2.1962945)" id="Rectangle-54-Copy" fill="#3CE69D" fill-rule="evenodd" stroke="none" />
      </g>
    </g>
  </g>
</svg>