<?xml version="1.0" encoding="UTF-8"?>
<svg width="54px" height="28px" viewBox="0 0 54 28" version="1.1" xmlns="http://www.w3.org/2000/svg" xmlns:xlink="http://www.w3.org/1999/xlink">
    <!-- Generator: Sketch 48.1 (47250) - http://www.bohemiancoding.com/sketch -->
    <title>Group</title>
    <desc>Created with Sketch.</desc>
    <defs></defs>
    <g id="V2" stroke="none" stroke-width="1" fill="none" fill-rule="evenodd">
        <g id="Group" transform="translate(1.000000, 1.000000)">
            <g id="Group-2" transform="translate(26.000000, 0.000000)">
                <ellipse id="Oval-5-Copy-2" stroke="#525252" stroke-width="0.548888889" fill="#FFFFFF" cx="12.9384474" cy="12.6837838" rx="12.9384474" ry="12.6837838"></ellipse>
                <g id="Group-25" transform="translate(6.518056, 3.170946)" fill="#23292F">
                    <polygon id="Rectangle-14" points="5.97488426 0 11.9497685 10.3679081 5.97488426 14.1491452 0 10.4898835"></polygon>
                    <polygon id="Rectangle-14-Copy" points="6.21387963 0 6.21387963 7.92840031 6.21387963 14.1491452 0 10.4898835"></polygon>
                    <polygon id="Rectangle-18" points="5.97488426 8.21563268 11.9497685 10.6118589 5.97488426 14.1491452 0 10.7259649"></polygon>
                    <polygon id="Rectangle-18-Copy" points="6.21387963 8.21563268 6.21387963 10.6118589 6.21387963 14.1491452 0 10.7259649"></polygon>
                    <polygon id="Rectangle-28" points="0 11.4106009 5.97488426 15.0239579 11.9497685 11.4106009 5.97488426 20.0826577"></polygon>
                    <polygon id="Rectangle-28-Copy" points="0 11.4106009 6.21387963 15.0239579 6.21387963 20.0826577"></polygon>
                </g>
            </g>
            <g id="Group-2-Copy-3">
                <ellipse id="Oval-5-Copy-2" stroke="#525252" stroke-width="0.548888889" fill="#FFFFFF" cx="12.9026068" cy="13" rx="12.9026068" ry="13"></ellipse>
                <path d="M17.4508972,15.6983755 C16.9626668,15.674218 16.4146405,15.5567435 15.8068182,15.3459519 C15.7918812,15.3366277 15.7768858,15.3273948 15.7618319,15.3182532 L17.2236318,6.88235294 L19.2393048,6.98000127 L17.4508972,15.6983755 Z M17.1618594,17.1074162 L16.6954077,19.3813387 L14.7184187,19.3813387 L13.7987904,16.4401507 C14.3089995,16.4723965 14.7973462,16.5387604 15.2638307,16.6392425 L15.6084917,17.7220801 L15.6283603,16.7258655 C15.6882248,16.7414554 15.7477107,16.757636 15.8068182,16.7744074 C16.2584986,16.9506295 16.710179,17.0616325 17.1618594,17.1074162 Z M13.2471377,14.6341807 L12.9468311,13.5262535 L12.6540677,14.6436757 C12.2004912,14.6708415 11.7765896,14.7443177 11.3823629,14.8641043 L12.4761194,11.1231892 L13.5288019,11.1231892 L14.7002254,14.8524132 C14.2535789,14.7208096 13.7692164,14.6480654 13.2471377,14.6341807 Z M12.1307798,16.4539864 L11.2608274,19.3813387 L9.35230551,19.3813387 L8.90685118,17.1271548 C9.42099539,17.1037403 9.89032486,16.9861578 10.3148396,16.7744074 C10.3857607,16.754284 10.4572269,16.735011 10.529238,16.7165885 L10.5847143,17.7220801 L10.8818957,16.6340924 C11.2821472,16.5490203 11.6984419,16.488985 12.1307798,16.4539864 Z M8.62523872,15.7020788 L6.88235294,6.88235294 L8.63511207,6.88235294 L10.430829,15.2760653 C10.3917817,15.2987612 10.3531185,15.3220568 10.3148396,15.3459519 C9.80052421,15.5840278 9.26658185,15.7030658 8.71301248,15.7030658 C8.68391112,15.7030658 8.6546532,15.7027368 8.62523872,15.7020788 Z" id="Combined-Shape-Copy" fill="#23292F"></path>
            </g>
            <g id="Group-60-Copy-18" transform="translate(25.566667, 13.216667) scale(1, -1) rotate(-180.000000) translate(-25.566667, -13.216667) translate(19.066667, 11.266667)">
                <path d="M5.54836789,0.382345776 C3.8544117,0.174966834 3.10299142,0.658481865 3.10299142,1.84962172 C3.10299142,3.0426574 3.85667442,3.54171609 5.54836789,3.36524723 L5.54836789,0.382345776 Z" id="Rectangle-53" stroke="#3CE69D" stroke-width="0.634104052"></path>
                <path d="M10.9221953,1.3334645 L12.5124713,1.3334645 C12.7571099,1.3334645 12.9554286,1.53178322 12.9554286,1.77642175 L12.9554286,1.77642175 C12.9554286,2.02106029 12.7571099,2.219379 12.5124713,2.219379 L10.9221953,2.219379 C10.6775568,2.219379 10.4792381,2.02106029 10.4792381,1.77642175 L10.4792381,1.77642175 C10.4792381,1.53178322 10.6775568,1.3334645 10.9221953,1.3334645 Z" id="Rectangle-54-Copy-3" fill="#3CE69D" opacity="0.414628623"></path>
                <path d="M10.5547748,0.387274843 C8.86081863,0.179895901 8.10939835,0.663410932 8.10939835,1.85455078 C8.10939835,3.04758647 8.86308134,3.54664516 10.5547748,3.3701763 L10.5547748,0.387274843 Z" id="Rectangle-53" stroke="#2D765C" stroke-width="0.634104052" transform="translate(9.332087, 1.872931) scale(-1, 1) translate(-9.332087, -1.872931) "></path>
                <rect id="Rectangle-54" fill="#3CE69D" x="5.66552381" y="0.902049516" width="1.26068207" height="1" rx="0.5"></rect>
                <rect id="Rectangle-54-Copy-2" fill="#3CE69D" opacity="0.414628623" x="0" y="1.3334645" width="3.07948052" height="1" rx="0.5"></rect>
                <rect id="Rectangle-54-Copy" fill="#3CE69D" x="5.66552381" y="2.19629447" width="1.26068207" height="1" rx="0.5"></rect>
            </g>
        </g>
    </g>
</svg>