<?xml version="1.0" encoding="utf-8"?>
<svg width="53px" height="26px" viewBox="0 0 53 26" version="1.1" xmlns:xlink="http://www.w3.org/1999/xlink" xmlns="http://www.w3.org/2000/svg">
  <defs>
    <path d="M5.63333 0.0895292L5.63333 3.82786C5.63333 3.82786 2.6 4.27692 2.6 1.93059C2.6 -0.415745 5.63333 0.0895292 5.63333 0.0895292Z" id="path_1" />
    <path d="M7.8 0.0895292L7.8 3.82786C7.8 3.82786 10.8333 4.27692 10.8333 1.93059C10.8333 -0.415745 7.8 0.0895292 7.8 0.0895292Z" id="path_2" />
    <clipPath id="clip_1">
      <use xlink:href="#path_1" />
    </clipPath>
    <clipPath id="clip_2">
      <use xlink:href="#path_2" />
    </clipPath>
  </defs>
  <g id="Group-Copy-29">
    <g id="Group-5-Copy-6" transform="translate(26.799988 0)">
      <path d="M12.9026 26C20.0285 26 25.8052 20.1797 25.8052 13C25.8052 5.8203 20.0285 0 12.9026 0C5.77669 0 0 5.8203 0 13C0 20.1797 5.77669 26 12.9026 26Z" id="Oval-5-Copy" fill="#FFFFFF" fill-rule="evenodd" stroke="none" />
      <g id="Group-130" transform="translate(5.200012 6.9331055)">
        <path d="M2.64037 -7.10543e-15L15.2522 -6.90465e-15Q15.2725 -6.90433e-15 15.2925 0.00296723Q15.3125 0.00593446 15.3319 0.0118047Q15.3512 0.017675 15.3695 0.0263213Q15.3878 0.0349677 15.4046 0.046203Q15.4214 0.0574384 15.4364 0.0710197Q15.4514 0.084601 15.4643 0.100235Q15.4771 0.115868 15.4875 0.133216Q15.4979 0.150563 15.5057 0.169249Q15.5134 0.187935 15.5183 0.207556Q15.5233 0.227177 15.5252 0.247308Q15.5272 0.267438 15.5263 0.287644Q15.5253 0.307849 15.5213 0.327692Q15.5174 0.347535 15.5106 0.366586Q15.5038 0.385637 15.4943 0.403484Q15.4848 0.421332 15.4727 0.437589Q15.4607 0.453846 15.4464 0.468162L12.8853 3.03333L0.324714 3.03333Q0.304572 3.03333 0.284645 3.03039Q0.264719 3.02745 0.245436 3.02163Q0.226154 3.01581 0.207928 3.00723Q0.189702 2.99866 0.172924 2.98751Q0.156146 2.97637 0.141176 2.96289Q0.126205 2.94942 0.113364 2.9339Q0.100522 2.91838 0.0900846 2.90116Q0.0796472 2.88393 0.0718378 2.86536Q0.0640283 2.8468 0.0590144 2.82729Q0.0540005 2.80778 0.0518897 2.78775Q0.0497788 2.76772 0.0506162 2.74759Q0.0514537 2.72747 0.0552215 2.70768Q0.0589893 2.6879 0.0656067 2.66887Q0.072224 2.64985 0.081549 2.63199Q0.090874 2.61414 0.102707 2.59784Q0.114539 2.58154 0.128626 2.56714L2.64037 -7.10543e-15Z" id="Rectangle-88" fill="#23292F" fill-rule="evenodd" stroke="none" />
        <path d="M2.64037 9.1L15.2522 9.1Q15.2725 9.1 15.2925 9.10297Q15.3125 9.10594 15.3319 9.11181Q15.3512 9.11768 15.3695 9.12632Q15.3878 9.13497 15.4046 9.1462Q15.4214 9.15744 15.4364 9.17102Q15.4514 9.1846 15.4643 9.20024Q15.4771 9.21587 15.4875 9.23322Q15.4979 9.25057 15.5057 9.26925Q15.5134 9.28794 15.5183 9.30756Q15.5233 9.32718 15.5252 9.34731Q15.5272 9.36744 15.5263 9.38765Q15.5253 9.40785 15.5213 9.42769Q15.5174 9.44754 15.5106 9.46659Q15.5038 9.48564 15.4943 9.50349Q15.4848 9.52133 15.4727 9.53759Q15.4607 9.55385 15.4464 9.56816L12.8853 12.1333L0.324714 12.1333Q0.304572 12.1333 0.284645 12.1304Q0.264719 12.1274 0.245436 12.1216Q0.226154 12.1158 0.207928 12.1072Q0.189702 12.0987 0.172924 12.0875Q0.156146 12.0764 0.141176 12.0629Q0.126205 12.0494 0.113364 12.0339Q0.100522 12.0184 0.0900846 12.0012Q0.0796472 11.9839 0.0718378 11.9654Q0.0640283 11.9468 0.0590144 11.9273Q0.0540005 11.9078 0.0518897 11.8877Q0.0497788 11.8677 0.0506162 11.8476Q0.0514537 11.8275 0.0552215 11.8077Q0.0589893 11.7879 0.0656067 11.7689Q0.072224 11.7498 0.081549 11.732Q0.090874 11.7141 0.102707 11.6978Q0.114539 11.6815 0.128626 11.6671L2.64037 9.1Z" id="Rectangle-88-Copy" fill="#23292F" fill-rule="evenodd" stroke="none" />
        <path d="M12.9378 4.57974L0.325959 4.57974Q0.30573 4.57974 0.28572 4.58271Q0.265709 4.58567 0.246351 4.59154Q0.226992 4.59741 0.208704 4.60606Q0.190415 4.61471 0.173593 4.62594Q0.156771 4.63718 0.141778 4.65076Q0.126786 4.66434 0.113948 4.67997Q0.10111 4.69561 0.0907042 4.71295Q0.0802981 4.7303 0.0725492 4.74899Q0.0648003 4.76767 0.0598761 4.7873Q0.0549519 4.80692 0.0529589 4.82705Q0.050966 4.84718 0.0519474 4.86738Q0.0529288 4.88759 0.0568633 4.90743Q0.0607978 4.92727 0.0676003 4.94633Q0.0744029 4.96538 0.0839263 4.98322Q0.0934497 5.00107 0.105488 5.01733Q0.117526 5.03359 0.131819 5.0479L2.69286 7.61307L15.2535 7.61307Q15.2736 7.61307 15.2936 7.61013Q15.3135 7.60719 15.3328 7.60137Q15.3521 7.59555 15.3703 7.58697Q15.3885 7.5784 15.4053 7.56725Q15.4221 7.55611 15.437 7.54263Q15.452 7.52916 15.4648 7.51364Q15.4777 7.49812 15.4881 7.4809Q15.4986 7.46367 15.5064 7.4451Q15.5142 7.42654 15.5192 7.40703Q15.5242 7.38752 15.5263 7.36749Q15.5284 7.34746 15.5276 7.32733Q15.5267 7.30721 15.523 7.28742Q15.5192 7.26763 15.5126 7.24861Q15.506 7.22959 15.4967 7.21173Q15.4873 7.19388 15.4755 7.17758Q15.4637 7.16128 15.4496 7.14688L12.9378 4.57974Z" id="Rectangle-88-Copy-2" fill="#23292F" fill-rule="evenodd" stroke="none" />
      </g>
    </g>
    <g id="Group-5-Copy-5">
      <path d="M12.9026 26C20.0285 26 25.8052 20.1797 25.8052 13C25.8052 5.8203 20.0285 0 12.9026 0C5.77669 0 0 5.8203 0 13C0 20.1797 5.77669 26 12.9026 26Z" id="Oval-5-Copy" fill="#FFFFFF" fill-rule="evenodd" stroke="none" />
      <path d="M4.33331 9.25562L4.33331 5.2141C4.3587 3.90469 5.01885 3.25 6.31378 3.25L8.21808 3.25L8.21808 4.11874L6.73273 4.11874C6.04718 4.11874 5.69171 4.45867 5.66632 5.13856L5.66632 9.25562L4.33331 9.25562Z" id="r" fill="#00F3AB" fill-rule="evenodd" stroke="none" />
      <g id="Group-130" transform="translate(5.200012 6.9331055)">
        <path d="M2.64037 -7.10543e-15L15.2522 -6.90465e-15Q15.2725 -6.90433e-15 15.2925 0.00296723Q15.3125 0.00593446 15.3319 0.0118047Q15.3512 0.017675 15.3695 0.0263213Q15.3878 0.0349677 15.4046 0.046203Q15.4214 0.0574384 15.4364 0.0710197Q15.4514 0.084601 15.4643 0.100235Q15.4771 0.115868 15.4875 0.133216Q15.4979 0.150563 15.5057 0.169249Q15.5134 0.187935 15.5183 0.207556Q15.5233 0.227177 15.5252 0.247308Q15.5272 0.267438 15.5263 0.287644Q15.5253 0.307849 15.5213 0.327692Q15.5174 0.347535 15.5106 0.366586Q15.5038 0.385637 15.4943 0.403484Q15.4848 0.421332 15.4727 0.437589Q15.4607 0.453846 15.4464 0.468162L12.8853 3.03333L0.324714 3.03333Q0.304572 3.03333 0.284645 3.03039Q0.264719 3.02745 0.245436 3.02163Q0.226154 3.01581 0.207928 3.00723Q0.189702 2.99866 0.172924 2.98751Q0.156146 2.97637 0.141176 2.96289Q0.126205 2.94942 0.113364 2.9339Q0.100522 2.91838 0.0900846 2.90116Q0.0796472 2.88393 0.0718378 2.86536Q0.0640283 2.8468 0.0590144 2.82729Q0.0540005 2.80778 0.0518897 2.78775Q0.0497788 2.76772 0.0506162 2.74759Q0.0514537 2.72747 0.0552215 2.70768Q0.0589893 2.6879 0.0656067 2.66887Q0.072224 2.64985 0.081549 2.63199Q0.090874 2.61414 0.102707 2.59784Q0.114539 2.58154 0.128626 2.56714L2.64037 -7.10543e-15Z" id="Rectangle-88" fill="#23292F" fill-rule="evenodd" stroke="none" />
        <path d="M2.64037 9.1L15.2522 9.1Q15.2725 9.1 15.2925 9.10297Q15.3125 9.10594 15.3319 9.11181Q15.3512 9.11768 15.3695 9.12632Q15.3878 9.13497 15.4046 9.1462Q15.4214 9.15744 15.4364 9.17102Q15.4514 9.1846 15.4643 9.20024Q15.4771 9.21587 15.4875 9.23322Q15.4979 9.25057 15.5057 9.26925Q15.5134 9.28794 15.5183 9.30756Q15.5233 9.32718 15.5252 9.34731Q15.5272 9.36744 15.5263 9.38765Q15.5253 9.40785 15.5213 9.42769Q15.5174 9.44754 15.5106 9.46659Q15.5038 9.48564 15.4943 9.50349Q15.4848 9.52133 15.4727 9.53759Q15.4607 9.55385 15.4464 9.56816L12.8853 12.1333L0.324714 12.1333Q0.304572 12.1333 0.284645 12.1304Q0.264719 12.1274 0.245436 12.1216Q0.226154 12.1158 0.207928 12.1072Q0.189702 12.0987 0.172924 12.0875Q0.156146 12.0764 0.141176 12.0629Q0.126205 12.0494 0.113364 12.0339Q0.100522 12.0184 0.0900846 12.0012Q0.0796472 11.9839 0.0718378 11.9654Q0.0640283 11.9468 0.0590144 11.9273Q0.0540005 11.9078 0.0518897 11.8877Q0.0497788 11.8677 0.0506162 11.8476Q0.0514537 11.8275 0.0552215 11.8077Q0.0589893 11.7879 0.0656067 11.7689Q0.072224 11.7498 0.081549 11.732Q0.090874 11.7141 0.102707 11.6978Q0.114539 11.6815 0.128626 11.6671L2.64037 9.1Z" id="Rectangle-88-Copy" fill="#23292F" fill-rule="evenodd" stroke="none" />
        <path d="M12.9378 4.57974L0.325959 4.57974Q0.30573 4.57974 0.28572 4.58271Q0.265709 4.58567 0.246351 4.59154Q0.226992 4.59741 0.208704 4.60606Q0.190415 4.61471 0.173593 4.62594Q0.156771 4.63718 0.141778 4.65076Q0.126786 4.66434 0.113948 4.67997Q0.10111 4.69561 0.0907042 4.71295Q0.0802981 4.7303 0.0725492 4.74899Q0.0648003 4.76767 0.0598761 4.7873Q0.0549519 4.80692 0.0529589 4.82705Q0.050966 4.84718 0.0519474 4.86738Q0.0529288 4.88759 0.0568633 4.90743Q0.0607978 4.92727 0.0676003 4.94633Q0.0744029 4.96538 0.0839263 4.98322Q0.0934497 5.00107 0.105488 5.01733Q0.117526 5.03359 0.131819 5.0479L2.69286 7.61307L15.2535 7.61307Q15.2736 7.61307 15.2936 7.61013Q15.3135 7.60719 15.3328 7.60137Q15.3521 7.59555 15.3703 7.58697Q15.3885 7.5784 15.4053 7.56725Q15.4221 7.55611 15.437 7.54263Q15.452 7.52916 15.4648 7.51364Q15.4777 7.49812 15.4881 7.4809Q15.4986 7.46367 15.5064 7.4451Q15.5142 7.42654 15.5192 7.40703Q15.5242 7.38752 15.5263 7.36749Q15.5284 7.34746 15.5276 7.32733Q15.5267 7.30721 15.523 7.28742Q15.5192 7.26763 15.5126 7.24861Q15.506 7.22959 15.4967 7.21173Q15.4873 7.19388 15.4755 7.17758Q15.4637 7.16128 15.4496 7.14688L12.9378 4.57974Z" id="Rectangle-88-Copy-2" fill="#23292F" fill-rule="evenodd" stroke="none" />
      </g>
    </g>
    <g id="Group-Copy-29" transform="translate(19.06665 11.266602)">
      <g id="Group-60-Copy-18" transform="matrix(-1 -2.1456883E-07 -2.1456883E-07 1 13.000001 5.559673E-08)">
        <g id="Rectangle-53">
          <g clip-path="url(#clip_1)">
            <use xlink:href="#path_1" fill="none" stroke="#3CE69D" stroke-width="1.2682081" />
          </g>
        </g>
        <path d="M10.8323 1.3L12.5677 1.3Q12.6102 1.3 12.652 1.30831Q12.6938 1.31661 12.7331 1.33291Q12.7725 1.3492 12.8079 1.37286Q12.8433 1.39652 12.8734 1.42663Q12.9035 1.45674 12.9271 1.49214Q12.9508 1.52755 12.9671 1.56689Q12.9834 1.60623 12.9917 1.64799Q13 1.68975 13 1.73233L13 1.73433Q13 1.77691 12.9917 1.81868Q12.9834 1.86044 12.9671 1.89978Q12.9508 1.93912 12.9271 1.97452Q12.9035 2.00993 12.8734 2.04004Q12.8433 2.07015 12.8079 2.0938Q12.7725 2.11746 12.7331 2.13376Q12.6938 2.15005 12.652 2.15836Q12.6102 2.16667 12.5677 2.16667L10.8323 2.16667Q10.7898 2.16667 10.748 2.15836Q10.7062 2.15005 10.6669 2.13376Q10.6275 2.11746 10.5921 2.09381Q10.5567 2.07015 10.5266 2.04004Q10.4965 2.00993 10.4729 1.97452Q10.4492 1.93912 10.4329 1.89978Q10.4166 1.86044 10.4083 1.81868Q10.4 1.77691 10.4 1.73433L10.4 1.73233Q10.4 1.68975 10.4083 1.64799Q10.4166 1.60623 10.4329 1.56689Q10.4492 1.52755 10.4729 1.49214Q10.4965 1.45674 10.5266 1.42663Q10.5567 1.39652 10.5921 1.37286Q10.6275 1.3492 10.6669 1.33291Q10.7062 1.31661 10.748 1.30831Q10.7898 1.3 10.8323 1.3Z" id="Rectangle-54-Copy-3" fill="#3CE69D" fill-opacity="0.41462862" fill-rule="evenodd" stroke="none" />
        <g id="Rectangle-53">
          <g clip-path="url(#clip_2)">
            <use xlink:href="#path_2" fill="none" stroke="#2D765C" stroke-width="1.2682081" />
          </g>
        </g>
        <path d="M5.849 0.866667L6.71767 0.866667Q6.76056 0.866667 6.8002 0.883083Q6.83983 0.8995 6.87017 0.929834Q6.9005 0.960168 6.91692 0.999801Q6.93333 1.03943 6.93333 1.08233L6.93333 1.08433Q6.93333 1.12723 6.91692 1.16687Q6.9005 1.2065 6.87017 1.23683Q6.83983 1.26717 6.8002 1.28358Q6.76056 1.3 6.71767 1.3L5.849 1.3Q5.8061 1.3 5.76647 1.28358Q5.72683 1.26717 5.6965 1.23683Q5.66617 1.2065 5.64975 1.16687Q5.63333 1.12723 5.63333 1.08433L5.63333 1.08233Q5.63333 1.03943 5.64975 0.999801Q5.66617 0.960168 5.6965 0.929834Q5.72683 0.8995 5.76647 0.883083Q5.8061 0.866667 5.849 0.866667Z" id="Rectangle-54" fill="#3CE69D" fill-rule="evenodd" stroke="none" />
        <path d="M0.432333 1.3L2.601 1.3Q2.64358 1.3 2.68534 1.30831Q2.72711 1.31661 2.76645 1.33291Q2.80579 1.3492 2.84119 1.37286Q2.8766 1.39652 2.90671 1.42663Q2.93681 1.45674 2.96047 1.49214Q2.98413 1.52755 3.00042 1.56689Q3.01672 1.60623 3.02503 1.64799Q3.03333 1.68975 3.03333 1.73233L3.03333 1.73433Q3.03333 1.77691 3.02503 1.81868Q3.01672 1.86044 3.00042 1.89978Q2.98413 1.93912 2.96047 1.97452Q2.93681 2.00993 2.90671 2.04004Q2.8766 2.07015 2.84119 2.0938Q2.80579 2.11746 2.76645 2.13376Q2.72711 2.15005 2.68534 2.15836Q2.64358 2.16667 2.601 2.16667L0.432333 2.16667Q0.389752 2.16667 0.347989 2.15836Q0.306226 2.15005 0.266887 2.13376Q0.227547 2.11746 0.192142 2.09381Q0.156737 2.07015 0.126628 2.04004Q0.0965181 2.00993 0.0728613 1.97452Q0.0492045 1.93912 0.0329094 1.89978Q0.0166143 1.86044 0.00830716 1.81868Q0 1.77691 0 1.73433L0 1.73233Q0 1.68975 0.00830716 1.64799Q0.0166143 1.60623 0.0329094 1.56689Q0.0492045 1.52755 0.0728613 1.49214Q0.0965181 1.45674 0.126628 1.42663Q0.156737 1.39652 0.192142 1.37286Q0.227547 1.3492 0.266887 1.33291Q0.306226 1.31661 0.347989 1.30831Q0.389752 1.3 0.432333 1.3Z" id="Rectangle-54-Copy-2" fill="#3CE69D" fill-opacity="0.41462862" fill-rule="evenodd" stroke="none" />
        <path d="M5.849 2.16667L6.71767 2.16667Q6.76056 2.16667 6.8002 2.18308Q6.83983 2.1995 6.87017 2.22983Q6.9005 2.26017 6.91692 2.2998Q6.93333 2.33943 6.93333 2.38233L6.93333 2.38433Q6.93333 2.42723 6.91692 2.46687Q6.9005 2.5065 6.87017 2.53683Q6.83983 2.56717 6.8002 2.58358Q6.76056 2.6 6.71767 2.6L5.849 2.6Q5.8061 2.6 5.76647 2.58358Q5.72683 2.56717 5.6965 2.53683Q5.66617 2.5065 5.64975 2.46687Q5.63333 2.42723 5.63333 2.38433L5.63333 2.38233Q5.63333 2.33943 5.64975 2.2998Q5.66617 2.26017 5.6965 2.22983Q5.72683 2.1995 5.76647 2.18308Q5.8061 2.16667 5.849 2.16667Z" id="Rectangle-54-Copy" fill="#3CE69D" fill-rule="evenodd" stroke="none" />
      </g>
    </g>
  </g>
</svg>