<?xml version="1.0" encoding="utf-8"?>
<svg width="17px" height="18px" viewBox="0 0 17 18" version="1.1" xmlns:xlink="http://www.w3.org/1999/xlink" xmlns="http://www.w3.org/2000/svg">
  <g id="Group-2-Copy-58">
    <g id="Group-14" transform="translate(3.4 4.285714)">
      <path d="M4.85714 11.7551C5.68302 11.7551 12.2055 12.2779 12.4181 11.1317C12.5408 10.4473 12.6021 9.81241 12.6021 9.22696C12.6021 6.97587 12.1585 5.22779 11.2713 3.98268C10.3841 2.73757 8.83662 1.58318 7.00906 1.58318L2.55668 1.58318L2.55668 10.0408C2.55668 10.0408 3.4 11.1317 3.80476 11.4286C4.20952 11.7254 4.85714 11.7551 4.85714 11.7551ZM1.77169 1.58318L8.66191 1.65252e-12C11.1396 1.65252e-12 11.1916 3.06004e-12 12.7616 1.62004e-12C13.5466 9.00091e-13 12.7616 6.20902 12.7616 8.70748C12.7616 10.637 12.8355 12.1569 11.2713 12.6654C10.137 13.0342 8.01313 13.6327 4.85714 13.6327C4.37143 13.6327 2.99524 13.6327 2.99524 13.6327L0.2017 12.6654L0.2017 11.0823L1.77169 1.58318Z" id="D" fill="#FFD061" fill-rule="evenodd" stroke="none" />
      <path d="M0 13.6894L0 4.47704C0.0569199 1.49233 1.53682 0 4.43973 0L8.7087 0L8.7087 1.98023L5.37891 1.98023C3.84207 1.98023 3.0452 2.75509 2.98828 4.30485L2.98828 13.6894L0 13.6894Z" id="r-copy" fill="#23292F" fill-rule="evenodd" stroke="none" />
      <path d="M13.5658 0L13.5658 9.21237C13.5089 12.1971 12.029 13.6894 9.12612 13.6894L4.85714 13.6894L4.85714 11.7092L8.18694 11.7092C9.72378 11.7092 10.5206 10.9343 10.5776 9.38457L10.5776 0L13.5658 0Z" id="r-copy-2" fill="#23292F" fill-rule="evenodd" stroke="none" />
    </g>
    <path d="M0 7.18694L0 2.35045C0.029883 0.783474 0.806828 0 2.33086 0L4.57207 0L4.57207 1.03962L2.82393 1.03962C2.01709 1.03962 1.59873 1.44642 1.56885 2.26004L1.56885 7.18694L0 7.18694Z" id="r" fill="#00F3AB" fill-rule="evenodd" stroke="none" />
  </g>
</svg>