<?xml version="1.0" encoding="UTF-8"?>
<svg width="36px" height="36px" viewBox="0 0 36 36" version="1.1" xmlns="http://www.w3.org/2000/svg" xmlns:xlink="http://www.w3.org/1999/xlink">
    <!-- Generator: Sketch 48.1 (47250) - http://www.bohemiancoding.com/sketch -->
    <title>Group 5 Copy 2</title>
    <desc>Created with Sketch.</desc>
    <defs></defs>
    <g id="StaFi-rDOT-Copy-4" stroke="none" stroke-width="1" fill="none" fill-rule="evenodd" transform="translate(-42.000000, -327.000000)">
        <g id="Group-5-Copy-2" transform="translate(42.000000, 327.000000)">
            <ellipse id="Oval-5-Copy" fill="#00F3AB" cx="17.8651479" cy="18" rx="17.8651479" ry="18"></ellipse>
            <g id="Group-17" transform="translate(3.000000, 15.000000)">
                <path d="M0,3.68355555 C4.75043029,1.5837224 8.53700516,0.432498087 11.3597246,0.229882608 C13.2754926,0.092368324 17.1378043,-0.353138345 22.1772806,0.56143521 C23.7677865,0.850083198 26.3753596,1.6789647 30,3.04807973 L30,10.8671953 C25.9724613,8.06741774 20.9724613,6.66752897 15,6.66752897 C9.02753873,6.66752897 4.02753873,8.44501932 0,12 L0,3.68355555 Z" id="Rectangle-6" fill="#FFFFFF"></path>
                <path d="M12.59342,0.133402997 C14.4366418,-0.0041681052 17.1860003,-0.142986711 20.567867,0.309882828 L19.5987978,6.96297293 C18.1323656,6.76011088 16.5954352,6.65867985 14.9880066,6.65867985 C12.8639349,6.65867985 10.8629618,6.88356434 8.98508704,7.33333333 C8.32035706,6.82235319 7.93082352,6.32154155 7.81648644,5.83089843 C7.70184951,5.3389686 7.26108143,2.97991463 10.3703731,1.22291521 C11.0130619,0.859744472 11.7540775,0.496573734 12.59342,0.133402997 Z" id="Combined-Shape" fill="#00CD90"></path>
                <ellipse id="Oval" fill="#C54151" cx="15.2493075" cy="3.2" rx="2.99168975" ry="3.2"></ellipse>
                <path d="M15.934903,0.0888888889 C17.2574933,0.424377096 18.2409972,1.68997764 18.2409972,3.2 C18.2409972,4.71002236 17.2574933,5.9756229 15.934903,6.31111111 C14.6123128,5.9756229 13.6288089,4.71002236 13.6288089,3.2 C13.6288089,1.68997764 14.6123128,0.424377096 15.934903,0.0888888889 Z" id="Combined-Shape" fill="#E45264"></path>
                <g id="Group-2-Copy-3" transform="translate(14.085873, 1.911111)" fill="#FFFFFF">
                    <path d="M2.16779248,1.94360088 C2.06764793,1.93827507 1.95523819,1.91237636 1.83056325,1.86590476 C1.82749942,1.86384913 1.8244236,1.86181363 1.82133577,1.85979825 L2.1211764,0 L2.53462604,0.0215277778 L2.16779248,1.94360088 Z M2.10850581,2.25424129 L2.01282844,2.75555556 L1.60731355,2.75555556 L1.41868179,2.10713438 C1.52333455,2.11424337 1.62350297,2.12887411 1.71918705,2.15102662 L1.78988303,2.38975152 L1.79395843,2.17012373 C1.80623768,2.17356072 1.81843929,2.17712794 1.83056325,2.1808254 C1.92321077,2.21967573 2.01585829,2.2441477 2.10850581,2.25424129 Z M1.3055282,1.70898601 L1.24393008,1.46472982 L1.18387922,1.71107932 C1.09084278,1.71706835 1.00389318,1.73326708 0.923030422,1.75967551 L1.14737892,0.934944661 L1.36330243,0.934944661 L1.6035818,1.75709807 C1.51196683,1.72808442 1.41261563,1.71204707 1.3055282,1.70898601 Z M1.07654376,2.11018464 L0.89810137,2.75555556 L0.506630288,2.75555556 L0.415259847,2.25859291 C0.52071978,2.25343088 0.616987427,2.22750838 0.704062789,2.1808254 C0.718609956,2.17638893 0.733268906,2.17213997 0.748039638,2.1680785 L0.759418789,2.38975152 L0.820375866,2.14989123 C0.902474433,2.13113603 0.98786373,2.1179005 1.07654376,2.11018464 Z M0.357496228,1.94441734 L0,0 L0.359521424,0 L0.727854241,1.85049739 C0.719844952,1.855501 0.711914467,1.86063679 0.704062789,1.86590476 C0.59856775,1.91839153 0.489046872,1.94463492 0.375500154,1.94463492 C0.369530959,1.94463492 0.36352965,1.94456239 0.357496228,1.94441734 Z" id="Combined-Shape-Copy"></path>
                </g>
                <path d="M20.5798909,0.311111111 C21.093147,0.379810537 21.6209093,0.462059066 22.1622276,0.559907939 C23.7557941,0.847961489 26.3683849,1.67513601 30,3.04143149 L30,10.8444444 C27.0253136,8.78478798 23.5211585,7.4842881 19.4875346,6.9429448 L20.5798909,0.311111111 Z" id="Combined-Shape" fill="#FFD061"></path>
            </g>
        </g>
    </g>
</svg>