<?xml version="1.0" encoding="UTF-8"?>
<svg width="38px" height="38px" viewBox="0 0 38 38" version="1.1" xmlns="http://www.w3.org/2000/svg" xmlns:xlink="http://www.w3.org/1999/xlink">
    <!-- Generator: Sketch 48.1 (47250) - http://www.bohemiancoding.com/sketch -->
    <title>Group 2 Copy 21</title>
    <desc>Created with Sketch.</desc>
    <defs></defs>
    <g id="Page-1" stroke="none" stroke-width="1" fill="none" fill-rule="evenodd">
        <g id="Group-2-Copy-21" transform="translate(1.000000, 1.000000)">
            <circle id="Oval-5-Copy-2" stroke="#EEEEEE" stroke-width="0.54939759" fill="#00F3AB" cx="18" cy="18" r="18"></circle>
            <path d="M6,12.8847656 L6,7.2421875 C6.03515643,5.41405336 6.94920979,4.5 8.7421875,4.5 L11.3789062,4.5 L11.3789062,5.71289062 L9.32226562,5.71289062 C8.37304213,5.71289062 7.88085955,6.18749525 7.84570312,7.13671875 L7.84570312,12.8847656 L6,12.8847656 Z" id="r" fill="#FFFFFF"></path>
            <g id="Polkadot_symbol_color-Copy-6" transform="translate(11.400000, 7.800000)" fill-rule="nonzero">
                <path d="M6.9,0.128910891 C3.12315789,0.128910891 0.0363157895,3.24118812 0.0363157895,7.09009901 C0.0363157895,7.86356436 0.163421053,8.61861386 0.399473684,9.35524752 C0.562894737,9.85247525 1.10763158,10.1287129 1.61605263,9.9629703 C2.10631579,9.79722772 2.37868421,9.24475248 2.21526316,8.72910891 C2.01552632,8.15821782 1.92473684,7.55049505 1.94289474,6.94277228 C2.01552632,4.34613861 4.08552632,2.20990099 6.64578947,2.0809901 C9.49657895,1.93366337 11.8571053,4.23564356 11.8571053,7.09009901 C11.8571053,9.76039604 9.78710526,11.9518812 7.19052632,12.0992079 C7.19052632,12.0992079 6.22815789,12.1544554 5.75605263,12.2281188 C5.52,12.2649505 5.33842105,12.3017822 5.21131579,12.320198 C5.15684211,12.3386139 5.10236842,12.2833663 5.12052632,12.2281188 L5.28394737,11.4178218 L6.17368421,7.25584158 C6.28263158,6.74019802 5.95578947,6.22455446 5.44736842,6.11405941 C4.93894737,6.00356436 4.43052632,6.3350495 4.32157895,6.85069307 C4.32157895,6.85069307 2.17894737,16.9794059 2.16078947,17.089901 C2.05184211,17.6055446 2.37868421,18.1211881 2.88710526,18.2316832 C3.39552632,18.3421782 3.90394737,18.0106931 4.01289474,17.4950495 C4.03105263,17.3845545 4.32157895,16.040198 4.32157895,16.040198 C4.53947368,15.0089109 5.37473684,14.2538614 6.35526316,14.1249505 C6.57315789,14.0881188 7.42657895,14.0328713 7.42657895,14.0328713 C10.9673684,13.7566337 13.7636842,10.7548515 13.7636842,7.09009901 C13.7636842,3.24118812 10.6768421,0.128910891 6.9,0.128910891 Z" id="Shape" fill="#23292F"></path>
                <path d="M7.39026316,16.1506931 C6.77289474,16.0217822 6.15552632,16.4085149 6.02842105,17.0530693 C5.90131579,17.6792079 6.28263158,18.3053465 6.91815789,18.4342574 C7.53552632,18.5631683 8.15289474,18.1764356 8.28,17.5318812 C8.40710526,16.8873267 8.02578947,16.279604 7.39026316,16.1506931 Z" id="Shape" fill="#E6007A"></path>
            </g>
        </g>
    </g>
</svg>