<?xml version="1.0" encoding="UTF-8"?>
<svg width="37px" height="38px" viewBox="0 0 37 38" version="1.1" xmlns="http://www.w3.org/2000/svg" xmlns:xlink="http://www.w3.org/1999/xlink">
    <!-- Generator: Sketch 48.1 (47250) - http://www.bohemiancoding.com/sketch -->
    <title>Group 2 Copy 55</title>
    <desc>Created with Sketch.</desc>
    <defs></defs>
    <g id="Page-1" stroke="none" stroke-width="1" fill="none" fill-rule="evenodd">
        <g id="Group-2-Copy-55" transform="translate(1.000000, 1.000000)">
            <ellipse id="Oval-5-Copy-2" stroke="#EEEEEE" stroke-width="0.5" fill="#00F3AB" cx="17.8651479" cy="18" rx="17.8651479" ry="18"></ellipse>
            <path d="M5.09850917,25.6969955 C5.09850917,25.6969955 15.7772936,21.398773 17.8558486,22.5088651 L16.6020642,22.8845365 C16.7118119,22.8845365 18.7438073,23.0199136 18.7438073,23.0199136 C18.8402056,23.8845656 19.3125621,24.6596467 20.0308486,25.1317962 C21.2547018,25.954212 21.2779817,26.4009564 21.2779817,26.4009564 C21.2779817,26.4009564 20.6427752,26.6649417 20.6427752,27 C21.2334306,26.8279412 21.8442464,26.7380021 22.4586009,26.7326303 C23.0127601,26.7527582 23.5623452,26.8425632 24.0948394,27 C24.0948394,27 24.0316514,26.6615573 23.1769495,26.4009564 C22.3222477,26.1403555 21.4974771,25.2197913 21.0817661,24.7087428 C20.5746055,24.0442119 20.4482841,23.1571995 20.7491972,22.373488 C21.0451835,21.6018386 22.0794725,21.1720164 24.1779817,20.0619242 C26.668922,18.7521509 27.2376147,17.770667 27.5868119,17.0159398 C27.9360092,16.2612125 28.4614679,14.7483735 28.7508028,14.0376438 C28.9913638,13.3733348 29.4052763,12.7883027 29.9480505,12.3454302 C30.3172018,12.0577539 32,11.4113283 32,11.4113283 C32,11.4113283 30.7162844,10.2978518 30.2972477,9.96279346 C29.7735043,9.45800247 29.1111425,9.12746486 28.3982798,9.01515385 C27.5069954,8.89669889 26.6024083,9.49912694 25.9904817,9.90187377 C25.378555,10.3046206 24.1946101,11.4824013 23.715711,11.820844 C23.2368119,12.1592867 22.009633,12.4977294 20.0574541,13.7127388 C18.1052752,14.9277482 10.356422,19.9603914 10.356422,19.9603914 L12.3518349,19.980698 L3.39575688,24.7087428 L4.29036697,24.7087428 L3,25.7240709 C3.71467719,25.8905756 4.46482622,25.7744325 5.09850917,25.3991659 L5.09850917,25.6969955 Z" id="Path" fill="#333B43"></path>
            <path d="M6,12.81547 L6,7.21952479 C6.03515643,5.4064992 6.94920979,4.5 8.7421875,4.5 L11.3789062,4.5 L11.3789062,5.70286674 L9.32226562,5.70286674 C8.37304213,5.70286674 7.88085955,6.17354901 7.84570312,7.11492769 L7.84570312,12.81547 L6,12.81547 Z" id="r" fill="#FFFFFF"></path>
        </g>
    </g>
</svg>