<?xml version="1.0" encoding="utf-8"?>
<svg width="37px" height="37px" viewBox="0 0 37 37" version="1.1" xmlns:xlink="http://www.w3.org/1999/xlink" xmlns="http://www.w3.org/2000/svg">
  <g id="Group-26" transform="translate(0.375 0.375)">
    <g id="Group-5-Copy-4">
      <path d="M17.8651 36C27.7318 36 35.7303 27.9411 35.7303 18C35.7303 8.05887 27.7318 0 17.8651 0C7.9985 0 0 8.05887 0 18C0 27.9411 7.9985 36 17.8651 36Z" id="Oval-5-Copy" fill="#00F3AB" fill-rule="evenodd" stroke="none" />
    </g>
    <path d="M6 13.3848L6 7.74219C6.03516 5.91405 6.94921 5 8.74219 5L11.3789 5L11.3789 6.21289L9.32227 6.21289C8.37304 6.21289 7.88086 6.6875 7.8457 7.63672L7.8457 13.3848L6 13.3848Z" id="r-copy-3" fill="#FFFFFF" fill-rule="evenodd" stroke="none" />
    <g id="Group-8-Copy" transform="translate(14 9)">
      <path d="M3.999 0L4.001 0Q4.19746 0 4.39297 0.0192563Q4.58848 0.0385126 4.78117 0.0768396Q4.97385 0.115167 5.16185 0.172196Q5.34985 0.229224 5.53135 0.304406Q5.71285 0.379587 5.88612 0.472197Q6.05938 0.564807 6.22272 0.673953Q6.38607 0.783099 6.53794 0.907731Q6.6898 1.03236 6.82872 1.17128Q6.96764 1.3102 7.09227 1.46206Q7.2169 1.61393 7.32605 1.77727Q7.43519 1.94062 7.5278 2.11388Q7.62041 2.28715 7.69559 2.46865Q7.77078 2.65015 7.8278 2.83815Q7.88483 3.02615 7.92316 3.21883Q7.96149 3.41152 7.98074 3.60703Q8 3.80254 8 3.999L8 14.001Q8 14.1975 7.98074 14.393Q7.96149 14.5885 7.92316 14.7812Q7.88483 14.9738 7.8278 15.1618Q7.77078 15.3498 7.69559 15.5313Q7.62041 15.7129 7.5278 15.8861Q7.43519 16.0594 7.32605 16.2227Q7.2169 16.3861 7.09227 16.5379Q6.96764 16.6898 6.82872 16.8287Q6.6898 16.9676 6.53794 17.0923Q6.38607 17.2169 6.22272 17.326Q6.05938 17.4352 5.88612 17.5278Q5.71285 17.6204 5.53135 17.6956Q5.34985 17.7708 5.16185 17.8278Q4.97385 17.8848 4.78117 17.9232Q4.58848 17.9615 4.39297 17.9807Q4.19746 18 4.001 18L3.999 18Q3.80254 18 3.60703 17.9807Q3.41152 17.9615 3.21883 17.9232Q3.02615 17.8848 2.83815 17.8278Q2.65015 17.7708 2.46865 17.6956Q2.28715 17.6204 2.11388 17.5278Q1.94062 17.4352 1.77727 17.326Q1.61393 17.2169 1.46206 17.0923Q1.3102 16.9676 1.17128 16.8287Q1.03236 16.6898 0.907731 16.5379Q0.783099 16.3861 0.673953 16.2227Q0.564807 16.0594 0.472197 15.8861Q0.379587 15.7129 0.304406 15.5313Q0.229224 15.3498 0.172196 15.1618Q0.115167 14.9738 0.0768396 14.7812Q0.0385126 14.5885 0.0192563 14.393Q0 14.1975 0 14.001L0 3.999Q0 3.80254 0.0192563 3.60703Q0.0385126 3.41152 0.0768396 3.21883Q0.115167 3.02615 0.172196 2.83815Q0.229224 2.65015 0.304406 2.46865Q0.379587 2.28715 0.472197 2.11388Q0.564807 1.94062 0.673953 1.77727Q0.783099 1.61393 0.907731 1.46206Q1.03236 1.3102 1.17128 1.17128Q1.3102 1.03236 1.46206 0.907731Q1.61393 0.783099 1.77727 0.673953Q1.94062 0.564807 2.11388 0.472197Q2.28715 0.379587 2.46865 0.304406Q2.65015 0.229224 2.83815 0.172196Q3.02615 0.115167 3.21883 0.0768396Q3.41152 0.0385126 3.60703 0.0192563Q3.80254 0 3.999 0Z" id="Rectangle-33" fill="#23292F" fill-rule="evenodd" stroke="none" />
      <path d="M3.499 0L4.501 0Q4.67289 0 4.84396 0.0168486Q5.01503 0.0336973 5.18362 0.0672323Q5.35221 0.100767 5.51671 0.150666Q5.6812 0.200564 5.84001 0.266345Q5.99882 0.332127 6.15042 0.413157Q6.30201 0.494188 6.44494 0.589688Q6.58786 0.685187 6.72074 0.794236Q6.85362 0.903285 6.97517 1.02483Q7.09671 1.14638 7.20576 1.27926Q7.31481 1.41213 7.41031 1.55506Q7.50581 1.69799 7.58684 1.84958Q7.66787 2.00118 7.73365 2.15999Q7.79944 2.3188 7.84933 2.48329Q7.89923 2.64779 7.93277 2.81638Q7.9663 2.98497 7.98315 3.15604Q8 3.32711 8 3.499L8 7L4.44089e-16 11L-3.53053e-15 3.499Q-3.62162e-15 3.32711 0.0168486 3.15604Q0.0336973 2.98497 0.0672323 2.81638Q0.100767 2.64779 0.150666 2.48329Q0.200564 2.3188 0.266345 2.15999Q0.332127 2.00118 0.413157 1.84958Q0.494188 1.69799 0.589688 1.55506Q0.685187 1.41213 0.794236 1.27926Q0.903285 1.14638 1.02483 1.02483Q1.14638 0.903285 1.27926 0.794236Q1.41213 0.685187 1.55506 0.589688Q1.69799 0.494188 1.84958 0.413157Q2.00118 0.332127 2.15999 0.266345Q2.3188 0.200564 2.48329 0.150666Q2.64779 0.100767 2.81638 0.0672323Q2.98497 0.0336973 3.15604 0.0168486Q3.32711 0 3.499 0L3.499 0Z" id="Rectangle-33-Copy" fill="#3C3C34" fill-rule="evenodd" stroke="none" />
    </g>
  </g>
</svg>