<?xml version="1.0" encoding="utf-8"?>
<svg width="17px" height="17px" viewBox="0 0 17 17" version="1.1" xmlns:xlink="http://www.w3.org/1999/xlink" xmlns="http://www.w3.org/2000/svg">
  <g id="Group-2-Copy-57" transform="translate(0.2857132 0.2857666)">
    <path d="M7.94007 16C12.3252 16 15.8801 12.4183 15.8801 8C15.8801 3.58172 12.3252 0 7.94007 0C3.55489 0 0 3.58172 0 8C0 12.4183 3.55489 16 7.94007 16Z" id="Oval-5-Copy-2" fill="#00F3AB" fill-rule="evenodd" stroke="none" />
    <path d="M6.50387 5.4245L7.60428 0.0600913L6.36386 0L5.46418 5.19198C5.48249 5.20245 5.49198 5.20837 5.49198 5.20837C5.49198 5.20837 6.03286 5.39595 6.50387 5.4245ZM6.32645 6.28942C5.87571 6.23713 5.49198 6.08742 5.49198 6.08742C5.49198 6.08742 5.45297 6.07635 5.38213 6.05918L5.36993 6.6706L5.15961 6.00983C4.93756 5.96467 4.62023 5.91152 4.25724 5.88481L4.82219 7.69168L6.0388 7.69168L6.32645 6.28942ZM3.91692 4.77082L3.73199 4.08855L3.55128 4.77826C3.25142 4.80071 2.98441 4.86062 2.76427 4.92884L3.44232 2.60975L4.09012 2.60975L4.81632 4.92159C4.56754 4.84634 4.2613 4.78268 3.91692 4.77082ZM2.4597 6.00679C2.65593 5.96733 2.92299 5.92245 3.22851 5.89458L2.69445 7.69168L1.51997 7.69168L1.2457 6.30375C1.7345 6.27587 2.1123 6.08742 2.1123 6.08742C2.1123 6.08742 2.15949 6.07403 2.24435 6.05386L2.27838 6.6706L2.4597 6.00679ZM2.18416 5.1676L1.07862 0L0 0L1.07251 5.42734C1.09063 5.42786 1.10866 5.42813 1.12656 5.42813C1.63755 5.42813 2.1123 5.20837 2.1123 5.20837C2.1123 5.20837 2.13719 5.19283 2.18416 5.1676Z" transform="translate(4.2352943 3.5294118)" id="Combined-Shape-Copy" fill="#23292F" fill-rule="evenodd" stroke="none" />
  </g>
</svg>