<?xml version="1.0" encoding="utf-8"?>
<svg width="3px" height="6px" viewBox="0 0 3 6" version="1.1" xmlns:xlink="http://www.w3.org/1999/xlink" xmlns="http://www.w3.org/2000/svg">
  <path d="M0.035982 2.56955Q0.0132737 2.52928 0.00459913 2.48387Q-0.00407542 2.43847 0.00219047 2.39266Q0.00845637 2.34686 0.0290078 2.30545Q0.0495592 2.26404 0.0822482 2.23135L0.0836624 2.22994Q0.166325 2.14728 0.283226 2.14728Q0.351563 2.14728 0.41233 2.17854L2.50862 0.082248Q2.52827 0.0625926 2.55139 0.0471495Q2.5745 0.0317064 2.60018 0.021069Q2.62586 0.0104317 2.65312 0.00500876Q2.68039 -0.000414134 2.70818 -0.000414134Q2.73598 -0.000414134 2.76324 0.00500876Q2.7905 0.0104317 2.81619 0.021069Q2.84187 0.0317064 2.86498 0.0471495Q2.88809 0.0625926 2.90775 0.082248L2.90916 0.083662Q2.92882 0.103317 2.94426 0.12643Q2.9597 0.149542 2.97034 0.175223Q2.98098 0.200904 2.9864 0.228166Q2.99182 0.255429 2.99182 0.283226Q2.99182 0.311023 2.9864 0.338286Q2.98098 0.365548 2.97034 0.391229Q2.9597 0.41691 2.94426 0.440022Q2.92882 0.463135 2.90916 0.48279L0.822401 2.56955L2.90916 4.65631Q2.92882 4.67597 2.94426 4.69908Q2.9597 4.72219 2.97034 4.74787Q2.98098 4.77355 2.9864 4.80081Q2.99182 4.82808 2.99182 4.85587Q2.99182 4.88367 2.9864 4.91093Q2.98098 4.9382 2.97034 4.96388Q2.9597 4.98956 2.94426 5.01267Q2.92882 5.03578 2.90916 5.05544L2.90775 5.05685Q2.88809 5.07651 2.86498 5.09195Q2.84187 5.10739 2.81619 5.11803Q2.7905 5.12867 2.76324 5.13409Q2.73598 5.13951 2.70818 5.13951Q2.68039 5.13951 2.65312 5.13409Q2.62586 5.12867 2.60018 5.11803Q2.5745 5.10739 2.55139 5.09195Q2.52827 5.07651 2.50862 5.05685L0.41233 2.96056Q0.372456 2.98108 0.328188 2.98822Q0.28392 2.99536 0.239618 2.98843Q0.195316 2.98151 0.155343 2.96119Q0.115369 2.94087 0.0836621 2.90916L0.0822479 2.90775Q0.049559 2.87506 0.0290075 2.83365Q0.0084561 2.79224 0.00219023 2.74644Q-0.00407563 2.70063 0.00459899 2.65523Q0.0132736 2.60982 0.035982 2.56955Z" transform="matrix(-1 8.742278E-08 -8.742278E-08 -1 2.9914093 5.13916)" id="Combined-Shape-Copy-2" fill="#FFFFFF" fill-rule="evenodd" stroke="none" />
</svg>