<?xml version="1.0" encoding="utf-8"?>
<svg width="17px" height="17px" viewBox="0 0 17 17" version="1.1" xmlns:xlink="http://www.w3.org/1999/xlink" xmlns="http://www.w3.org/2000/svg">
  <g id="Group-8-Copy" transform="translate(0.42871094 0.4284668)">
    <path d="M8 16C12.4183 16 16 12.4183 16 8C16 3.58172 12.4183 0 8 0C3.58172 0 0 3.58172 0 8C0 12.4183 3.58172 16 8 16Z" id="Oval" fill="#23292F" fill-rule="evenodd" stroke="none" />
    <path d="M0 1.82091L2.64769 -5.68434e-14L2.64769 0.715641L0.482428 2.1509L2.64769 3.59013L2.64769 4.30577L0 2.48089L0 1.82091ZM4.48854 2C4.62697 2 4.7491 2.04071 4.84681 2.13842C4.93638 2.22799 4.98523 2.34198 4.98523 2.4804C4.98523 2.62697 4.93638 2.74096 4.84681 2.83053C4.7491 2.92009 4.62697 2.96895 4.48854 2.96895C4.35012 2.96895 4.23613 2.92009 4.13842 2.83053C4.04071 2.73282 4 2.61882 4 2.4804C4 2.34198 4.04071 2.22799 4.13842 2.13842C4.23613 2.04071 4.35012 2 4.48854 2ZM6.48854 2C6.62697 2 6.74096 2.04071 6.83867 2.13842C6.93638 2.22799 6.98523 2.34198 6.98523 2.4804C6.98523 2.62697 6.93638 2.74096 6.83867 2.83053C6.74096 2.92009 6.62697 2.96895 6.48854 2.96895C6.35012 2.96895 6.23613 2.92009 6.13842 2.83053C6.04071 2.73282 6 2.61882 6 2.4804C6 2.34198 6.04071 2.22799 6.13842 2.13842C6.23613 2.04071 6.35012 2 6.48854 2ZM10.6477 2.48884L8 4.30577L8 3.59013L10.163 2.1509L8 0.715641L8 -5.68434e-14L10.6477 1.82091L10.6477 2.48884Z" transform="translate(3 6)" id="…" fill="#FFFFFF" fill-rule="evenodd" stroke="none" />
  </g>
</svg>