<?xml version="1.0" encoding="utf-8"?>
<svg width="94px" height="40px" viewBox="0 0 94 40" version="1.1" xmlns:xlink="http://www.w3.org/1999/xlink" xmlns="http://www.w3.org/2000/svg">
  <g id="Group-7-Copy-6">
    <path d="M2.999 2.5L44 2.5L47 0L49.5 2.5L91.001 2.5Q91.1483 2.5 91.2949 2.51444Q91.4416 2.52888 91.5861 2.55762Q91.7306 2.58637 91.8716 2.62914Q92.0126 2.6719 92.1487 2.72829Q92.2848 2.78467 92.4147 2.85412Q92.5446 2.92357 92.6671 3.00542Q92.7896 3.08728 92.9035 3.18074Q93.0174 3.27421 93.1216 3.37839Q93.2258 3.48257 93.3193 3.59645Q93.4127 3.71034 93.4946 3.83284Q93.5764 3.95535 93.6459 4.08528Q93.7153 4.21522 93.7717 4.35133Q93.8281 4.48745 93.8709 4.62844Q93.9136 4.76942 93.9424 4.91392Q93.9711 5.05842 93.9856 5.20505Q94 5.35167 94 5.499L94 35.8399Q94 35.9872 93.9856 36.1338Q93.9711 36.2804 93.9424 36.4249Q93.9136 36.5694 93.8709 36.7104Q93.8281 36.8514 93.7717 36.9875Q93.7153 37.1236 93.6459 37.2536Q93.5764 37.3835 93.4946 37.506Q93.4127 37.6285 93.3193 37.7424Q93.2258 37.8563 93.1216 37.9605Q93.0174 38.0647 92.9035 38.1581Q92.7896 38.2516 92.6671 38.3334Q92.5446 38.4153 92.4147 38.4847Q92.2848 38.5542 92.1487 38.6106Q92.0126 38.667 91.8716 38.7097Q91.7306 38.7525 91.5861 38.7812Q91.4416 38.81 91.295 38.8244Q91.1483 38.8389 91.001 38.8389L2.999 38.8389Q2.85167 38.8389 2.70505 38.8244Q2.55842 38.81 2.41392 38.7812Q2.26942 38.7525 2.12844 38.7097Q1.98745 38.667 1.85133 38.6106Q1.71522 38.5542 1.58528 38.4847Q1.45535 38.4153 1.33284 38.3334Q1.21034 38.2516 1.09645 38.1581Q0.982566 38.0647 0.878387 37.9605Q0.774208 37.8563 0.680742 37.7424Q0.587276 37.6285 0.505423 37.506Q0.42357 37.3835 0.354118 37.2536Q0.284667 37.1236 0.228285 36.9875Q0.171904 36.8514 0.129136 36.7104Q0.0863679 36.5694 0.0576249 36.4249Q0.028882 36.2804 0.014441 36.1338Q4.44089e-16 35.9872 4.44089e-16 35.8399L4.44089e-16 5.499Q4.44089e-16 5.35167 0.014441 5.20505Q0.028882 5.05842 0.0576249 4.91392Q0.0863679 4.76942 0.129136 4.62844Q0.171904 4.48745 0.228285 4.35133Q0.284667 4.21522 0.354118 4.08528Q0.42357 3.95535 0.505423 3.83284Q0.587276 3.71034 0.680742 3.59645Q0.774208 3.48257 0.878387 3.37839Q0.982566 3.27421 1.09645 3.18074Q1.21034 3.08728 1.33284 3.00542Q1.45535 2.92357 1.58528 2.85412Q1.71522 2.78467 1.85133 2.72829Q1.98745 2.6719 2.12844 2.62914Q2.26942 2.58637 2.41392 2.55762Q2.55842 2.52888 2.70505 2.51444Q2.85167 2.5 2.999 2.5L2.999 2.5Z" transform="translate(0 0.5)" id="Rectangle-30" fill="#FF6565" fill-rule="evenodd" stroke="none" />
    <g id="Wrong-Network" transform="translate(23 7)">
      <g id="Wrong-" fill="#FFFFFF">
        <path d="M6.55471 11.8636L4.16834 3.13636L5.24221 3.13636L7.06607 10.2443L7.1513 10.2443L9.00925 3.13636L10.2024 3.13636L12.0604 10.2443L12.1456 10.2443L13.9695 3.13636L15.0433 3.13636L12.657 11.8636L11.5661 11.8636L9.63994 4.90909L9.57175 4.90909L7.64562 11.8636L6.55471 11.8636ZM16.3481 11.8636L16.3481 5.31818L17.3196 5.31818L17.3196 6.30682L17.3878 6.30682Q17.5668 5.82102 18.0356 5.51847Q18.5043 5.21591 19.0924 5.21591Q19.2032 5.21591 19.3694 5.22017Q19.5356 5.22443 19.6208 5.23295L19.6208 6.25568Q19.5696 6.2429 19.3885 6.2152Q19.2074 6.1875 19.0071 6.1875Q18.2912 6.1875 17.8225 6.62216Q17.3537 7.05682 17.3537 7.72159L17.3537 11.8636L16.3481 11.8636ZM22.0484 11.5781Q22.7153 12 23.6016 12Q24.488 12 25.1549 11.5781Q25.8218 11.1563 26.1947 10.3977Q26.5675 9.6392 26.5675 8.625Q26.5675 7.60227 26.1947 6.83949Q25.8218 6.0767 25.1549 5.65483Q24.488 5.23295 23.6016 5.23295Q22.7153 5.23295 22.0484 5.65483Q21.3815 6.0767 21.0086 6.83949Q20.6357 7.60227 20.6357 8.625Q20.6357 9.6392 21.0086 10.3977Q21.3815 11.1563 22.0484 11.5781ZM29.2359 7.92614L29.2359 11.8636L28.2302 11.8636L28.2302 5.31818L29.2018 5.31818L29.2018 6.34091L29.287 6.34091Q29.5171 5.84233 29.9859 5.53764Q30.4546 5.23295 31.1961 5.23295Q32.189 5.23295 32.8005 5.84233Q33.412 6.4517 33.412 7.70455L33.412 11.8636L32.4063 11.8636L32.4063 7.77273Q32.4063 7.00142 32.0058 6.56889Q31.6052 6.13636 30.9063 6.13636Q30.1862 6.13636 29.711 6.60298Q29.2359 7.0696 29.2359 7.92614ZM36.2913 14.0561Q36.9284 14.4545 38.0235 14.4545Q38.8076 14.4545 39.449 14.2053Q40.0903 13.956 40.4717 13.4254Q40.8531 12.8949 40.8531 12.0511L40.8531 5.31818L39.8815 5.31818L39.8815 6.35795L39.7792 6.35795Q39.6684 6.1875 39.466 5.92116Q39.2636 5.65483 38.8865 5.44389Q38.5093 5.23295 37.8701 5.23295Q37.0434 5.23295 36.4127 5.64418Q35.7821 6.0554 35.4284 6.80327Q35.0747 7.55114 35.0747 8.55682Q35.0747 9.57955 35.439 10.2955Q35.8034 11.0114 36.4319 11.3864Q37.0605 11.7614 37.8531 11.7614Q38.4923 11.7614 38.8694 11.5589Q39.2466 11.3565 39.449 11.0945Q39.6514 10.8324 39.7622 10.6534L39.8474 10.6534L39.8474 11.983Q39.8474 12.8011 39.3318 13.1847Q38.8162 13.5682 38.0235 13.5682Q37.4312 13.5682 37.0669 13.3956Q36.7025 13.223 36.4937 12.9908Q36.2849 12.7585 36.1485 12.5795L35.3474 13.142Q35.6542 13.6577 36.2913 14.0561ZM24.7096 10.7514Q24.2749 11.0966 23.6016 11.0966Q22.9283 11.0966 22.4937 10.7514Q22.059 10.4063 21.8502 9.84375Q21.6414 9.28125 21.6414 8.625Q21.6414 7.96875 21.8502 7.40199Q22.059 6.83523 22.4937 6.4858Q22.9283 6.13636 23.6016 6.13636Q24.2749 6.13636 24.7096 6.4858Q25.1442 6.83523 25.353 7.40199Q25.5619 7.96875 25.5619 8.625Q25.5619 9.28125 25.353 9.84375Q25.1442 10.4063 24.7096 10.7514ZM39.3808 10.2422Q38.8971 10.858 37.9894 10.858Q37.0434 10.858 36.5619 10.2102Q36.0804 9.5625 36.0804 8.53977Q36.0804 7.875 36.2913 7.32955Q36.5022 6.78409 36.9262 6.46023Q37.3502 6.13636 37.9894 6.13636Q38.9099 6.13636 39.3872 6.80753Q39.8644 7.47869 39.8644 8.53977Q39.8644 9.62642 39.3808 10.2422Z" />
      </g>
      <g id="Network" fill="#FFFFFF">
        <path d="M7.97727 18.1364L7.97727 26.8636L6.95455 26.8636L2.19886 20.0114L2.11364 20.0114L2.11364 26.8636L1.05682 26.8636L1.05682 18.1364L2.07955 18.1364L6.85227 25.0057L6.9375 25.0057L6.9375 18.1364L7.97727 18.1364ZM43.4532 18.1364L43.4532 26.8636L44.4589 26.8636L44.4589 24.4134L45.1621 23.7614L47.6123 26.8636L48.8907 26.8636L45.9206 23.1136L48.6862 20.3182L47.4419 20.3182L44.5782 23.233L44.4589 23.233L44.4589 18.1364L43.4532 18.1364ZM20.0469 21.1705L20.0469 20.3182L18.6492 20.3182L18.6492 18.75L17.6435 18.75L17.6435 20.3182L16.6549 20.3182L16.6549 21.1705L17.6435 21.1705L17.6435 25.2614Q17.6435 25.8324 17.9098 26.2074Q18.1762 26.5824 18.5831 26.7656Q18.9901 26.9489 19.4162 26.9489Q19.6975 26.9489 19.8807 26.9084Q20.064 26.8679 20.1662 26.8295L19.9617 25.9261Q19.8978 25.9389 19.7912 25.9581Q19.6847 25.9773 19.5185 25.9773Q19.2969 25.9773 19.0988 25.907Q18.9006 25.8366 18.7749 25.6257Q18.6492 25.4148 18.6492 24.9886L18.6492 21.1705L20.0469 21.1705ZM38.8588 26.8636L38.8588 20.3182L39.8304 20.3182L39.8304 21.3068L39.8985 21.3068Q40.0775 20.821 40.5463 20.5185Q41.015 20.2159 41.6031 20.2159Q41.7139 20.2159 41.8801 20.2202Q42.0463 20.2244 42.1315 20.233L42.1315 21.2557Q42.0804 21.2429 41.8993 21.2152Q41.7181 21.1875 41.5179 21.1875Q40.8019 21.1875 40.3332 21.6222Q39.8644 22.0568 39.8644 22.7216L39.8644 26.8636L38.8588 26.8636ZM12.8274 27Q11.8814 27 11.1975 26.5803Q10.5135 26.1605 10.1449 25.4041Q9.7763 24.6477 9.7763 23.642Q9.7763 22.6364 10.1449 21.8672Q10.5135 21.098 11.1762 20.6655Q11.8388 20.233 12.7252 20.233Q13.2365 20.233 13.7351 20.4034Q14.2337 20.5739 14.6428 20.9553Q15.0519 21.3366 15.2948 21.9631Q15.5377 22.5895 15.5377 23.5057L15.5377 23.9318L10.7862 23.9318Q10.8203 24.9801 11.3807 25.5384Q11.9411 26.0966 12.8274 26.0966Q13.4198 26.0966 13.8459 25.8409Q14.272 25.5852 14.4638 25.0739L15.4354 25.3466Q15.2053 26.0881 14.5149 26.544Q13.8246 27 12.8274 27ZM32.6769 26.5781Q33.3438 27 34.2302 27Q35.1166 27 35.7835 26.5781Q36.4504 26.1563 36.8232 25.3977Q37.1961 24.6392 37.1961 23.625Q37.1961 22.6023 36.8232 21.8395Q36.4504 21.0767 35.7835 20.6548Q35.1166 20.233 34.2302 20.233Q33.3438 20.233 32.6769 20.6548Q32.01 21.0767 31.6372 21.8395Q31.2643 22.6023 31.2643 23.625Q31.2643 24.6392 31.6372 25.3977Q32.01 26.1563 32.6769 26.5781ZM23.1755 26.8636L21.1812 20.3182L22.238 20.3182L23.6528 25.3295L23.7209 25.3295L25.1187 20.3182L26.1925 20.3182L27.5732 25.3125L27.6414 25.3125L29.0562 20.3182L30.113 20.3182L28.1187 26.8636L27.13 26.8636L25.6982 21.8352L25.5959 21.8352L24.1641 26.8636L23.1755 26.8636ZM10.7862 23.0625L14.5149 23.0625Q14.5149 22.2315 14.0291 21.6839Q13.5433 21.1364 12.7252 21.1364Q12.1499 21.1364 11.728 21.4048Q11.3061 21.6733 11.0632 22.1143Q10.8203 22.5554 10.7862 23.0625ZM35.3382 25.7514Q34.9035 26.0966 34.2302 26.0966Q33.5569 26.0966 33.1222 25.7514Q32.6876 25.4063 32.4788 24.8438Q32.27 24.2813 32.27 23.625Q32.27 22.9688 32.4788 22.402Q32.6876 21.8352 33.1222 21.4858Q33.5569 21.1364 34.2302 21.1364Q34.9035 21.1364 35.3382 21.4858Q35.7728 21.8352 35.9816 22.402Q36.1904 22.9688 36.1904 23.625Q36.1904 24.2813 35.9816 24.8438Q35.7728 25.4063 35.3382 25.7514Z" />
      </g>
    </g>
  </g>
</svg>