<?xml version="1.0" encoding="UTF-8"?>
<svg width="40px" height="23px" viewBox="0 0 40 23" version="1.1" xmlns="http://www.w3.org/2000/svg" xmlns:xlink="http://www.w3.org/1999/xlink">
    <!-- Generator: Sketch 48.1 (47250) - http://www.bohemiancoding.com/sketch -->
    <title>Group 13</title>
    <desc>Created with Sketch.</desc>
    <defs>
        <path d="M2.24822089,9.46972477 C3.9315152,7.70921513 7.09217877,7.30492868 9.58767043,6.16697248 C12.2769448,4.94065043 14.3437587,3.04770642 17.2940925,3.04770642 C22.9821658,3.04770642 33.9913402,-0.071559633 37.8445512,6.16697248 C40.4133585,10.3259939 39.3124411,14.3626911 34.5417989,18.2770642 C31.8248127,18.8341159 29.806464,19.3845746 28.486753,19.9284404 C26.0206491,20.9447457 23.8816124,23.2311927 20.9638172,23.2311927 C13.073909,23.2311927 8.85372548,25.4330275 4.08308328,22.4972477 C-0.687558924,19.5614679 -1.24908077,13.1274531 2.24822089,9.46972477 Z" id="path-1"></path>
    </defs>
    <g id="Stafi-Product-1-Copy-36" stroke="none" stroke-width="1" fill="none" fill-rule="evenodd" transform="translate(-470.000000, -341.000000)">
        <g id="Group-13" transform="translate(470.000000, 339.000000)">
            <g id="Rectangle-38">
                <use fill="#FFFFFF" fill-rule="evenodd" xlink:href="#path-1"></use>
                <path stroke="#979797" stroke-width="0.5" d="M34.4308105,18.0446421 C39.0714838,14.2163955 40.1200704,10.3268903 37.6318517,6.2983457 C35.7624632,3.27171673 32.1612658,2.28581227 26.5193314,2.56322173 C25.3283967,2.62177904 24.2038306,2.7194499 22.3885217,2.90648173 C19.1983098,3.23517024 18.4687209,3.29770642 17.2940925,3.29770642 C15.8381546,3.29770642 14.6058373,3.72600899 12.8302832,4.70440135 C12.5530768,4.8571518 12.275749,5.01451618 11.7121976,5.33581037 C10.8576729,5.82068605 10.3016948,6.11613979 9.69139621,6.39443888 C9.02033366,6.70044663 8.36382326,6.93837712 7.21292322,7.31484373 C7.0481715,7.36866504 7.0481715,7.36866504 6.88380664,7.42226698 C4.36255755,8.24484439 3.30462544,8.72661461 2.42891578,9.64249444 C-1.06104213,13.2925422 -0.295563954,19.5091506 4.21410763,22.2843331 C4.8108261,22.6515445 5.40791942,22.942303 6.01707931,23.1653363 C8.19199005,23.9616423 9.51827621,23.9444589 14.7127254,23.3789912 C17.2405098,23.1038166 18.944415,22.9811927 20.9638172,22.9811927 C22.4698112,22.9811927 23.5706006,22.501799 25.7877889,21.1287176 C26.0061124,20.9934328 26.1100095,20.9291524 26.2248735,20.8585424 C27.1412755,20.2952057 27.7450088,19.9637232 28.3914974,19.6972989 C29.7187341,19.1503318 31.7303381,18.6003376 34.4308105,18.0446421 Z"></path>
            </g>
            <path d="M0.183486239,14.5614679 C2.34298534,17.2276682 4.23900981,18.6955581 5.87155963,18.9651376 C12.6874237,20.0906268 19.5168124,18.2770642 20.9638172,18.2770642 C24.5297561,18.2770642 32.584321,14.7479304 36.3302752,11.4422018 C38.5595391,9.47492181 36.9110489,5.07800227 38.3486239,7.40550459 C40.9174312,11.564526 39.6484895,15.1883792 34.5417989,18.2770642 C31.8248127,18.8341159 29.806464,19.3845746 28.486753,19.9284404 C26.0206491,20.9447457 23.8816124,23.2311927 20.9638172,23.2311927 C13.073909,23.2311927 8.85372548,25.4330275 4.08308328,22.4972477 C0.902655144,20.5400612 -0.397210536,17.8948012 0.183486239,14.5614679 Z" id="Rectangle-38-Copy" fill="#00F3AB"></path>
            <text id="APR" transform="translate(19.575056, 10.832454) rotate(-11.000000) translate(-19.575056, -10.832454) " font-family="Helvetica" font-size="12.4770642" font-weight="normal" letter-spacing="0.133682764" fill="#00F3AB">
                <tspan x="6.54715925" y="15.8324536">APR</tspan>
            </text>
        </g>
    </g>
</svg>