<?xml version="1.0" encoding="UTF-8"?>
<svg width="37px" height="36px" viewBox="0 0 37 36" version="1.1" xmlns="http://www.w3.org/2000/svg" xmlns:xlink="http://www.w3.org/1999/xlink">
    <!-- Generator: Sketch 48.1 (47250) - http://www.bohemiancoding.com/sketch -->
    <title>Group 2 Copy</title>
    <desc>Created with Sketch.</desc>
    <defs></defs>
    <g id="Stafi-Product-1-Copy-6" stroke="none" stroke-width="1" fill="none" fill-rule="evenodd" transform="translate(-483.000000, -295.000000)">
        <g id="Group" transform="translate(462.000000, 287.000000)">
            <g id="Group-2-Copy" transform="translate(21.000000, 8.000000)">
                <ellipse id="Oval-5-Copy-2" fill="#00F3AB" cx="18.4124059" cy="17.5621622" rx="18.4124059" ry="17.5621622"></ellipse>
                <g id="Group-25" transform="translate(9.275694, 4.390541)" fill="#23292F">
                    <polygon id="Rectangle-14" points="8.50271991 0 17.0054398 14.3555651 8.50271991 19.5911241 0 14.5244541"></polygon>
                    <polygon id="Rectangle-14-Copy" points="8.8428287 0 8.8428287 10.977785 8.8428287 19.5911241 0 14.5244541"></polygon>
                    <polygon id="Rectangle-18" points="8.50271991 11.3754914 17.0054398 14.6933431 8.50271991 19.5911241 0 14.851336"></polygon>
                    <polygon id="Rectangle-18-Copy" points="8.8428287 11.3754914 8.8428287 14.6933431 8.8428287 19.5911241 0 14.851336"></polygon>
                    <polygon id="Rectangle-28" points="0 15.7992936 8.50271991 20.8024033 17.0054398 15.7992936 8.50271991 27.8067568"></polygon>
                    <polygon id="Rectangle-28-Copy" points="0 15.7992936 8.8428287 20.8024033 8.8428287 27.8067568"></polygon>
                </g>
            </g>
        </g>
    </g>
</svg>