<?xml version="1.0" standalone="no"?><!DOCTYPE svg PUBLIC "-//W3C//DTD SVG 1.1//EN" "http://www.w3.org/Graphics/SVG/1.1/DTD/svg11.dtd"><svg t="1625681099345" class="icon" viewBox="0 0 1024 1024" version="1.1" xmlns="http://www.w3.org/2000/svg" p-id="2545" xmlns:xlink="http://www.w3.org/1999/xlink" width="128" height="128"><defs><style type="text/css"></style></defs><path d="M845.915136 682.667008H312.889344c-15.710208 0-28.444672 12.734464-28.444672 28.443648 0 15.710208 12.734464 28.444672 28.444672 28.444672h529.011712l-87.376896 87.376896c-11.108352 11.108352-11.108352 29.11744 0 40.225792 11.108352 11.108352 29.118464 11.108352 40.226816 0l133.91872-133.91872c13.329408-13.329408 13.329408-34.940928 0-48.27136l-136.192-136.192c-11.109376-11.108352-29.119488-11.108352-40.22784 0-11.108352 11.108352-11.108352 29.118464 0 40.225792l93.66528 93.66528zM178.084864 227.555328h533.025792c15.710208 0 28.444672 12.735488 28.444672 28.444672s-12.734464 28.444672-28.444672 28.444672H182.098944l87.376896 87.375872c11.108352 11.108352 11.108352 29.118464 0 40.226816-11.108352 11.108352-29.118464 11.108352-40.226816 0L95.330304 278.12864c-13.329408-13.329408-13.329408-34.941952 0-48.27136l136.192-136.192c11.109376-11.109376 29.119488-11.109376 40.22784 0 11.108352 11.107328 11.108352 29.11744 0 40.225792l-93.66528 93.66528z" fill="#00F3AB" p-id="2546"></path></svg>