<?xml version="1.0" encoding="utf-8"?>
<svg width="17px" height="11px" viewBox="0 0 17 11" version="1.1" xmlns:xlink="http://www.w3.org/1999/xlink" xmlns="http://www.w3.org/2000/svg">
  <g id="Group-5-Copy-4" transform="translate(0.5 0.5)">
    <path d="M1.88811 0.875014L8.07795 7.06486Q8.14113 7.12804 8.19077 7.20234Q8.24041 7.27663 8.27461 7.35918Q8.3088 7.44173 8.32623 7.52936Q8.34366 7.617 8.34367 7.70635Q8.34366 7.7957 8.32623 7.88334Q8.3088 7.97097 8.27461 8.05352Q8.24041 8.13607 8.19077 8.21037Q8.14113 8.28466 8.07795 8.34784L8.07654 8.34925Q8.01336 8.41243 7.93906 8.46208Q7.86477 8.51172 7.78222 8.54591Q7.69967 8.5801 7.61203 8.59753Q7.5244 8.61497 7.43505 8.61497Q7.3457 8.61497 7.25806 8.59753Q7.17043 8.5801 7.08788 8.54591Q7.00533 8.51172 6.93103 8.46208Q6.85674 8.41243 6.79356 8.34925L0.603713 2.15941Q0.540532 2.09622 0.490891 2.02193Q0.44125 1.94764 0.407056 1.86509Q0.372863 1.78254 0.355431 1.6949Q0.338 1.60727 0.338 1.51792Q0.338 1.42857 0.355431 1.34093Q0.372863 1.2533 0.407057 1.17075Q0.44125 1.0882 0.490891 1.0139Q0.540532 0.939609 0.603713 0.876428L0.605128 0.875014Q0.668309 0.811833 0.742602 0.762192Q0.816895 0.712551 0.899445 0.678357Q0.981995 0.644164 1.06963 0.626732Q1.15726 0.609301 1.24662 0.609301Q1.33597 0.609301 1.4236 0.626733Q1.51124 0.644164 1.59379 0.678358Q1.67634 0.712551 1.75063 0.762192Q1.82492 0.811833 1.88811 0.875014L1.88811 0.875014Z" transform="matrix(1 0 0 -1 6.7210226 9.856897)" id="Rectangle-3" fill="#A4A4A4" fill-rule="evenodd" stroke="none" />
    <path d="M0.603713 7.06486L6.79356 0.875015Q6.85674 0.811834 6.93103 0.762193Q7.00533 0.712551 7.08788 0.678358Q7.17043 0.644165 7.25806 0.626733Q7.3457 0.609302 7.43505 0.609302Q7.5244 0.609302 7.61203 0.626733Q7.69967 0.644165 7.78222 0.678358Q7.86477 0.712552 7.93906 0.762193Q8.01336 0.811834 8.07654 0.875015L8.07795 0.876429Q8.14113 0.93961 8.19077 1.0139Q8.24042 1.0882 8.27461 1.17075Q8.3088 1.2533 8.32623 1.34093Q8.34366 1.42857 8.34367 1.51792Q8.34366 1.60727 8.32623 1.6949Q8.3088 1.78254 8.27461 1.86509Q8.24042 1.94764 8.19077 2.02193Q8.14113 2.09623 8.07795 2.15941L1.8881 8.34925Q1.82492 8.41243 1.75063 8.46208Q1.67634 8.51172 1.59379 8.54591Q1.51124 8.5801 1.4236 8.59754Q1.33597 8.61497 1.24662 8.61497Q1.15726 8.61497 1.06963 8.59754Q0.981994 8.5801 0.899444 8.54591Q0.816894 8.51172 0.742601 8.46208Q0.668308 8.41243 0.605127 8.34925L0.603713 8.34784Q0.540532 8.28466 0.49089 8.21036Q0.441249 8.13607 0.407056 8.05352Q0.372863 7.97097 0.355431 7.88334Q0.337999 7.7957 0.337999 7.70635Q0.337999 7.617 0.355431 7.52936Q0.372863 7.44173 0.407056 7.35918Q0.441249 7.27663 0.490891 7.20234Q0.540532 7.12804 0.603713 7.06486Z" transform="matrix(1 0 0 -1 0.23927383 9.970039)" id="Rectangle-3-Copy-2" fill="#A4A4A4" fill-rule="evenodd" stroke="none" />
  </g>
</svg>