<?xml version="1.0" encoding="utf-8"?>
<svg width="12px" height="12px" viewBox="0 0 12 12" version="1.1" xmlns:xlink="http://www.w3.org/1999/xlink" xmlns="http://www.w3.org/2000/svg">
  <g id="Group">
    <path d="M1.199 0L13.201 0Q13.2599 0 13.3185 0.00577351Q13.3771 0.011547 13.4349 0.0230384Q13.4927 0.0345299 13.5491 0.0516285Q13.6054 0.0687272 13.6598 0.0912684Q13.7143 0.11381 13.7662 0.141576Q13.8182 0.169343 13.8671 0.202068Q13.9161 0.234793 13.9616 0.27216Q14.0072 0.309528 14.0488 0.351179Q14.0905 0.39283 14.1278 0.438362Q14.1652 0.483895 14.1979 0.532871Q14.2307 0.581847 14.2584 0.633795Q14.2862 0.685743 14.3087 0.740162Q14.3313 0.794582 14.3484 0.850949Q14.3655 0.907315 14.377 0.965087Q14.3885 1.02286 14.3942 1.08148Q14.4 1.1401 14.4 1.199L14.4 1.201Q14.4 1.2599 14.3942 1.31852Q14.3885 1.37714 14.377 1.43491Q14.3655 1.49268 14.3484 1.54905Q14.3313 1.60542 14.3087 1.65984Q14.2862 1.71426 14.2584 1.7662Q14.2307 1.81815 14.1979 1.86713Q14.1652 1.9161 14.1278 1.96164Q14.0905 2.00717 14.0488 2.04882Q14.0072 2.09047 13.9616 2.12784Q13.9161 2.16521 13.8671 2.19793Q13.8182 2.23066 13.7662 2.25842Q13.7143 2.28619 13.6598 2.30873Q13.6054 2.33127 13.5491 2.34837Q13.4927 2.36547 13.4349 2.37696Q13.3771 2.38845 13.3185 2.39423Q13.2599 2.4 13.201 2.4L1.199 2.4Q1.1401 2.4 1.08148 2.39423Q1.02286 2.38845 0.965087 2.37696Q0.907315 2.36547 0.850949 2.34837Q0.794582 2.33127 0.740162 2.30873Q0.685743 2.28619 0.633795 2.25842Q0.581847 2.23066 0.532871 2.19793Q0.483895 2.16521 0.438362 2.12784Q0.39283 2.09047 0.351179 2.04882Q0.309528 2.00717 0.27216 1.96164Q0.234793 1.9161 0.202068 1.86713Q0.169343 1.81815 0.141576 1.7662Q0.11381 1.71426 0.0912684 1.65984Q0.0687272 1.60542 0.0516285 1.54905Q0.0345299 1.49268 0.0230384 1.43491Q0.011547 1.37714 0.00577351 1.31852Q0 1.2599 0 1.201L0 1.199Q0 1.1401 0.00577351 1.08148Q0.011547 1.02286 0.0230384 0.965087Q0.0345299 0.907315 0.0516285 0.850949Q0.0687272 0.794582 0.0912684 0.740162Q0.11381 0.685743 0.141576 0.633795Q0.169343 0.581847 0.202068 0.532871Q0.234793 0.483895 0.27216 0.438362Q0.309528 0.39283 0.351179 0.351179Q0.39283 0.309528 0.438362 0.27216Q0.483895 0.234793 0.532871 0.202068Q0.581847 0.169343 0.633795 0.141576Q0.685743 0.11381 0.740162 0.0912684Q0.794582 0.0687272 0.850949 0.0516285Q0.907315 0.0345299 0.965087 0.0230384Q1.02286 0.011547 1.08148 0.00577351Q1.1401 0 1.199 0L1.199 0Z" transform="matrix(0.70710665 0.7071069 -0.7071069 0.70710665 1.7573605 0.060302734)" id="Rectangle-3" fill="#22243D" fill-rule="evenodd" stroke="none" />
    <path d="M1.199 0L13.201 0Q13.2599 0 13.3185 0.00577351Q13.3771 0.011547 13.4349 0.0230384Q13.4927 0.0345299 13.5491 0.0516285Q13.6054 0.0687272 13.6598 0.0912684Q13.7143 0.11381 13.7662 0.141576Q13.8182 0.169343 13.8671 0.202068Q13.9161 0.234793 13.9616 0.27216Q14.0072 0.309528 14.0488 0.351179Q14.0905 0.39283 14.1278 0.438362Q14.1652 0.483895 14.1979 0.532871Q14.2307 0.581847 14.2584 0.633795Q14.2862 0.685743 14.3087 0.740162Q14.3313 0.794582 14.3484 0.850949Q14.3655 0.907315 14.377 0.965087Q14.3885 1.02286 14.3942 1.08148Q14.4 1.1401 14.4 1.199L14.4 1.201Q14.4 1.2599 14.3942 1.31852Q14.3885 1.37714 14.377 1.43491Q14.3655 1.49268 14.3484 1.54905Q14.3313 1.60542 14.3087 1.65984Q14.2862 1.71426 14.2584 1.7662Q14.2307 1.81815 14.1979 1.86713Q14.1652 1.9161 14.1278 1.96164Q14.0905 2.00717 14.0488 2.04882Q14.0072 2.09047 13.9616 2.12784Q13.9161 2.16521 13.8671 2.19793Q13.8182 2.23066 13.7662 2.25842Q13.7143 2.28619 13.6598 2.30873Q13.6054 2.33127 13.5491 2.34837Q13.4927 2.36547 13.4349 2.37696Q13.3771 2.38845 13.3185 2.39423Q13.2599 2.4 13.201 2.4L1.199 2.4Q1.1401 2.4 1.08148 2.39423Q1.02286 2.38845 0.965087 2.37696Q0.907315 2.36547 0.850949 2.34837Q0.794582 2.33127 0.740162 2.30873Q0.685743 2.28619 0.633795 2.25842Q0.581847 2.23066 0.532871 2.19793Q0.483895 2.16521 0.438362 2.12784Q0.39283 2.09047 0.351179 2.04882Q0.309528 2.00717 0.27216 1.96164Q0.234793 1.9161 0.202068 1.86713Q0.169343 1.81815 0.141576 1.7662Q0.11381 1.71426 0.0912684 1.65984Q0.0687272 1.60542 0.0516285 1.54905Q0.0345299 1.49268 0.0230384 1.43491Q0.011547 1.37714 0.00577351 1.31852Q0 1.2599 0 1.201L0 1.199Q0 1.1401 0.00577351 1.08148Q0.011547 1.02286 0.0230384 0.965087Q0.0345299 0.907315 0.0516285 0.850949Q0.0687272 0.794582 0.0912684 0.740162Q0.11381 0.685743 0.141576 0.633795Q0.169343 0.581847 0.202068 0.532871Q0.234793 0.483895 0.27216 0.438362Q0.309528 0.39283 0.351179 0.351179Q0.39283 0.309528 0.438362 0.27216Q0.483895 0.234793 0.532871 0.202068Q0.581847 0.169343 0.633795 0.141576Q0.685743 0.11381 0.740162 0.0912684Q0.794582 0.0687272 0.850949 0.0516285Q0.907315 0.0345299 0.965087 0.0230384Q1.02286 0.011547 1.08148 0.00577351Q1.1401 0 1.199 0L1.199 0Z" transform="matrix(0.70710677 -0.70710677 0.70710677 0.70710677 0.060302973 10.2426405)" id="Rectangle-3-Copy-2" fill="#22243D" fill-rule="evenodd" stroke="none" />
  </g>
</svg>