<?xml version="1.0" encoding="UTF-8"?>
<svg width="45px" height="39px" viewBox="0 0 45 39" version="1.1" xmlns="http://www.w3.org/2000/svg" xmlns:xlink="http://www.w3.org/1999/xlink">
    <!-- Generator: Sketch 61.2 (89653) - https://sketch.com -->
    <title>Group 9 Copy</title>
    <desc>Created with Sketch.</desc>
    <g id="Page-1" stroke="none" stroke-width="1" fill="none" fill-rule="evenodd">
        <g id="Group-9-Copy">
            <path d="M9.68181818,11.5541307 C10.8030303,10.4313203 11.8332091,9.6768178 12.7723546,9.29062324 L38.9820652,6.10915981 C41.4990722,5.80930389 43.1313131,6.12721361 43.8787879,7.06288898 C44.6262626,7.99856435 45,9.49564493 45,11.5541307 L45,27.0783455 C44.6516592,28.6220299 44.2779218,29.7163166 43.8787879,30.3612056 C43.4796539,31.0060946 42.8628535,31.5122403 42.0283865,31.8796429 L10.9243964,38.9588087 C10.2387839,39.0817927 9.63772249,38.9293835 9.12121212,38.5015813 C8.60470175,38.073779 8.23096438,37.4188063 8,36.536663 L8,16.0453725 C8,14.1740218 8.56060606,12.6769412 9.68181818,11.5541307 Z" id="Rectangle-20-Copy" fill="#9BFFE1" opacity="0.518908514"></path>
            <path d="M1.68181818,5.55413074 C2.8030303,4.4313203 3.8332091,3.6768178 4.77235456,3.29062324 L30.9820652,0.109159809 C33.4990722,-0.190696111 35.1313131,0.127213613 35.8787879,1.06288898 C36.6262626,1.99856435 37,3.49564493 37,5.55413074 L37,21.0783455 C36.6516592,22.6220299 36.2779218,23.7163166 35.8787879,24.3612056 C35.4796539,25.0060946 34.8628535,25.5122403 34.0283865,25.8796429 L2.92439641,32.9588087 C2.23878392,33.0817927 1.63772249,32.9293835 1.12121212,32.5015813 C0.604701751,32.073779 0.230964377,31.4188063 0,30.536663 L0,10.0453725 C0,8.17402177 0.560606061,6.67694118 1.68181818,5.55413074 Z" id="Rectangle-20" fill="#00F3AB"></path>
            <path d="M20.4704562,20.1157556 L25.3955417,20.1157556 L25.1363267,20.7819936 L21.6534193,20.7819936 L21.3140833,21.6540193 L24.3633946,21.6540193 L24.1088926,22.3125402 L21.0595812,22.3125402 L20.4421782,23.9022508 L19,23.9022508 L20.4704562,20.1157556 Z M26.3284465,23.9022508 L24.8862683,23.9022508 L26.3614375,20.1106109 L27.8036157,20.1106109 L26.3284465,23.9022508 Z M29.2879415,22.7318328 C29.2659474,22.9050384 29.3020801,23.0345119 29.3963405,23.1202572 C29.5722934,23.2763137 29.9461877,23.3543408 30.5180347,23.3543408 C30.8605144,23.3543408 31.1464336,23.3337623 31.3758008,23.2926045 C31.812541,23.2137188 32.0717534,23.0670965 32.1534459,22.8527331 C32.2037181,22.7275449 32.1408787,22.6306541 31.9649258,22.5620579 C31.7921149,22.4951765 31.4999118,22.4360131 31.0883077,22.3845659 L30.3860707,22.2945338 C29.6979691,22.2053586 29.2360997,22.1084678 29.0004485,22.0038585 C28.6014125,21.828938 28.4741627,21.5554145 28.6186955,21.1832797 C28.7506601,20.8437282 29.0868508,20.5616303 29.6272776,20.3369775 C30.1677043,20.1123247 30.8762183,20 31.7528408,20 C32.4849305,20 33.0677658,20.1058939 33.501364,20.3176849 C33.9349622,20.5294759 34.0857767,20.8368683 33.9538121,21.2398714 L32.5587639,21.2398714 C32.6247462,21.0117888 32.5069224,20.8497325 32.2052889,20.7536977 C32.0041998,20.6902462 31.7355615,20.6585209 31.3993658,20.6585209 C31.0254659,20.6585209 30.7104835,20.699678 30.4544092,20.7819936 C30.1983349,20.8643091 30.0420219,20.9792061 29.9854656,21.1266881 C29.9320513,21.2621657 30.0027456,21.3633437 30.1975506,21.4302251 C30.3200893,21.4748127 30.6012955,21.5271165 31.0411777,21.5871383 L32.1770109,21.7440514 C32.6734494,21.8126477 33.0332048,21.9043939 33.256288,22.0192926 C33.6019097,22.1976429 33.7087367,22.4557325 33.576772,22.7935691 C33.4416653,23.1399803 33.0866228,23.4276516 32.5116339,23.6565916 C31.936645,23.8855317 31.2061372,24 30.3200886,24 C29.415188,24 28.7475196,23.8872466 28.3170634,23.6617363 C27.8866072,23.4362261 27.7483606,23.1262614 27.9023194,22.7318328 L29.2879415,22.7318328 Z" id="FIS" fill="#2B3239" transform="translate(26.500000, 22.000000) scale(-1, -1) rotate(-191.000000) translate(-26.500000, -22.000000) "></path>
        </g>
    </g>
</svg>