<?xml version="1.0" encoding="utf-8"?>
<svg width="95px" height="95px" viewBox="0 0 95 95" version="1.1" xmlns:xlink="http://www.w3.org/1999/xlink" xmlns="http://www.w3.org/2000/svg">
  <g id="Group-7">
    <g id="binance-coin-bnb-logo">
      <path d="M29.0502 39.9198L47.5 21.47L65.9585 39.9277L76.6935 29.1927L47.5 0L18.316 29.184L29.0506 39.919L29.0502 39.9198ZM0 47.5L10.7354 36.7631L21.47 47.4977L10.7346 58.2331L0 47.5ZM29.0502 55.0814L47.5 73.53L65.9581 55.0726L76.6988 65.8019L76.6935 65.8076L47.5 95L18.316 65.816L18.3008 65.8008L29.0514 55.0802L29.0502 55.0814ZM73.53 47.5046L84.2654 36.7692L95 47.5038L84.265 58.2392L73.53 47.5046Z" id="Shape" fill="#575B60" stroke="none" />
      <path d="M22.1251 11.0622L22.1297 11.0622L11.0682 0L2.89198 8.17372L2.89198 8.17372L1.95268 9.11338L0.0154362 11.051L0 11.066L0.0154362 11.0819L11.0682 22.1359L22.1305 11.0737L22.1359 11.0676L22.1259 11.0622" transform="translate(35.970875 35.970875)" id="Shape" fill="#575B60" fill-rule="evenodd" stroke="none" />
    </g>
    <path d="M0 1.71634L40 1.9603e-12L25.0726 15L0 14.6287L0 1.71634Z" transform="matrix(0.70710677 -0.70710677 0.70710677 0.70710677 19 29.284271)" id="Rectangle-11" fill="#4B4F54" fill-rule="evenodd" stroke="none" />
    <path d="M0 1.71634L40 1.9603e-12L25.0726 15L0 14.6287L0 1.71634Z" transform="matrix(0.7071067 0.7071068 0.7071068 -0.7071067 18 66.6066)" id="Rectangle-11-Copy-3" fill="#4B4F54" fill-rule="evenodd" stroke="none" />
    <path d="M0 0L12 0L12 13L0 13L0 0Z" transform="matrix(0.70710677 -0.70710677 0.70710677 0.70710677 1.0000005 48.485283)" id="Rectangle-11-Copy" fill="#4B4F54" fill-rule="evenodd" stroke="none" />
    <path d="M0 0L12 0L5.70455 6.79729L0 13L0 0Z" transform="matrix(0.70710677 -0.70710677 0.70710677 0.70710677 38.000004 47.485283)" id="Rectangle-11-Copy-2" fill="#4B4F54" fill-rule="evenodd" stroke="none" />
  </g>
</svg>