<?xml version="1.0" encoding="utf-8"?>
<svg width="95px" height="74px" viewBox="0 0 95 74" version="1.1" xmlns:xlink="http://www.w3.org/1999/xlink" xmlns="http://www.w3.org/2000/svg">
  <defs>
    <linearGradient x1="1" y1="0" x2="0" y2="1" id="gradient_1">
      <stop offset="0" stop-color="#00F7A7" />
      <stop offset="0.566267" stop-color="#48B1C4" />
      <stop offset="1" stop-color="#7882D8" />
    </linearGradient>
    <path d="M16.072 -7.10543e-15L93.395 -5.87791e-15Q93.4485 -5.87706e-15 93.5018 0.00393663Q93.5552 0.00787325 93.6081 0.0157252Q93.661 0.0235771 93.7132 0.0353017Q93.7654 0.0470263 93.8166 0.0625601Q93.8678 0.0780939 93.9177 0.0973525Q93.9676 0.116611 94.016 0.13949Q94.0644 0.16237 94.1109 0.188745Q94.1574 0.215121 94.2019 0.24485Q94.2464 0.274579 94.2886 0.307501Q94.3307 0.340422 94.3704 0.376357Q94.41 0.412292 94.4469 0.451046Q94.4838 0.489801 94.5177 0.531164Q94.5516 0.572527 94.5824 0.616274Q94.6132 0.660022 94.6407 0.705917Q94.6682 0.751812 94.6923 0.799605Q94.7163 0.847398 94.7368 0.896831Q94.7572 0.946264 94.774 0.997068Q94.7908 1.04787 94.8037 1.09977Q94.8167 1.15167 94.8259 1.20439Q94.835 1.2571 94.8402 1.31035Q94.8454 1.36359 94.8467 1.41707Q94.848 1.47056 94.8454 1.52399Q94.8427 1.57743 94.8361 1.63052Q94.8296 1.68361 94.8191 1.73608Q94.8086 1.78855 94.7943 1.8401Q94.7801 1.89166 94.762 1.94202Q94.744 1.99238 94.7223 2.04128Q94.7006 2.09018 94.6753 2.13735Q94.6501 2.18452 94.6214 2.2297Q94.5928 2.27489 94.5609 2.31784Q94.529 2.36079 94.494 2.40128Q94.4591 2.44178 94.4212 2.47958L78.4612 18.4209L1.4575 18.4209Q1.40423 18.4209 1.3511 18.417Q1.29798 18.4131 1.24528 18.4053Q1.19258 18.3976 1.1406 18.3859Q1.08861 18.3743 1.03762 18.3589Q0.986622 18.3435 0.936893 18.3244Q0.887164 18.3053 0.838968 18.2826Q0.790772 18.2599 0.744368 18.2338Q0.697965 18.2076 0.653602 18.1781Q0.60924 18.1486 0.567157 18.116Q0.525074 18.0833 0.485498 18.0477Q0.445921 18.012 0.409064 17.9735Q0.372206 17.9351 0.338265 17.894Q0.304324 17.853 0.273483 17.8095Q0.242642 17.7661 0.215066 17.7205Q0.187489 17.6749 0.163327 17.6275Q0.139164 17.58 0.118544 17.5309Q0.097925 17.4818 0.0809598 17.4313Q0.0639945 17.3808 0.0507746 17.3292Q0.0375546 17.2776 0.0281511 17.2251Q0.0187475 17.1727 0.013211 17.1197Q0.00767438 17.0667 0.00603451 17.0135Q0.00439464 16.9602 0.00666029 16.907Q0.00892595 16.8538 0.015085 16.8009Q0.021244 16.748 0.0312632 16.6957Q0.0412824 16.6433 0.0551081 16.5919Q0.0689337 16.5404 0.0864914 16.4902Q0.104049 16.4399 0.125244 16.391Q0.14644 16.3421 0.171159 16.2949Q0.195878 16.2477 0.223988 16.2025Q0.252098 16.1572 0.283448 16.1142Q0.314798 16.0711 0.349219 16.0305Q0.38364 15.9898 0.420947 15.9518L16.072 -7.10543e-15Z" id="path_1" />
    <path d="M16.1055 -2.16716e-13L51.388 -1.54126e-13Q51.4408 -1.54032e-13 51.4934 0.003827Q51.546 0.007654 51.5982 0.0152878Q51.6504 0.0229217 51.7019 0.0343221Q51.7534 0.0457225 51.8039 0.0608294Q51.8544 0.0759363 51.9038 0.0946701Q51.9531 0.113404 52.0009 0.135666Q52.0487 0.157928 52.0948 0.183601Q52.1409 0.209273 52.185 0.238221Q52.229 0.26717 52.2709 0.299241Q52.3128 0.331312 52.3522 0.366337Q52.3917 0.401362 52.4285 0.439156Q52.4653 0.47695 52.4992 0.517315Q52.5332 0.557679 52.5641 0.600401Q52.5951 0.643122 52.6228 0.687976Q52.6506 0.732829 52.675 0.779579Q52.6994 0.826328 52.7204 0.874727Q52.7414 0.923126 52.7588 0.972919Q52.7762 1.02271 52.79 1.07364Q52.8037 1.12456 52.8137 1.17635Q52.8237 1.22814 52.83 1.28052Q52.8362 1.33289 52.8386 1.38559Q52.8411 1.43828 52.8396 1.49101Q52.8382 1.54374 52.833 1.59623Q52.8278 1.64871 52.8187 1.70068Q52.8097 1.75265 52.7969 1.80383Q52.7842 1.85501 52.7677 1.90513Q52.7513 1.95524 52.7312 2.00403Q52.7112 2.05282 52.6876 2.10003Q52.6641 2.14724 52.6372 2.19261Q52.6103 2.23799 52.5802 2.28129Q52.5501 2.3246 52.5169 2.3656Q52.4837 2.40661 52.4476 2.4451L37.4772 18.4209L1.45405 18.4209Q1.40075 18.4209 1.3476 18.417Q1.29445 18.4131 1.24172 18.4053Q1.189 18.3975 1.13699 18.3859Q1.08498 18.3743 1.03396 18.3589Q0.982941 18.3434 0.933191 18.3243Q0.883441 18.3052 0.835226 18.2825Q0.78701 18.2598 0.74059 18.2336Q0.694169 18.2074 0.649793 18.1779Q0.605417 18.1484 0.563324 18.1157Q0.521231 18.083 0.481648 18.0473Q0.442064 18.0116 0.405204 17.9731Q0.368343 17.9346 0.334403 17.8935Q0.300464 17.8524 0.269628 17.809Q0.238792 17.7655 0.211225 17.7199Q0.183659 17.6743 0.15951 17.6268Q0.135362 17.5792 0.114761 17.5301Q0.0941601 17.4809 0.0772179 17.4304Q0.0602758 17.3799 0.0470835 17.3282Q0.0338912 17.2766 0.0245198 17.2241Q0.0151483 17.1717 0.00964804 17.1187Q0.0041478 17.0656 0.0025484 17.0124Q0.000948994 16.9591 0.00325903 16.9058Q0.00556907 16.8526 0.0117761 16.7997Q0.0179832 16.7467 0.0280538 16.6944Q0.0381245 16.6421 0.0520046 16.5906Q0.0658847 16.5391 0.0834995 16.4888Q0.101114 16.4385 0.122369 16.3897Q0.143624 16.3408 0.168404 16.2936Q0.193185 16.2464 0.221357 16.2012Q0.24953 16.1559 0.280943 16.1129Q0.312356 16.0698 0.346841 16.0292Q0.381326 15.9886 0.418697 15.9506L16.1055 -2.16716e-13Z" transform="translate(1.9 0)" id="path_2" />
    <path d="M16.1055 -2.16716e-13L51.388 -1.54126e-13Q51.4408 -1.54032e-13 51.4934 0.003827Q51.546 0.007654 51.5982 0.0152878Q51.6504 0.0229217 51.7019 0.0343221Q51.7534 0.0457225 51.8039 0.0608294Q51.8544 0.0759363 51.9038 0.0946701Q51.9531 0.113404 52.0009 0.135666Q52.0487 0.157928 52.0948 0.183601Q52.1409 0.209273 52.185 0.238221Q52.229 0.26717 52.2709 0.299241Q52.3128 0.331312 52.3522 0.366337Q52.3917 0.401362 52.4285 0.439156Q52.4653 0.47695 52.4992 0.517315Q52.5332 0.557679 52.5641 0.600401Q52.5951 0.643122 52.6228 0.687976Q52.6506 0.732829 52.675 0.779579Q52.6994 0.826328 52.7204 0.874727Q52.7414 0.923126 52.7588 0.972919Q52.7762 1.02271 52.79 1.07364Q52.8037 1.12456 52.8137 1.17635Q52.8237 1.22814 52.83 1.28052Q52.8362 1.33289 52.8386 1.38559Q52.8411 1.43828 52.8396 1.49101Q52.8382 1.54374 52.833 1.59623Q52.8278 1.64871 52.8187 1.70068Q52.8097 1.75265 52.7969 1.80383Q52.7842 1.85501 52.7677 1.90513Q52.7513 1.95524 52.7312 2.00403Q52.7112 2.05282 52.6876 2.10003Q52.6641 2.14724 52.6372 2.19261Q52.6103 2.23799 52.5802 2.28129Q52.5501 2.3246 52.5169 2.3656Q52.4837 2.40661 52.4476 2.4451L37.4772 18.4209L1.45405 18.4209Q1.40075 18.4209 1.3476 18.417Q1.29445 18.4131 1.24172 18.4053Q1.189 18.3975 1.13699 18.3859Q1.08498 18.3743 1.03396 18.3589Q0.982941 18.3434 0.933191 18.3243Q0.883441 18.3052 0.835226 18.2825Q0.78701 18.2598 0.74059 18.2336Q0.694169 18.2074 0.649793 18.1779Q0.605417 18.1484 0.563324 18.1157Q0.521231 18.083 0.481648 18.0473Q0.442064 18.0116 0.405204 17.9731Q0.368343 17.9346 0.334403 17.8935Q0.300464 17.8524 0.269628 17.809Q0.238792 17.7655 0.211225 17.7199Q0.183659 17.6743 0.15951 17.6268Q0.135362 17.5792 0.114761 17.5301Q0.0941601 17.4809 0.0772179 17.4304Q0.0602758 17.3799 0.0470835 17.3282Q0.0338912 17.2766 0.0245198 17.2241Q0.0151483 17.1717 0.00964804 17.1187Q0.0041478 17.0656 0.0025484 17.0124Q0.000948994 16.9591 0.00325903 16.9058Q0.00556907 16.8526 0.0117761 16.7997Q0.0179832 16.7467 0.0280538 16.6944Q0.0381245 16.6421 0.0520046 16.5906Q0.0658847 16.5391 0.0834995 16.4888Q0.101114 16.4385 0.122369 16.3897Q0.143624 16.3408 0.168404 16.2936Q0.193185 16.2464 0.221357 16.2012Q0.24953 16.1559 0.280943 16.1129Q0.312356 16.0698 0.346841 16.0292Q0.381326 15.9886 0.418697 15.9506L16.1055 -2.16716e-13Z" transform="translate(1.9 55.34188)" id="path_3" />
    <path d="M16.1055 -2.16716e-13L51.388 -1.54126e-13Q51.4408 -1.54032e-13 51.4934 0.003827Q51.546 0.007654 51.5982 0.0152878Q51.6504 0.0229217 51.7019 0.0343221Q51.7534 0.0457225 51.8039 0.0608294Q51.8544 0.0759363 51.9038 0.0946701Q51.9531 0.113404 52.0009 0.135666Q52.0487 0.157928 52.0948 0.183601Q52.1409 0.209273 52.185 0.238221Q52.229 0.26717 52.2709 0.299241Q52.3128 0.331312 52.3522 0.366337Q52.3917 0.401362 52.4285 0.439156Q52.4653 0.47695 52.4992 0.517315Q52.5332 0.557679 52.5641 0.600401Q52.5951 0.643122 52.6228 0.687976Q52.6506 0.732829 52.675 0.779579Q52.6994 0.826328 52.7204 0.874727Q52.7414 0.923126 52.7588 0.972919Q52.7762 1.02271 52.79 1.07364Q52.8037 1.12456 52.8137 1.17635Q52.8237 1.22814 52.83 1.28052Q52.8362 1.33289 52.8386 1.38559Q52.8411 1.43828 52.8396 1.49101Q52.8382 1.54374 52.833 1.59623Q52.8278 1.64871 52.8187 1.70068Q52.8097 1.75265 52.7969 1.80383Q52.7842 1.85501 52.7677 1.90513Q52.7513 1.95524 52.7312 2.00403Q52.7112 2.05282 52.6876 2.10003Q52.6641 2.14724 52.6372 2.19261Q52.6103 2.23799 52.5802 2.28129Q52.5501 2.3246 52.5169 2.3656Q52.4837 2.40661 52.4476 2.4451L37.4772 18.4209L1.45405 18.4209Q1.40075 18.4209 1.3476 18.417Q1.29445 18.4131 1.24172 18.4053Q1.189 18.3975 1.13699 18.3859Q1.08498 18.3743 1.03396 18.3589Q0.982941 18.3434 0.933191 18.3243Q0.883441 18.3052 0.835226 18.2825Q0.78701 18.2598 0.74059 18.2336Q0.694169 18.2074 0.649793 18.1779Q0.605417 18.1484 0.563324 18.1157Q0.521231 18.083 0.481648 18.0473Q0.442064 18.0116 0.405204 17.9731Q0.368343 17.9346 0.334403 17.8935Q0.300464 17.8524 0.269628 17.809Q0.238792 17.7655 0.211225 17.7199Q0.183659 17.6743 0.15951 17.6268Q0.135362 17.5792 0.114761 17.5301Q0.0941601 17.4809 0.0772179 17.4304Q0.0602758 17.3799 0.0470835 17.3282Q0.0338912 17.2766 0.0245198 17.2241Q0.0151483 17.1717 0.00964804 17.1187Q0.0041478 17.0656 0.0025484 17.0124Q0.000948994 16.9591 0.00325903 16.9058Q0.00556907 16.8526 0.0117761 16.7997Q0.0179832 16.7467 0.0280538 16.6944Q0.0381245 16.6421 0.0520046 16.5906Q0.0658847 16.5391 0.0834995 16.4888Q0.101114 16.4385 0.122369 16.3897Q0.143624 16.3408 0.168404 16.2936Q0.193185 16.2464 0.221357 16.2012Q0.24953 16.1559 0.280943 16.1129Q0.312356 16.0698 0.346841 16.0292Q0.381326 15.9886 0.418697 15.9506L16.1055 -2.16716e-13Z" transform="matrix(1 0 0 -1 1.9 46.25)" id="path_4" />
  </defs>
  <g id="Group-130-Copy" opacity="0.4801857">
    <g id="Rectangle-88">
      <use stroke="none" fill="url(#gradient_1)" xlink:href="#path_1" fill-rule="evenodd" />
      <use stroke="none" fill="#254846" xlink:href="#path_1" fill-rule="evenodd" />
    </g>
    <path d="M16.072 -7.10543e-15L93.395 -5.87791e-15Q93.4485 -5.87706e-15 93.5018 0.00393663Q93.5552 0.00787325 93.6081 0.0157252Q93.661 0.0235771 93.7132 0.0353017Q93.7654 0.0470263 93.8166 0.0625601Q93.8678 0.0780939 93.9177 0.0973525Q93.9676 0.116611 94.016 0.13949Q94.0644 0.16237 94.1109 0.188745Q94.1574 0.215121 94.2019 0.24485Q94.2464 0.274579 94.2886 0.307501Q94.3307 0.340422 94.3704 0.376357Q94.41 0.412292 94.4469 0.451046Q94.4838 0.489801 94.5177 0.531164Q94.5516 0.572527 94.5824 0.616274Q94.6132 0.660022 94.6407 0.705917Q94.6682 0.751812 94.6923 0.799605Q94.7163 0.847398 94.7368 0.896831Q94.7572 0.946264 94.774 0.997068Q94.7908 1.04787 94.8037 1.09977Q94.8167 1.15167 94.8259 1.20439Q94.835 1.2571 94.8402 1.31035Q94.8454 1.36359 94.8467 1.41707Q94.848 1.47056 94.8454 1.52399Q94.8427 1.57743 94.8361 1.63052Q94.8296 1.68361 94.8191 1.73608Q94.8086 1.78855 94.7943 1.8401Q94.7801 1.89166 94.762 1.94202Q94.744 1.99238 94.7223 2.04128Q94.7006 2.09018 94.6753 2.13735Q94.6501 2.18452 94.6214 2.2297Q94.5928 2.27489 94.5609 2.31784Q94.529 2.36079 94.494 2.40128Q94.4591 2.44178 94.4212 2.47958L78.4612 18.4209L1.4575 18.4209Q1.40423 18.4209 1.3511 18.417Q1.29798 18.4131 1.24528 18.4053Q1.19258 18.3976 1.1406 18.3859Q1.08861 18.3743 1.03762 18.3589Q0.986622 18.3435 0.936893 18.3244Q0.887164 18.3053 0.838968 18.2826Q0.790772 18.2599 0.744368 18.2338Q0.697965 18.2076 0.653602 18.1781Q0.60924 18.1486 0.567157 18.116Q0.525074 18.0833 0.485498 18.0477Q0.445921 18.012 0.409064 17.9735Q0.372206 17.9351 0.338265 17.894Q0.304324 17.853 0.273483 17.8095Q0.242642 17.7661 0.215066 17.7205Q0.187489 17.6749 0.163327 17.6275Q0.139164 17.58 0.118544 17.5309Q0.097925 17.4818 0.0809598 17.4313Q0.0639945 17.3808 0.0507746 17.3292Q0.0375546 17.2776 0.0281511 17.2251Q0.0187475 17.1727 0.013211 17.1197Q0.00767438 17.0667 0.00603451 17.0135Q0.00439464 16.9602 0.00666029 16.907Q0.00892595 16.8538 0.015085 16.8009Q0.021244 16.748 0.0312632 16.6957Q0.0412824 16.6433 0.0551081 16.5919Q0.0689337 16.5404 0.0864914 16.4902Q0.104049 16.4399 0.125244 16.391Q0.14644 16.3421 0.171159 16.2949Q0.195878 16.2477 0.223988 16.2025Q0.252098 16.1572 0.283448 16.1142Q0.314798 16.0711 0.349219 16.0305Q0.38364 15.9898 0.420947 15.9518L16.072 -7.10543e-15Z" transform="translate(0.007235596 55.26282)" id="Rectangle-88-Copy" fill="#254846" fill-rule="evenodd" stroke="none" />
    <path d="M16.072 -7.10543e-15L93.395 -5.87791e-15Q93.4485 -5.87706e-15 93.5018 0.00393663Q93.5552 0.00787325 93.6081 0.0157252Q93.661 0.0235771 93.7132 0.0353017Q93.7654 0.0470263 93.8166 0.0625601Q93.8678 0.0780939 93.9177 0.0973525Q93.9676 0.116611 94.016 0.13949Q94.0644 0.16237 94.1109 0.188745Q94.1574 0.215121 94.2019 0.24485Q94.2464 0.274579 94.2886 0.307501Q94.3307 0.340422 94.3704 0.376357Q94.41 0.412292 94.4469 0.451046Q94.4838 0.489801 94.5177 0.531164Q94.5516 0.572527 94.5824 0.616274Q94.6132 0.660022 94.6407 0.705917Q94.6682 0.751812 94.6923 0.799605Q94.7163 0.847398 94.7368 0.896831Q94.7572 0.946264 94.774 0.997068Q94.7908 1.04787 94.8037 1.09977Q94.8167 1.15167 94.8259 1.20439Q94.835 1.2571 94.8402 1.31035Q94.8454 1.36359 94.8467 1.41707Q94.848 1.47056 94.8454 1.52399Q94.8427 1.57743 94.8361 1.63052Q94.8296 1.68361 94.8191 1.73608Q94.8086 1.78855 94.7943 1.8401Q94.7801 1.89166 94.762 1.94202Q94.744 1.99238 94.7223 2.04128Q94.7006 2.09018 94.6753 2.13735Q94.6501 2.18452 94.6214 2.2297Q94.5928 2.27489 94.5609 2.31784Q94.529 2.36079 94.494 2.40128Q94.4591 2.44178 94.4212 2.47958L78.4612 18.4209L1.4575 18.4209Q1.40423 18.4209 1.3511 18.417Q1.29798 18.4131 1.24528 18.4053Q1.19258 18.3976 1.1406 18.3859Q1.08861 18.3743 1.03762 18.3589Q0.986622 18.3435 0.936893 18.3244Q0.887164 18.3053 0.838968 18.2826Q0.790772 18.2599 0.744368 18.2338Q0.697965 18.2076 0.653602 18.1781Q0.60924 18.1486 0.567157 18.116Q0.525074 18.0833 0.485498 18.0477Q0.445921 18.012 0.409064 17.9735Q0.372206 17.9351 0.338265 17.894Q0.304324 17.853 0.273483 17.8095Q0.242642 17.7661 0.215066 17.7205Q0.187489 17.6749 0.163327 17.6275Q0.139164 17.58 0.118544 17.5309Q0.097925 17.4818 0.0809598 17.4313Q0.0639945 17.3808 0.0507746 17.3292Q0.0375546 17.2776 0.0281511 17.2251Q0.0187475 17.1727 0.013211 17.1197Q0.00767438 17.0667 0.00603451 17.0135Q0.00439464 16.9602 0.00666029 16.907Q0.00892595 16.8538 0.015085 16.8009Q0.021244 16.748 0.0312632 16.6957Q0.0412824 16.6433 0.0551081 16.5919Q0.0689337 16.5404 0.0864914 16.4902Q0.104049 16.4399 0.125244 16.391Q0.14644 16.3421 0.171159 16.2949Q0.195878 16.2477 0.223988 16.2025Q0.252098 16.1572 0.283448 16.1142Q0.314798 16.0711 0.349219 16.0305Q0.38364 15.9898 0.420947 15.9518L16.072 -7.10543e-15Z" transform="matrix(-1 0 0 1 94.852615 27.82906)" id="Rectangle-88-Copy-2" fill="#254846" fill-rule="evenodd" stroke="none" />
    <g id="Rectangle-88-Copy-3">
      <use stroke="none" fill="url(#gradient_1)" xlink:href="#path_2" fill-rule="evenodd" />
      <use stroke="none" fill="#1F5B52" xlink:href="#path_2" fill-rule="evenodd" />
    </g>
    <g id="Rectangle-88-Copy-5">
      <use stroke="none" fill="url(#gradient_1)" xlink:href="#path_3" fill-rule="evenodd" />
      <use stroke="none" fill="#1F5B52" xlink:href="#path_3" fill-rule="evenodd" />
    </g>
    <g id="Rectangle-88-Copy-4">
      <use stroke="none" fill="url(#gradient_1)" xlink:href="#path_4" fill-rule="evenodd" />
      <use stroke="none" fill="#1F5B52" xlink:href="#path_4" fill-rule="evenodd" />
    </g>
  </g>
</svg>