<?xml version="1.0" encoding="UTF-8"?>
<svg width="36px" height="36px" viewBox="0 0 36 36" version="1.1" xmlns="http://www.w3.org/2000/svg" xmlns:xlink="http://www.w3.org/1999/xlink">
    <!-- Generator: Sketch 48.1 (47250) - http://www.bohemiancoding.com/sketch -->
    <title>Group 5 Copy 32</title>
    <desc>Created with Sketch.</desc>
    <defs></defs>
    <g id="V2" stroke="none" stroke-width="1" fill="none" fill-rule="evenodd">
        <g id="Group-5-Copy-32">
            <ellipse id="Oval-5-Copy" fill="#FFFFFF" cx="17.8651479" cy="18" rx="17.8651479" ry="18"></ellipse>
            <g id="matic-logo-white" transform="translate(8.000000, 11.000000)">
                <polygon id="Shape" fill="#303741" points="7.6606545 6.65616 9.86899541 11.6866667 13.1559443 9.7392 13.1600446 9.7392 13.1600446 5.84437333"></polygon>
                <polygon id="Shape" fill="#23292F" points="17.3965692 2.9232 15.3499079 2.13034667 13.1579166 1.94741333 13.1579166 5.84224 13.1579166 14.04416 16.4468897 15.9915733 19.0461682 10.54256 17.4088184 5.2576"></polygon>
                <polygon id="Shape" fill="#303741" points="17.2123634 1.94949333 16.4489658 3.89477333 16.4489658 15.9999467 19.7379389 14.0525333 19.7379389 1.94949333"></polygon>
                <polygon id="Shape" fill="#23292F" points="16.4492253 0.00208 13.1602523 1.94949333 16.4492253 3.89690667 19.7382503 1.94949333"></polygon>
                <polygon id="Shape" fill="#23292F" points="9.87107155 7.78965333 6.58002232 4.00837333 0 1.94741333 0 14.0525333 3.28902499 16 4.23045182 9.30176 6.58002232 9.7392 6.58002232 9.73706667 9.87107155 11.6845333"></polygon>
                <polygon id="Shape" fill="#23292F" points="3.29104923 0 0 1.94741333 9.86904731 7.79178667 11.3610671 6.90853333 13.1600965 5.84437333"></polygon>
                <polygon id="Shape" fill="#303741" points="3.29110113 7.78970667 3.28902499 7.78970667 3.28902499 15.9978667 6.58007422 14.0504533 6.58007422 9.7392 6.58007422 9.73712"></polygon>
            </g>
            <path d="M6,12.81547 L6,7.21952479 C6.03515643,5.4064992 6.94920979,4.5 8.7421875,4.5 L11.3789062,4.5 L11.3789062,5.70286674 L9.32226562,5.70286674 C8.37304213,5.70286674 7.88085955,6.17354901 7.84570312,7.11492769 L7.84570312,12.81547 L6,12.81547 Z" id="r" fill="#00F3AB"></path>
        </g>
    </g>
</svg>