<?xml version="1.0" encoding="UTF-8"?>
<svg width="36px" height="36px" viewBox="0 0 36 36" version="1.1" xmlns="http://www.w3.org/2000/svg" xmlns:xlink="http://www.w3.org/1999/xlink">
    <!-- Generator: Sketch 48.1 (47250) - http://www.bohemiancoding.com/sketch -->
    <title>Group 2 Copy 49</title>
    <desc>Created with Sketch.</desc>
    <defs></defs>
    <g id="StaFi-rDOT-Copy-4" stroke="none" stroke-width="1" fill="none" fill-rule="evenodd" transform="translate(-425.000000, -299.000000)">
        <g id="Group-2-Copy-49" transform="translate(425.000000, 299.000000)">
            <ellipse id="Oval-5-Copy-2" fill="#FFFFFF" cx="17.8651479" cy="18" rx="17.8651479" ry="18"></ellipse>
            <path d="M24.1627807,20.1479769 C23.4867694,20.1145281 22.7279637,19.9518711 21.8863636,19.6600058 C21.8656817,19.6470954 21.8449188,19.6343114 21.8240749,19.6216538 L23.8481056,7.94117647 L26.6390374,8.07638185 L24.1627807,20.1479769 Z M23.7625746,22.0989564 L23.1167184,25.2474645 L20.3793489,25.2474645 L19.1060175,21.1750503 C19.8124608,21.2196983 20.4886332,21.3115868 21.1345348,21.4507158 L21.6117577,22.9500294 L21.6392681,21.5706554 C21.7221574,21.5922414 21.8045226,21.6146454 21.8863636,21.6378673 C22.5117673,21.8818671 23.1371709,22.0355635 23.7625746,22.0989564 Z M18.3421906,18.6744764 L17.9263815,17.1404234 L17.5210168,18.6876234 C16.8929878,18.7252375 16.3060471,18.8269738 15.7601948,18.9928322 L17.2746268,13.8131037 L18.7321872,13.8131037 L20.3541583,18.9766445 C19.7357247,18.7944241 19.0650688,18.6937014 18.3421906,18.6744764 Z M16.7964643,21.1942075 L15.5919149,25.2474645 L12.9493461,25.2474645 L12.3325632,22.1262868 C13.0444552,22.0938666 13.694296,21.9310601 14.2820856,21.6378673 C14.3802841,21.6100041 14.4792372,21.5833184 14.5789449,21.5578103 L14.6557582,22.9500294 L15.0672401,21.443585 C15.6214346,21.3257928 16.1978427,21.242667 16.7964643,21.1942075 Z M11.9426382,20.1531046 L9.52941176,7.94117647 L11.956309,7.94117647 L14.4426863,19.5632397 C14.3886208,19.5946649 14.3350872,19.6269203 14.2820856,19.6600058 C13.5699566,19.9896494 12.8306518,20.1544712 12.0641711,20.1544712 C12.0238769,20.1544712 11.983366,20.1540157 11.9426382,20.1531046 Z" id="Combined-Shape-Copy" fill="#23292F"></path>
            <path d="M6,12.8847656 L6,7.2421875 C6.03515643,5.41405336 6.94920979,4.5 8.7421875,4.5 L11.3789062,4.5 L11.3789062,5.71289062 L9.32226562,5.71289062 C8.37304213,5.71289062 7.88085955,6.18749525 7.84570312,7.13671875 L7.84570312,12.8847656 L6,12.8847656 Z" id="r" fill="#00F3AB"></path>
        </g>
    </g>
</svg>