<?xml version="1.0" encoding="UTF-8"?>
<svg width="23px" height="30px" viewBox="0 0 23 30" version="1.1" xmlns="http://www.w3.org/2000/svg" xmlns:xlink="http://www.w3.org/1999/xlink">
    <!-- Generator: Sketch 48.1 (47250) - http://www.bohemiancoding.com/sketch -->
    <title>Polkadot_symbol_color Copy 2</title>
    <desc>Created with Sketch.</desc>
    <defs></defs>
    <g id="Page-1" stroke="none" stroke-width="1" fill="none" fill-rule="evenodd">
        <g id="Polkadot_symbol_color-Copy-2" fill-rule="nonzero">
            <path d="M11.5,0.207920792 C5.20526316,0.207920792 0.0605263158,5.22772277 0.0605263158,11.4356436 C0.0605263158,12.6831683 0.272368421,13.9009901 0.665789474,15.0891089 C0.938157895,15.8910891 1.84605263,16.3366337 2.69342105,16.0693069 C3.51052632,15.8019802 3.96447368,14.9108911 3.69210526,14.0792079 C3.35921053,13.1584158 3.20789474,12.1782178 3.23815789,11.1980198 C3.35921053,7.00990099 6.80921053,3.56435644 11.0763158,3.35643564 C15.8276316,3.11881188 19.7618421,6.83168317 19.7618421,11.4356436 C19.7618421,15.7425743 16.3118421,19.2772277 11.9842105,19.5148515 C11.9842105,19.5148515 10.3802632,19.6039604 9.59342105,19.7227723 C9.2,19.7821782 8.89736842,19.8415842 8.68552632,19.8712871 C8.59473684,19.9009901 8.50394737,19.8118812 8.53421053,19.7227723 L8.80657895,18.4158416 L10.2894737,11.7029703 C10.4710526,10.8712871 9.92631579,10.039604 9.07894737,9.86138614 C8.23157895,9.68316832 7.38421053,10.2178218 7.20263158,11.049505 C7.20263158,11.049505 3.63157895,27.3861386 3.60131579,27.5643564 C3.41973684,28.3960396 3.96447368,29.2277228 4.81184211,29.4059406 C5.65921053,29.5841584 6.50657895,29.049505 6.68815789,28.2178218 C6.71842105,28.039604 7.20263158,25.8712871 7.20263158,25.8712871 C7.56578947,24.2079208 8.95789474,22.990099 10.5921053,22.7821782 C10.9552632,22.7227723 12.3776316,22.6336634 12.3776316,22.6336634 C18.2789474,22.1881188 22.9394737,17.3465347 22.9394737,11.4356436 C22.9394737,5.22772277 17.7947368,0.207920792 11.5,0.207920792 Z" id="Shape" fill="#FFFFFF"></path>
            <path d="M12.3171053,26.049505 C11.2881579,25.8415842 10.2592105,26.4653465 10.0473684,27.5049505 C9.83552632,28.5148515 10.4710526,29.5247525 11.5302632,29.7326733 C12.5592105,29.9405941 13.5881579,29.3168317 13.8,28.2772277 C14.0118421,27.2376238 13.3763158,26.2574257 12.3171053,26.049505 Z" id="Shape" fill="#E6007A"></path>
        </g>
    </g>
</svg>