<?xml version="1.0" encoding="UTF-8"?>
<svg width="18px" height="18px" viewBox="0 0 18 18" version="1.1" xmlns="http://www.w3.org/2000/svg" xmlns:xlink="http://www.w3.org/1999/xlink">
    <!-- Generator: Sketch 61.2 (89653) - https://sketch.com -->
    <title>Combined Shape Copy</title>
    <desc>Created with Sketch.</desc>
    <g id="Page-1" stroke="none" stroke-width="1" fill="none" fill-rule="evenodd">
        <g id="Stafi-Product-1-Copy-35" transform="translate(-481.000000, -428.000000)" fill="#00F7A7">
            <path d="M490.576877,441.233891 C491.28381,441.278583 491.960429,441.370581 492.606734,441.509887 L493.082346,443.008853 L493.109,441.631 L493.356952,441.696691 C493.982312,441.940674 494.607673,442.094366 495.233034,442.157767 L494.587307,445.306288 L491.849937,445.306288 Z M488.265587,441.25315 L487.062503,445.306288 L484.419934,445.306288 L483.803115,442.185112 C484.515021,442.152696 485.164874,441.989889 485.752674,441.696691 C485.850475,441.66894 485.949026,441.642358 486.048324,441.616943 L486.126346,443.008853 L486.536788,441.50263 C487.090849,441.384817 487.667115,441.301657 488.265587,441.25315 Z M483.426897,428 L485.913,439.623 L485.752674,439.718829 C485.129561,440.007267 484.485642,440.169514 483.820916,440.205569 L483.534759,440.213295 C483.494592,440.213295 483.454208,440.212842 483.41361,440.211937 L481,428 L483.426897,428 Z M495.318694,428 L498.109626,428.135205 L495.633923,440.206828 C494.957772,440.17344 494.198782,440.010774 493.356952,439.718829 C493.336559,439.706099 493.316088,439.693492 493.295537,439.681008 L495.318694,428 Z M490.202775,433.871927 L491.826265,439.035915 C491.134477,438.831904 490.377327,438.729899 489.554813,438.729899 L489.813,438.734 L489.39697,437.199247 L488.990557,438.74651 C488.361901,438.784236 487.774421,438.886221 487.228118,439.052466 L488.745215,433.871927 L490.202775,433.871927 Z" id="Combined-Shape-Copy"></path>
        </g>
    </g>
</svg>