<?xml version="1.0" encoding="utf-8"?>
<svg width="53px" height="27px" viewBox="0 0 53 27" version="1.1" xmlns:xlink="http://www.w3.org/1999/xlink" xmlns="http://www.w3.org/2000/svg">
  <g id="Group-4-Copy" transform="translate(0.25 0.25)">
    <g id="Group-2-Copy-49">
      <path d="M12.9026 26C20.0285 26 25.8052 20.1797 25.8052 13C25.8052 5.8203 20.0285 0 12.9026 0C5.77669 0 0 5.8203 0 13C0 20.1797 5.77669 26 12.9026 26Z" id="Oval-5-Copy-2" fill="#FFFFFF" fill-rule="evenodd" stroke="#525252" stroke-width="0.5" />
      <path d="M10.5688 8.81482L12.357 0.0976483L10.3413 0L8.87929 8.43697C8.90905 8.45398 8.92447 8.4636 8.92447 8.4636C8.92447 8.4636 9.8034 8.76841 10.5688 8.81482ZM10.2805 10.2203C9.54803 10.1353 8.92447 9.89205 8.92447 9.89205C8.92447 9.89205 8.86108 9.87407 8.74595 9.84617L8.72614 10.8397L8.38437 9.76597C8.02354 9.69258 7.50787 9.60622 6.91801 9.56282L7.83607 12.499L9.81305 12.499L10.2805 10.2203ZM6.36499 7.75259L6.06448 6.6439L5.77084 7.76468C5.28355 7.80116 4.84967 7.89851 4.49193 8.00937L5.59377 4.24084L6.64645 4.24084L7.82652 7.99758C7.42226 7.8753 6.92461 7.77186 6.36499 7.75259ZM3.99701 9.76103C4.31588 9.69691 4.74986 9.62397 5.24633 9.5787L4.37847 12.499L2.46995 12.499L2.02426 10.2436C2.81856 10.1983 3.43249 9.89205 3.43249 9.89205C3.43249 9.89205 3.50918 9.87029 3.64707 9.83752L3.70236 10.8397L3.99701 9.76103ZM3.54926 8.39735L1.75276 0L0 0L1.74283 8.81943C1.77228 8.82028 1.80157 8.82071 1.83066 8.82071C2.66101 8.82071 3.43249 8.4636 3.43249 8.4636C3.43249 8.4636 3.47293 8.43835 3.54926 8.39735Z" transform="translate(6.882353 5.7352943)" id="Combined-Shape-Copy" fill="#23292F" fill-rule="evenodd" stroke="none" />
      <path d="M0 6.05566L0 1.98047C0.0253908 0.66015 0.68554 0 1.98047 0L3.88477 0L3.88477 0.875977L2.39941 0.875977C1.71386 0.875977 1.3584 1.21875 1.33301 1.9043L1.33301 6.05566L0 6.05566Z" transform="translate(4.3333335 3.25)" id="r" fill="#00F3AB" fill-rule="evenodd" stroke="none" />
    </g>
    <g id="Group-2-Copy-49" transform="translate(26 0)">
      <path d="M12.9026 26C20.0285 26 25.8052 20.1797 25.8052 13C25.8052 5.8203 20.0285 0 12.9026 0C5.77669 0 0 5.8203 0 13C0 20.1797 5.77669 26 12.9026 26Z" id="Oval-5-Copy-2" fill="#FFFFFF" fill-rule="evenodd" stroke="#525252" stroke-width="0.5" />
      <path d="M10.5688 8.81482L12.357 0.0976483L10.3413 0L8.87929 8.43697C8.90905 8.45398 8.92447 8.4636 8.92447 8.4636C8.92447 8.4636 9.8034 8.76841 10.5688 8.81482ZM10.2805 10.2203C9.54803 10.1353 8.92447 9.89205 8.92447 9.89205C8.92447 9.89205 8.86108 9.87407 8.74595 9.84617L8.72614 10.8397L8.38437 9.76597C8.02354 9.69258 7.50787 9.60622 6.91801 9.56282L7.83607 12.499L9.81305 12.499L10.2805 10.2203ZM6.36499 7.75259L6.06448 6.6439L5.77084 7.76468C5.28355 7.80116 4.84967 7.89851 4.49193 8.00937L5.59377 4.24084L6.64645 4.24084L7.82652 7.99758C7.42226 7.8753 6.92461 7.77186 6.36499 7.75259ZM3.99701 9.76103C4.31588 9.69691 4.74986 9.62397 5.24633 9.5787L4.37847 12.499L2.46995 12.499L2.02426 10.2436C2.81856 10.1983 3.43249 9.89205 3.43249 9.89205C3.43249 9.89205 3.50918 9.87029 3.64707 9.83752L3.70236 10.8397L3.99701 9.76103ZM3.54926 8.39735L1.75276 0L0 0L1.74283 8.81943C1.77228 8.82028 1.80157 8.82071 1.83066 8.82071C2.66101 8.82071 3.43249 8.4636 3.43249 8.4636C3.43249 8.4636 3.47293 8.43835 3.54926 8.39735Z" transform="translate(6.882353 5.7352943)" id="Combined-Shape-Copy" fill="#23292F" fill-rule="evenodd" stroke="none" />
    </g>
  </g>
</svg>