<?xml version="1.0" encoding="UTF-8"?>
<svg width="54px" height="28px" viewBox="0 0 54 28" version="1.1" xmlns="http://www.w3.org/2000/svg" xmlns:xlink="http://www.w3.org/1999/xlink">
    <!-- Generator: Sketch 48.1 (47250) - http://www.bohemiancoding.com/sketch -->
    <title>Group 4</title>
    <desc>Created with Sketch.</desc>
    <defs></defs>
    <g id="V2" stroke="none" stroke-width="1" fill="none" fill-rule="evenodd">
        <g id="Group-4" transform="translate(1.000000, 1.000000)">
            <g id="Group-Copy-2" transform="translate(26.000000, 0.000000)">
                <g id="Group-2">
                    <ellipse id="Oval-5-Copy-2" stroke="#525252" stroke-width="0.548888889" fill="#FFFFFF" cx="12.9384474" cy="12.6837838" rx="12.9384474" ry="12.6837838"></ellipse>
                    <g id="Group-25" transform="translate(6.518056, 3.170946)" fill="#23292F">
                        <polygon id="Rectangle-14" points="5.97488426 0 11.9497685 10.3679081 5.97488426 14.1491452 0 10.4898835"></polygon>
                        <polygon id="Rectangle-14-Copy" points="6.21387963 0 6.21387963 7.92840031 6.21387963 14.1491452 0 10.4898835"></polygon>
                        <polygon id="Rectangle-18" points="5.97488426 8.21563268 11.9497685 10.6118589 5.97488426 14.1491452 0 10.7259649"></polygon>
                        <polygon id="Rectangle-18-Copy" points="6.21387963 8.21563268 6.21387963 10.6118589 6.21387963 14.1491452 0 10.7259649"></polygon>
                        <polygon id="Rectangle-28" points="0 11.4106009 5.97488426 15.0239579 11.9497685 11.4106009 5.97488426 20.0826577"></polygon>
                        <polygon id="Rectangle-28-Copy" points="0 11.4106009 6.21387963 15.0239579 6.21387963 20.0826577"></polygon>
                    </g>
                </g>
            </g>
            <g id="Group-5-Copy-35">
                <circle id="Oval-5-Copy" stroke="#525252" stroke-width="0.5" fill="#FFFFFF" cx="13" cy="13" r="13"></circle>
                <g id="Polkadot_symbol_color-Copy-2" transform="translate(7.800000, 6.066667)" fill-rule="nonzero">
                    <path d="M5.2,0 C2.33862434,0 0,2.30438637 0,5.15418963 C0,5.72687737 0.0962962963,6.28592968 0.275132275,6.83134658 C0.398941799,7.19950298 0.811640212,7.40403431 1.1968254,7.28131551 C1.56825397,7.15859671 1.77460317,6.74953404 1.65079365,6.36774222 C1.4994709,5.94504413 1.43068783,5.49507519 1.44444444,5.04510625 C1.4994709,3.12251171 3.06772487,1.54080272 5.00740741,1.44535476 C7.16719577,1.33627139 8.95555556,3.04069917 8.95555556,5.15418963 C8.95555556,7.13132587 7.38730159,8.75394112 5.42010582,8.8630245 C5.42010582,8.8630245 4.69100529,8.90393077 4.33333333,8.95847246 C4.15449735,8.9857433 4.01693122,9.01301415 3.92063492,9.02664957 C3.87936508,9.04028499 3.83809524,8.99937872 3.85185185,8.95847246 L3.97566138,8.35851387 L4.64973545,5.27690843 C4.73227513,4.89511661 4.48465608,4.51332478 4.0994709,4.43151225 C3.71428571,4.34969972 3.32910053,4.59513732 3.24656085,4.97692914 C3.24656085,4.97692914 1.62328042,12.4764114 1.60952381,12.5582239 C1.52698413,12.9400158 1.77460317,13.3218076 2.15978836,13.4036201 C2.54497354,13.4854327 2.93015873,13.2399951 3.01269841,12.8582032 C3.02645503,12.7763907 3.24656085,11.7810049 3.24656085,11.7810049 C3.41164021,11.0174212 4.04444444,10.4583689 4.78730159,10.362921 C4.95238095,10.3356501 5.5989418,10.2947438 5.5989418,10.2947438 C8.28148148,10.0902125 10.4,7.86763867 10.4,5.15418963 C10.4,2.30438637 8.06137566,0 5.2,0 Z" id="Shape" fill="#23292F"></path>
                    <path d="M5.61169316,12.0963625 C5.12626155,11.9974953 4.64082995,12.2940968 4.54088815,12.7884326 C4.44094635,13.2686445 4.74077175,13.7488564 5.24048076,13.8477236 C5.72591236,13.9465907 6.21134396,13.6499892 6.31128576,13.1556534 C6.41122756,12.6613177 6.11140216,12.1952296 5.61169316,12.0963625 Z" id="Shape" fill="#E6007A"></path>
                </g>
                <path d="M4.33333333,9.30566406 L4.33333333,5.23046875 C4.35872409,3.91014965 5.01887373,3.25 6.31380208,3.25 L8.21809896,3.25 L8.21809896,4.12597656 L6.7327474,4.12597656 C6.04719709,4.12597656 5.6917319,4.46874657 5.66634115,5.15429688 L5.66634115,9.30566406 L4.33333333,9.30566406 Z" id="r" fill="#00F3AB"></path>
            </g>
            <g id="Group-60-Copy-18" transform="translate(25.566667, 13.216667) scale(1, -1) rotate(-180.000000) translate(-25.566667, -13.216667) translate(19.066667, 11.266667)">
                <path d="M5.31628131,0.362714967 C3.6546589,0.145066012 2.91705203,0.655394747 2.91705203,1.93058787 C2.91705203,3.20753942 3.65708444,3.73447267 5.31628131,3.54949126 L5.31628131,0.362714967 Z" id="Rectangle-53" stroke="#3CE69D" stroke-width="0.634104052"></path>
                <path d="M10.8333333,1.3 L12.5666667,1.3 C12.8059901,1.3 13,1.49400994 13,1.73333333 L13,1.73333333 C13,1.97265672 12.8059901,2.16666667 12.5666667,2.16666667 L10.8333333,2.16666667 C10.5940099,2.16666667 10.4,1.97265672 10.4,1.73333333 L10.4,1.73333333 C10.4,1.49400994 10.5940099,1.3 10.8333333,1.3 Z" id="Rectangle-54-Copy-3" fill="#3CE69D" opacity="0.414628623"></path>
                <path d="M10.5162813,0.362714967 C8.8546589,0.145066012 8.11705203,0.655394747 8.11705203,1.93058787 C8.11705203,3.20753942 8.85708444,3.73447267 10.5162813,3.54949126 L10.5162813,0.362714967 Z" id="Rectangle-53" stroke="#2D765C" stroke-width="0.634104052" transform="translate(9.316667, 1.950000) scale(-1, 1) translate(-9.316667, -1.950000) "></path>
                <rect id="Rectangle-54" fill="#3CE69D" x="5.63333333" y="0.866666667" width="1.3" height="1" rx="0.5"></rect>
                <rect id="Rectangle-54-Copy-2" fill="#3CE69D" opacity="0.414628623" x="0" y="1.3" width="3.03333333" height="1" rx="0.5"></rect>
                <rect id="Rectangle-54-Copy" fill="#3CE69D" x="5.63333333" y="2.16666667" width="1.3" height="1" rx="0.5"></rect>
            </g>
        </g>
    </g>
</svg>