<?xml version="1.0" encoding="UTF-8"?>
<svg width="54px" height="28px" viewBox="0 0 54 28" version="1.1" xmlns="http://www.w3.org/2000/svg" xmlns:xlink="http://www.w3.org/1999/xlink">
    <!-- Generator: Sketch 48.1 (47250) - http://www.bohemiancoding.com/sketch -->
    <title>Group Copy 3</title>
    <desc>Created with Sketch.</desc>
    <defs></defs>
    <g id="StaFi-rDOT-Copy-6" stroke="none" stroke-width="1" fill="none" fill-rule="evenodd" transform="translate(-319.000000, -323.000000)">
        <g id="Group-Copy-3" transform="translate(320.000000, 324.000000)">
            <g id="Group-2" transform="translate(26.000000, 0.000000)">
                <ellipse id="Oval-5-Copy-2" stroke="#525252" stroke-width="0.548888889" fill="#FFFFFF" cx="12.9384474" cy="12.6837838" rx="12.9384474" ry="12.6837838"></ellipse>
                <g id="Group-25" transform="translate(6.518056, 3.170946)" fill="#23292F">
                    <polygon id="Rectangle-14" points="5.97488426 0 11.9497685 10.3679081 5.97488426 14.1491452 0 10.4898835"></polygon>
                    <polygon id="Rectangle-14-Copy" points="6.21387963 0 6.21387963 7.92840031 6.21387963 14.1491452 0 10.4898835"></polygon>
                    <polygon id="Rectangle-18" points="5.97488426 8.21563268 11.9497685 10.6118589 5.97488426 14.1491452 0 10.7259649"></polygon>
                    <polygon id="Rectangle-18-Copy" points="6.21387963 8.21563268 6.21387963 10.6118589 6.21387963 14.1491452 0 10.7259649"></polygon>
                    <polygon id="Rectangle-28" points="0 11.4106009 5.97488426 15.0239579 11.9497685 11.4106009 5.97488426 20.0826577"></polygon>
                    <polygon id="Rectangle-28-Copy" points="0 11.4106009 6.21387963 15.0239579 6.21387963 20.0826577"></polygon>
                </g>
            </g>
            <g id="Group-2-Copy-49">
                <ellipse id="Oval-5-Copy-2" stroke="#525252" stroke-width="0.5" fill="#FFFFFF" cx="12.9026068" cy="13" rx="12.9026068" ry="13"></ellipse>
                <path d="M17.4508972,14.5513166 C16.9626668,14.5271592 16.4146405,14.4096846 15.8068182,14.1988931 C15.7918812,14.1895689 15.7768858,14.180336 15.7618319,14.1711944 L17.2236318,5.73529412 L19.2393048,5.83294244 L17.4508972,14.5513166 Z M17.1618594,15.9603574 L16.6954077,18.2342799 L14.7184187,18.2342799 L13.7987904,15.2930919 C14.3089995,15.3253377 14.7973462,15.3917016 15.2638307,15.4921837 L15.6084917,16.5750212 L15.6283603,15.5788067 C15.6882248,15.5943966 15.7477107,15.6105772 15.8068182,15.6273486 C16.2584986,15.8035707 16.710179,15.9145736 17.1618594,15.9603574 Z M13.2471377,13.4871218 L12.9468311,12.3791947 L12.6540677,13.4966169 C12.2004912,13.5237827 11.7765896,13.5972588 11.3823629,13.7170454 L12.4761194,9.97613043 L13.5288019,9.97613043 L14.7002254,13.7053544 C14.2535789,13.5737507 13.7692164,13.5010066 13.2471377,13.4871218 Z M12.1307798,15.3069276 L11.2608274,18.2342799 L9.35230551,18.2342799 L8.90685118,15.980096 C9.42099539,15.9566814 9.89032486,15.839099 10.3148396,15.6273486 C10.3857607,15.6072251 10.4572269,15.5879522 10.529238,15.5695297 L10.5847143,16.5750212 L10.8818957,15.4870336 C11.2821472,15.4019615 11.6984419,15.3419261 12.1307798,15.3069276 Z M8.62523872,14.55502 L6.88235294,5.73529412 L8.63511207,5.73529412 L10.430829,14.1290065 C10.3917817,14.1517024 10.3531185,14.174998 10.3148396,14.1988931 C9.80052421,14.436969 9.26658185,14.556007 8.71301248,14.556007 C8.68391112,14.556007 8.6546532,14.555678 8.62523872,14.55502 Z" id="Combined-Shape-Copy" fill="#23292F"></path>
                <path d="M4.33333333,9.30566406 L4.33333333,5.23046875 C4.35872409,3.91014965 5.01887373,3.25 6.31380208,3.25 L8.21809896,3.25 L8.21809896,4.12597656 L6.7327474,4.12597656 C6.04719709,4.12597656 5.6917319,4.46874657 5.66634115,5.15429688 L5.66634115,9.30566406 L4.33333333,9.30566406 Z" id="r" fill="#00F3AB"></path>
            </g>
            <g id="Group-60-Copy-18" transform="translate(25.566667, 13.216667) scale(1, -1) rotate(-180.000000) translate(-25.566667, -13.216667) translate(19.066667, 11.266667)">
                <path d="M5.54836789,0.382345776 C3.8544117,0.174966834 3.10299142,0.658481865 3.10299142,1.84962172 C3.10299142,3.0426574 3.85667442,3.54171609 5.54836789,3.36524723 L5.54836789,0.382345776 Z" id="Rectangle-53" stroke="#3CE69D" stroke-width="0.634104052"></path>
                <path d="M10.9221953,1.3334645 L12.5124713,1.3334645 C12.7571099,1.3334645 12.9554286,1.53178322 12.9554286,1.77642175 L12.9554286,1.77642175 C12.9554286,2.02106029 12.7571099,2.219379 12.5124713,2.219379 L10.9221953,2.219379 C10.6775568,2.219379 10.4792381,2.02106029 10.4792381,1.77642175 L10.4792381,1.77642175 C10.4792381,1.53178322 10.6775568,1.3334645 10.9221953,1.3334645 Z" id="Rectangle-54-Copy-3" fill="#3CE69D" opacity="0.414628623"></path>
                <path d="M10.5547748,0.387274843 C8.86081863,0.179895901 8.10939835,0.663410932 8.10939835,1.85455078 C8.10939835,3.04758647 8.86308134,3.54664516 10.5547748,3.3701763 L10.5547748,0.387274843 Z" id="Rectangle-53" stroke="#2D765C" stroke-width="0.634104052" transform="translate(9.332087, 1.872931) scale(-1, 1) translate(-9.332087, -1.872931) "></path>
                <rect id="Rectangle-54" fill="#3CE69D" x="5.66552381" y="0.902049516" width="1.26068207" height="1" rx="0.5"></rect>
                <rect id="Rectangle-54-Copy-2" fill="#3CE69D" opacity="0.414628623" x="0" y="1.3334645" width="3.07948052" height="1" rx="0.5"></rect>
                <rect id="Rectangle-54-Copy" fill="#3CE69D" x="5.66552381" y="2.19629447" width="1.26068207" height="1" rx="0.5"></rect>
            </g>
        </g>
    </g>
</svg>