<?xml version="1.0" encoding="UTF-8"?>
<svg width="54px" height="28px" viewBox="0 0 54 28" version="1.1" xmlns="http://www.w3.org/2000/svg" xmlns:xlink="http://www.w3.org/1999/xlink">
    <!-- Generator: Sketch 48.1 (47250) - http://www.bohemiancoding.com/sketch -->
    <title>Group Copy</title>
    <desc>Created with Sketch.</desc>
    <defs></defs>
    <g id="V2" stroke="none" stroke-width="1" fill="none" fill-rule="evenodd">
        <g id="Group-Copy" transform="translate(1.000000, 1.000000)">
            <g id="Group-2" transform="translate(26.000000, 0.000000)">
                <ellipse id="Oval-5-Copy-2" stroke="#525252" stroke-width="0.548888889" fill="#FFFFFF" cx="12.9384474" cy="12.6837838" rx="12.9384474" ry="12.6837838"></ellipse>
                <g id="Group-25" transform="translate(6.518056, 3.170946)" fill="#23292F">
                    <polygon id="Rectangle-14" points="5.97488426 0 11.9497685 10.3679081 5.97488426 14.1491452 0 10.4898835"></polygon>
                    <polygon id="Rectangle-14-Copy" points="6.21387963 0 6.21387963 7.92840031 6.21387963 14.1491452 0 10.4898835"></polygon>
                    <polygon id="Rectangle-18" points="5.97488426 8.21563268 11.9497685 10.6118589 5.97488426 14.1491452 0 10.7259649"></polygon>
                    <polygon id="Rectangle-18-Copy" points="6.21387963 8.21563268 6.21387963 10.6118589 6.21387963 14.1491452 0 10.7259649"></polygon>
                    <polygon id="Rectangle-28" points="0 11.4106009 5.97488426 15.0239579 11.9497685 11.4106009 5.97488426 20.0826577"></polygon>
                    <polygon id="Rectangle-28-Copy" points="0 11.4106009 6.21387963 15.0239579 6.21387963 20.0826577"></polygon>
                </g>
            </g>
            <g id="Group-2-Copy-50">
                <circle id="Oval-5-Copy-2" stroke="#525252" stroke-width="0.5" fill="#FFFFFF" cx="13" cy="13" r="13"></circle>
                <g id="Group-25" transform="translate(8.233333, 4.766667)" fill="#23292F">
                    <polygon id="Rectangle-14" points="4.76666667 0 9.53333333 8.72482367 4.76666667 11.9068182 0 8.82746865"></polygon>
                    <polygon id="Rectangle-14-Copy" points="4.95733333 0 4.95733333 6.67192398 4.95733333 11.9068182 0 8.82746865"></polygon>
                    <polygon id="Rectangle-18" points="4.76666667 6.91363636 9.53333333 8.93011364 4.76666667 11.9068182 0 9.02613636"></polygon>
                    <polygon id="Rectangle-18-Copy" points="4.95733333 6.91363636 4.95733333 8.93011364 4.95733333 11.9068182 0 9.02613636"></polygon>
                    <polygon id="Rectangle-28" points="0 9.60227273 4.76666667 12.6429924 9.53333333 9.60227273 4.76666667 16.9"></polygon>
                    <polygon id="Rectangle-28-Copy" points="0 9.60227273 4.95733333 12.6429924 4.95733333 16.9"></polygon>
                </g>
                <path d="M4.33333333,9.53333333 L4.33333333,5.45073375 C4.35882366,4.12801575 5.02156213,3.46666667 6.32156863,3.46666667 L8.23333333,3.46666667 L8.23333333,4.3442348 L6.74215686,4.3442348 C6.05391813,4.3442348 5.69705895,4.68762759 5.67156863,5.37442348 L5.67156863,9.53333333 L4.33333333,9.53333333 Z" id="r" fill="#00F3AB"></path>
            </g>
            <g id="Group-60-Copy-18" transform="translate(25.566667, 13.216667) scale(1, -1) rotate(-180.000000) translate(-25.566667, -13.216667) translate(19.066667, 11.266667)">
                <path d="M5.31628131,0.362714967 C3.6546589,0.145066012 2.91705203,0.655394747 2.91705203,1.93058787 C2.91705203,3.20753942 3.65708444,3.73447267 5.31628131,3.54949126 L5.31628131,0.362714967 Z" id="Rectangle-53" stroke="#3CE69D" stroke-width="0.634104052"></path>
                <path d="M10.8333333,1.3 L12.5666667,1.3 C12.8059901,1.3 13,1.49400994 13,1.73333333 L13,1.73333333 C13,1.97265672 12.8059901,2.16666667 12.5666667,2.16666667 L10.8333333,2.16666667 C10.5940099,2.16666667 10.4,1.97265672 10.4,1.73333333 L10.4,1.73333333 C10.4,1.49400994 10.5940099,1.3 10.8333333,1.3 Z" id="Rectangle-54-Copy-3" fill="#3CE69D" opacity="0.414628623"></path>
                <path d="M10.5162813,0.362714967 C8.8546589,0.145066012 8.11705203,0.655394747 8.11705203,1.93058787 C8.11705203,3.20753942 8.85708444,3.73447267 10.5162813,3.54949126 L10.5162813,0.362714967 Z" id="Rectangle-53" stroke="#2D765C" stroke-width="0.634104052" transform="translate(9.316667, 1.950000) scale(-1, 1) translate(-9.316667, -1.950000) "></path>
                <rect id="Rectangle-54" fill="#3CE69D" x="5.63333333" y="0.866666667" width="1.3" height="1" rx="0.5"></rect>
                <rect id="Rectangle-54-Copy-2" fill="#3CE69D" opacity="0.414628623" x="0" y="1.3" width="3.03333333" height="1" rx="0.5"></rect>
                <rect id="Rectangle-54-Copy" fill="#3CE69D" x="5.63333333" y="2.16666667" width="1.3" height="1" rx="0.5"></rect>
            </g>
        </g>
    </g>
</svg>