<?xml version="1.0" encoding="utf-8"?>
<svg width="52px" height="26px" viewBox="0 0 52 26" version="1.1" xmlns:xlink="http://www.w3.org/1999/xlink" xmlns="http://www.w3.org/2000/svg">
  <defs>
    <path d="M3.07948 0.0847689L3.07948 3.62433C3.07948 3.62433 0 4.04951 0 1.82794C1.13444e-16 -0.39364 3.07948 0.0847689 3.07948 0.0847689Z" transform="translate(2.7859395 0.021684196)" id="path_1" />
    <path d="M3.07948 0.0847689L3.07948 3.62433C3.07948 3.62433 0 4.04951 0 1.82794C1.13444e-16 -0.39364 3.07948 0.0847689 3.07948 0.0847689Z" transform="matrix(-1 0 0 1 10.871827 0.026613262)" id="path_2" />
    <clipPath id="clip_1">
      <use xlink:href="#path_1" />
    </clipPath>
    <clipPath id="clip_2">
      <use xlink:href="#path_2" />
    </clipPath>
  </defs>
  <g id="binance-coin-bnb-logo-2">
    <g id="Group-Copy-40">
      <g id="Group-2" transform="translate(26 0)">
        <path d="M12.9384 25.3676C20.0842 25.3676 25.8769 19.6888 25.8769 12.6838C25.8769 5.67872 20.0842 0 12.9384 0C5.79274 0 0 5.67872 0 12.6838C0 19.6888 5.79274 25.3676 12.9384 25.3676Z" id="Oval-5-Copy-2" fill="#FFFFFF" fill-rule="evenodd" stroke="#525252" stroke-width="0.54888886" />
      </g>
      <g id="Group-2-Copy-49">
        <path d="M12.9026 26C20.0285 26 25.8052 20.1797 25.8052 13C25.8052 5.8203 20.0285 0 12.9026 0C5.77669 0 0 5.8203 0 13C0 20.1797 5.77669 26 12.9026 26Z" id="Oval-5-Copy-2" fill="#FFFFFF" fill-rule="evenodd" stroke="#525252" stroke-width="0.5" />
        <path d="M0 6.05566L0 1.98047C0.0253908 0.66015 0.68554 0 1.98047 0L3.88477 0L3.88477 0.875977L2.39941 0.875977C1.71386 0.875977 1.3584 1.21875 1.33301 1.9043L1.33301 6.05566L0 6.05566Z" transform="translate(4.333313 3.25)" id="r" fill="#00F3AB" fill-rule="evenodd" stroke="none" />
      </g>
      <g id="Group-60-Copy-18" transform="matrix(-1 -2.1456883E-07 -2.1456883E-07 1 32.06665 11.266663)">
        <g id="Rectangle-53">
          <g clip-path="url(#clip_1)">
            <use xlink:href="#path_1" fill="none" stroke="#3CE69D" stroke-width="1.2682081" />
          </g>
        </g>
        <path d="M0.441957 -2.44909e-12L2.03423 -2.44906e-12Q2.07776 -2.44906e-12 2.12045 0.00849208Q2.16315 0.0169842 2.20336 0.033642Q2.24358 0.0502998 2.27977 0.0744832Q2.31596 0.0986666 2.34674 0.129446Q2.37752 0.160226 2.40171 0.196419Q2.42589 0.232612 2.44255 0.272828Q2.45921 0.313043 2.4677 0.355736Q2.47619 0.398428 2.47619 0.441957L2.47619 0.443957Q2.47619 0.487486 2.4677 0.530179Q2.45921 0.572871 2.44255 0.613087Q2.42589 0.653302 2.40171 0.689495Q2.37752 0.725688 2.34674 0.756468Q2.31596 0.787248 2.27977 0.811431Q2.24358 0.835615 2.20336 0.852272Q2.16315 0.86893 2.12045 0.877422Q2.07776 0.885914 2.03423 0.885915L0.441957 0.885915Q0.398428 0.885914 0.355736 0.877422Q0.313043 0.86893 0.272828 0.852272Q0.232612 0.835615 0.196419 0.811431Q0.160226 0.787248 0.129446 0.756468Q0.0986666 0.725688 0.0744832 0.689495Q0.0502998 0.653302 0.033642 0.613087Q0.0169842 0.572871 0.00849208 0.530179Q1.1117e-13 0.487486 1.01243e-13 0.443957L1.00787e-13 0.441957Q9.08605e-14 0.398428 0.00849208 0.355736Q0.0169842 0.313043 0.033642 0.272828Q0.0502998 0.232612 0.0744832 0.196419Q0.0986666 0.160226 0.129446 0.129446Q0.160226 0.0986666 0.196419 0.0744832Q0.232612 0.0502998 0.272828 0.033642Q0.313043 0.0169842 0.355736 0.00849208Q0.398428 -2.44909e-12 0.441957 -2.44909e-12Z" transform="translate(10.4792385 1.3334645)" id="Rectangle-54-Copy-3" fill="#3CE69D" fill-opacity="0.41462862" fill-rule="evenodd" stroke="none" />
        <g id="Rectangle-53">
          <g clip-path="url(#clip_2)">
            <use xlink:href="#path_2" fill="none" stroke="#2D765C" stroke-width="1.2682081" />
          </g>
        </g>
        <path d="M0.296621 0L0.964061 0Q0.993275 0 1.02193 0.00569949Q1.05058 0.011399 1.07757 0.022579Q1.10456 0.0337589 1.12885 0.0499897Q1.15315 0.0662205 1.1738 0.0868784Q1.19446 0.107536 1.21069 0.131827Q1.22692 0.156118 1.2381 0.183109Q1.24928 0.2101 1.25498 0.238753Q1.26068 0.267407 1.26068 0.296621L1.26068 0.298621Q1.26068 0.327836 1.25498 0.356489Q1.24928 0.385143 1.2381 0.412133Q1.22692 0.439124 1.21069 0.463415Q1.19446 0.487706 1.1738 0.508364Q1.15315 0.529022 1.12885 0.545253Q1.10456 0.561484 1.07757 0.572664Q1.05058 0.583844 1.02193 0.589543Q0.993275 0.595243 0.964061 0.595243L0.296621 0.595243Q0.267407 0.595243 0.238753 0.589543Q0.2101 0.583844 0.183109 0.572664Q0.156118 0.561484 0.131827 0.545253Q0.107536 0.529022 0.0868784 0.508364Q0.0662205 0.487706 0.0499897 0.463415Q0.0337589 0.439124 0.022579 0.412133Q0.011399 0.385143 0.00569949 0.356489Q0 0.327836 0 0.298621L0 0.296621Q0 0.267407 0.00569949 0.238753Q0.011399 0.2101 0.022579 0.183109Q0.0337589 0.156118 0.0499897 0.131827Q0.0662205 0.107536 0.0868784 0.0868784Q0.107536 0.0662205 0.131827 0.0499897Q0.156118 0.0337589 0.183109 0.022579Q0.2101 0.011399 0.238753 0.00569949Q0.267407 0 0.296621 0Z" transform="translate(5.665524 0.90204954)" id="Rectangle-54" fill="#3CE69D" fill-rule="evenodd" stroke="none" />
        <path d="M0.441957 0L2.63752 0Q2.68105 0 2.72374 0.00849208Q2.76644 0.0169842 2.80665 0.033642Q2.84687 0.0502998 2.88306 0.0744832Q2.91925 0.0986666 2.95003 0.129446Q2.98081 0.160226 3.005 0.196419Q3.02918 0.232612 3.04584 0.272828Q3.0625 0.313043 3.07099 0.355736Q3.07948 0.398428 3.07948 0.441957L3.07948 0.443957Q3.07948 0.487486 3.07099 0.530179Q3.0625 0.572871 3.04584 0.613087Q3.02918 0.653302 3.005 0.689495Q2.98081 0.725688 2.95003 0.756468Q2.91925 0.787248 2.88306 0.811431Q2.84687 0.835615 2.80665 0.852272Q2.76644 0.86893 2.72374 0.877422Q2.68105 0.885914 2.63752 0.885915L0.441957 0.885915Q0.398428 0.885914 0.355736 0.877422Q0.313043 0.86893 0.272828 0.852272Q0.232612 0.835615 0.196419 0.811431Q0.160226 0.787248 0.129446 0.756468Q0.0986666 0.725688 0.0744832 0.689495Q0.0502998 0.653302 0.033642 0.613087Q0.0169842 0.572871 0.00849208 0.530179Q0 0.487486 0 0.443957L0 0.441957Q0 0.398428 0.00849208 0.355736Q0.0169842 0.313043 0.033642 0.272828Q0.0502998 0.232612 0.0744832 0.196419Q0.0986666 0.160226 0.129446 0.129446Q0.160226 0.0986666 0.196419 0.0744832Q0.232612 0.0502998 0.272828 0.033642Q0.313043 0.0169842 0.355736 0.00849208Q0.398428 0 0.441957 0L0.441957 0Z" transform="translate(0 1.3334645)" id="Rectangle-54-Copy-2" fill="#3CE69D" fill-opacity="0.41462862" fill-rule="evenodd" stroke="none" />
        <path d="M0.296621 0L0.964061 0Q0.993275 0 1.02193 0.00569949Q1.05058 0.011399 1.07757 0.022579Q1.10456 0.0337589 1.12885 0.0499897Q1.15315 0.0662205 1.1738 0.0868784Q1.19446 0.107536 1.21069 0.131827Q1.22692 0.156118 1.2381 0.183109Q1.24928 0.2101 1.25498 0.238753Q1.26068 0.267407 1.26068 0.296621L1.26068 0.298621Q1.26068 0.327836 1.25498 0.356489Q1.24928 0.385143 1.2381 0.412133Q1.22692 0.439124 1.21069 0.463415Q1.19446 0.487706 1.1738 0.508364Q1.15315 0.529022 1.12885 0.545253Q1.10456 0.561484 1.07757 0.572664Q1.05058 0.583844 1.02193 0.589543Q0.993275 0.595243 0.964061 0.595243L0.296621 0.595243Q0.267407 0.595243 0.238753 0.589543Q0.2101 0.583844 0.183109 0.572664Q0.156118 0.561484 0.131827 0.545253Q0.107536 0.529022 0.0868784 0.508364Q0.0662205 0.487706 0.0499897 0.463415Q0.0337589 0.439124 0.022579 0.412133Q0.011399 0.385143 0.00569949 0.356489Q0 0.327836 0 0.298621L0 0.296621Q0 0.267407 0.00569949 0.238753Q0.011399 0.2101 0.022579 0.183109Q0.0337589 0.156118 0.0499897 0.131827Q0.0662205 0.107536 0.0868784 0.0868784Q0.107536 0.0662205 0.131827 0.0499897Q0.156118 0.0337589 0.183109 0.022579Q0.2101 0.011399 0.238753 0.00569949Q0.267407 0 0.296621 0Z" transform="translate(5.665524 2.1962945)" id="Rectangle-54-Copy" fill="#3CE69D" fill-rule="evenodd" stroke="none" />
      </g>
    </g>
    <g id="binance-coin-bnb-logo" transform="translate(4.999939 4.92157)">
      <path d="M4.58691 6.30312L7.50004 3.39L10.4145 6.30438L12.1095 4.60938L7.50004 0L2.89203 4.608L4.58697 6.303L4.58691 6.30312ZM0 7.50005L1.69506 5.80475L3.39001 7.49969L1.69494 9.19475L0 7.50005ZM4.58693 8.69706L7.50006 11.61L10.4145 8.69568L12.1104 10.3898L12.1096 10.3907L7.50006 15L2.89205 10.392L2.88965 10.3896L4.58711 8.69688L4.58693 8.69706ZM11.61 7.50072L13.3051 5.80566L15.0001 7.5006L13.305 9.19566L11.61 7.50072Z" id="Shape" fill="#23292F" stroke="none" />
      <path d="M3.43998 1.71996L3.4407 1.71996L1.72086 0L0.449641 1.27086L0.449641 1.27086L0.3036 1.41696L0.0024 1.71822L0 1.72056L0.0024 1.72302L1.72086 3.44172L3.44082 1.72176L3.44166 1.7208L3.4401 1.71996" transform="translate(5.779175 5.779175)" id="Shape" fill="#23292F" fill-rule="evenodd" stroke="none" />
    </g>
    <g id="binance-coin-bnb-logo-2" transform="translate(31.999878 5.663391)">
      <path d="M4.58691 6.30312L7.50004 3.39L10.4145 6.30438L12.1095 4.60938L7.50004 0L2.89203 4.608L4.58697 6.303L4.58691 6.30312ZM0 7.50005L1.69506 5.80475L3.39001 7.49969L1.69494 9.19475L0 7.50005ZM4.58693 8.69706L7.50006 11.61L10.4145 8.69568L12.1104 10.3898L12.1096 10.3907L7.50006 15L2.89205 10.392L2.88965 10.3896L4.58711 8.69688L4.58693 8.69706ZM11.61 7.50072L13.3051 5.80566L15.0001 7.5006L13.305 9.19566L11.61 7.50072Z" id="Shape" fill="#23292F" stroke="none" />
      <path d="M3.43998 1.71996L3.4407 1.71996L1.72086 0L0.449641 1.27086L0.449641 1.27086L0.3036 1.41696L0.0024 1.71822L0 1.72056L0.0024 1.72302L1.72086 3.44172L3.44082 1.72176L3.44166 1.7208L3.4401 1.71996" transform="translate(5.779175 5.779175)" id="Shape" fill="#23292F" fill-rule="evenodd" stroke="none" />
    </g>
  </g>
</svg>