<?xml version="1.0" encoding="utf-8"?>
<svg width="37px" height="37px" viewBox="0 0 37 37" version="1.1" xmlns:xlink="http://www.w3.org/1999/xlink" xmlns="http://www.w3.org/2000/svg">
  <g id="Group-2-Copy-6" transform="translate(0.3798828 0.38000488)">
    <path d="M17.8651 36C27.7318 36 35.7303 27.9411 35.7303 18C35.7303 8.05887 27.7318 0 17.8651 0C7.9985 0 0 8.05887 0 18C0 27.9411 7.9985 36 17.8651 36Z" id="Oval-5-Copy-2" fill="#FFFFFF" fill-rule="evenodd" stroke="#EEEEEE" stroke-width="0.76" />
    <path d="M14.6337 12.2051L17.1096 0.135205L14.3187 0L12.2944 11.682C12.3356 11.7055 12.357 11.7188 12.357 11.7188C12.357 11.7188 13.5739 12.1409 14.6337 12.2051ZM14.2345 14.1512C13.2203 14.0335 12.357 13.6967 12.357 13.6967C12.357 13.6967 12.2692 13.6718 12.1098 13.6332L12.0823 15.0089L11.6091 13.5221C11.1095 13.4205 10.3955 13.3009 9.57878 13.2408L10.8499 17.3063L13.5873 17.3063L14.2345 14.1512ZM8.81306 10.7344L8.39697 9.19925L7.99039 10.7511C7.31569 10.8016 6.71492 10.9364 6.2196 11.0899L7.74521 5.87193L9.20278 5.87193L10.8367 11.0736C10.277 10.9043 9.58793 10.761 8.81306 10.7344ZM5.53431 13.5153C5.97584 13.4265 6.57672 13.3255 7.26414 13.2628L6.0625 17.3063L3.41993 17.3063L2.80282 14.1834C3.90262 14.1207 4.75267 13.6967 4.75267 13.6967C4.75267 13.6967 4.85886 13.6666 5.04978 13.6212L5.12635 15.0089L5.53431 13.5153ZM4.91435 11.6271L2.4269 0L0 0L2.41315 12.2115C2.45393 12.2127 2.49449 12.2133 2.53476 12.2133C3.68448 12.2133 4.75267 11.7188 4.75267 11.7188C4.75267 11.7188 4.80867 11.6839 4.91435 11.6271Z" transform="translate(9.529411 9.529411)" id="Combined-Shape-Copy" fill="#23292F" fill-rule="evenodd" stroke="none" />
  </g>
</svg>