<?xml version="1.0" encoding="utf-8"?>
<svg width="10px" height="18px" viewBox="0 0 10 18" version="1.1" xmlns:xlink="http://www.w3.org/1999/xlink" xmlns="http://www.w3.org/2000/svg">
  <g id="Group-25">
    <path d="M5 0L10 9.08621L5 12.4L0 9.1931L5 0Z" id="Rectangle-14" fill="#23292F" fill-rule="evenodd" stroke="none" />
    <path d="M5.2 0L5.2 6.94828L5.2 12.4L0 9.1931L5.2 0Z" id="Rectangle-14-Copy" fill="#23292F" fill-rule="evenodd" stroke="none" />
    <path d="M5 0L10 2.1L5 5.2L0 2.2L5 0Z" transform="translate(0 7.2)" id="Rectangle-18" fill="#23292F" fill-rule="evenodd" stroke="none" />
    <path d="M5.2 0L5.2 2.1L5.2 5.2L0 2.2L5.2 0Z" transform="translate(0 7.2)" id="Rectangle-18-Copy" fill="#23292F" fill-rule="evenodd" stroke="none" />
    <path d="M0 0L5 3.16667L10 0L5 7.6L0 0Z" transform="translate(0 10)" id="Rectangle-28" fill="#23292F" fill-rule="evenodd" stroke="none" />
    <path d="M0 0L5.2 3.16667L5.2 7.6L0 0Z" transform="translate(0 10)" id="Rectangle-28-Copy" fill="#23292F" fill-rule="evenodd" stroke="none" />
  </g>
</svg>