<?xml version="1.0" encoding="utf-8"?>
<svg width="37px" height="37px" viewBox="0 0 37 37" version="1.1" xmlns:xlink="http://www.w3.org/1999/xlink" xmlns="http://www.w3.org/2000/svg">
  <defs>
    <path d="M0.55915 6.885C1.11629 1.485 3.48415 -2.27374e-13 3.48415 -2.27374e-13C3.48415 -2.27374e-13 5.99129 1.40972e-13 6.827 10.125C7.66272 20.25 6.6689 22.6198 5.99129 27.135C5.31368 31.6502 3.48415 32.4 3.48415 32.4C3.48415 32.4 1.47213 32.264 0.55915 24.3C-0.353834 16.336 0.00200729 12.285 0.55915 6.885Z" transform="translate(14.291992 1.1999512)" id="path_1" />
    <path d="M0.55915 6.885C1.11629 1.485 3.48415 -2.27374e-13 3.48415 -2.27374e-13C3.48415 -2.27374e-13 5.99129 1.40972e-13 6.827 10.125C7.66272 20.25 6.6689 22.6198 5.99129 27.135C5.31368 31.6502 3.48415 32.4 3.48415 32.4C3.48415 32.4 1.47213 32.264 0.55915 24.3C-0.353834 16.336 0.00200729 12.285 0.55915 6.885Z" transform="matrix(0.49999997 -0.86602545 0.86602545 0.49999997 2.0488281 12.394287)" id="path_2" />
    <path d="M0.55915 6.885C1.11629 1.485 3.48415 -2.27374e-13 3.48415 -2.27374e-13C3.48415 -2.27374e-13 5.99129 1.40972e-13 6.827 10.125C7.66272 20.25 6.6689 22.6198 5.99129 27.135C5.31368 31.6502 3.48415 32.4 3.48415 32.4C3.48415 32.4 1.47213 32.264 0.55915 24.3C-0.353834 16.336 0.00200729 12.285 0.55915 6.885Z" transform="matrix(0.4999999 0.86602545 -0.86602545 0.4999999 30.108398 6.2055664)" id="path_3" />
    <clipPath id="clip_1">
      <use xlink:href="#path_1" />
    </clipPath>
    <clipPath id="clip_2">
      <use xlink:href="#path_2" />
    </clipPath>
    <clipPath id="clip_3">
      <use xlink:href="#path_3" />
    </clipPath>
  </defs>
  <g id="Group-9-Copy-11" transform="translate(0.25 0.25)">
    <path d="M17.8651 36C27.7318 36 35.7303 27.9411 35.7303 18C35.7303 8.05887 27.7318 0 17.8651 0C7.9985 0 0 8.05887 0 18C0 27.9411 7.9985 36 17.8651 36Z" id="Oval-5" fill="#FFFFFF" fill-opacity="0" fill-rule="evenodd" stroke="none" />
    <path d="M10.7191 21.6C16.6391 21.6 21.4382 16.7647 21.4382 10.8C21.4382 4.83532 16.6391 0 10.7191 0C4.7991 0 0 4.83532 0 10.8C0 16.7647 4.7991 21.6 10.7191 21.6Z" transform="translate(7.145996 7.199951)" id="Oval-6" fill="none" fill-rule="evenodd" stroke="#23292F" stroke-width="0.5" />
    <g id="Rectangle">
      <g clip-path="url(#clip_1)">
        <use xlink:href="#path_1" fill="none" stroke="#23292F" stroke-width="1" />
      </g>
    </g>
    <g id="Rectangle-Copy">
      <g clip-path="url(#clip_2)">
        <use xlink:href="#path_2" fill="none" stroke="#23292F" stroke-width="1" />
      </g>
    </g>
    <g id="Rectangle-Copy-2">
      <g clip-path="url(#clip_3)">
        <use xlink:href="#path_3" fill="none" stroke="#23292F" stroke-width="1" />
      </g>
    </g>
    <path d="M1.78651 3.6C2.77318 3.6 3.57303 2.79411 3.57303 1.8C3.57303 0.805887 2.77318 0 1.78651 0C0.79985 0 0 0.805887 0 1.8C0 2.79411 0.79985 3.6 1.78651 3.6Z" transform="translate(16.674316 16.800049)" id="Oval-7" fill="#23292F" fill-rule="evenodd" stroke="none" />
    <path d="M1.19101 2.4C1.84879 2.4 2.38202 1.86274 2.38202 1.2C2.38202 0.537258 1.84879 0 1.19101 0C0.533233 0 0 0.537258 0 1.2C0 1.86274 0.533233 2.4 1.19101 2.4Z" transform="translate(5.955078 13.199951)" id="Oval-7-Copy" fill="#23292F" fill-rule="evenodd" stroke="none" />
    <path d="M1.19101 2.4C1.84879 2.4 2.38202 1.86274 2.38202 1.2C2.38202 0.537258 1.84879 0 1.19101 0C0.533233 0 0 0.537258 0 1.2C0 1.86274 0.533233 2.4 1.19101 2.4Z" transform="translate(14.291992 26.399902)" id="Oval-7-Copy-2" fill="#23292F" fill-rule="evenodd" stroke="none" />
    <path d="M1.19101 2.4C1.84879 2.4 2.38202 1.86274 2.38202 1.2C2.38202 0.537258 1.84879 0 1.19101 0C0.533233 0 0 0.537258 0 1.2C0 1.86274 0.533233 2.4 1.19101 2.4Z" transform="translate(23.820312 8.399902)" id="Oval-7-Copy-3" fill="#23292F" fill-rule="evenodd" stroke="none" />
  </g>
</svg>