<?xml version="1.0" encoding="utf-8"?>
<svg width="30px" height="19px" viewBox="0 0 30 19" version="1.1" xmlns:xlink="http://www.w3.org/1999/xlink" xmlns="http://www.w3.org/2000/svg">
  <path d="M2.09851 16.697C2.09851 16.697 12.7773 12.3988 14.8558 13.5089L13.6021 13.8845C13.7118 13.8845 15.7438 14.0199 15.7438 14.0199C15.8402 14.8846 16.3126 15.6596 17.0308 16.1318C18.2547 16.9542 18.278 17.401 18.278 17.401C18.278 17.401 17.6428 17.6649 17.6428 18C18.2334 17.8279 18.8442 17.738 19.4586 17.7326C20.0128 17.7528 20.5623 17.8426 21.0948 18C21.0948 18 21.0317 17.6616 20.1769 17.401C19.3222 17.1404 18.4975 16.2198 18.0818 15.7087C17.5746 15.0442 17.4483 14.1572 17.7492 13.3735C18.0452 12.6018 19.0795 12.172 21.178 11.0619C23.6689 9.75215 24.2376 8.77067 24.5868 8.01594C24.936 7.26121 25.4615 5.74837 25.7508 5.03764C25.9914 4.37333 26.4053 3.7883 26.9481 3.34543C27.3172 3.05775 29 2.41133 29 2.41133C29 2.41133 27.7163 1.29785 27.2972 0.962793C26.7735 0.458002 26.1111 0.127465 25.3983 0.0151538C24.507 -0.103301 23.6024 0.499127 22.9905 0.901874C22.3786 1.30462 21.1946 2.4824 20.7157 2.82084C20.2368 3.15929 19.0096 3.49773 17.0575 4.71274C15.1053 5.92775 7.35642 10.9604 7.35642 10.9604L9.35184 10.9807L0.395757 15.7087L1.29037 15.7087L0 16.7241C0.714677 16.8906 1.46483 16.7744 2.09851 16.3992L2.09851 16.697Z" transform="translate(0.25 0.25)" id="Path" fill="#333B43" fill-rule="evenodd" stroke="none" />
</svg>