<?xml version="1.0" encoding="UTF-8"?>
<svg width="29px" height="26px" viewBox="0 0 29 26" version="1.1" xmlns="http://www.w3.org/2000/svg" xmlns:xlink="http://www.w3.org/1999/xlink">
    <!-- Generator: Sketch 61.2 (89653) - https://sketch.com -->
    <title>Group</title>
    <desc>Created with Sketch.</desc>
    <g id="Page-1" stroke="none" stroke-width="1" fill="none" fill-rule="evenodd">
        <g id="Stafi-Product-1-Copy-36" transform="translate(-817.000000, -420.000000)">
            <g id="Group" transform="translate(817.000000, 420.000000)">
                <g id="Group-10-Copy-100" transform="translate(0.000000, 7.000000)">
                    <path d="M8.87819393,18.9832303 C17.0503458,18.9832303 16.2766889,19.6449192 16.2766889,12.6554869 C16.2766889,5.66605446 17.0503458,0 8.87819393,0 C0.706042075,0 0,5.66605446 0,12.6554869 C0,19.6449192 0.706042075,18.9832303 8.87819393,18.9832303 Z" id="Oval-6" fill="#FF6464"></path>
                    <ellipse id="Oval-7-Copy" fill="#FFFFFF" cx="10.7407407" cy="9.5" rx="2.59259259" ry="2.46296296"></ellipse>
                    <ellipse id="Oval-7-Copy-2" fill="#FFFFFF" cx="3.33333333" cy="9.5" rx="2.59259259" ry="2.46296296"></ellipse>
                </g>
                <g id="Group-10-Copy-108" transform="translate(12.000000, 0.000000)">
                    <path d="M8.87819393,18.9832303 C17.0503458,18.9832303 16.2766889,19.6449192 16.2766889,12.6554869 C16.2766889,5.66605446 17.0503458,0 8.87819393,0 C0.706042075,0 0,5.66605446 0,12.6554869 C0,19.6449192 0.706042075,18.9832303 8.87819393,18.9832303 Z" id="Oval-6" fill="#FF6464"></path>
                    <ellipse id="Oval-7-Copy" fill="#FFFFFF" cx="10.7407407" cy="9.5" rx="2.59259259" ry="2.46296296"></ellipse>
                    <ellipse id="Oval-7-Copy-2" fill="#FFFFFF" cx="3.33333333" cy="9.5" rx="2.59259259" ry="2.46296296"></ellipse>
                </g>
            </g>
        </g>
    </g>
</svg>